<?xml version="1.0" encoding="utf-8"?>
<!-- Generator: Adobe Illustrator 16.0.0, SVG Export Plug-In . SVG Version: 6.00 Build 0)  -->
<!DOCTYPE svg PUBLIC "-//W3C//DTD SVG 1.1//EN" "http://www.w3.org/Graphics/SVG/1.1/DTD/svg11.dtd">
<svg version="1.1" xmlns="http://www.w3.org/2000/svg" xmlns:xlink="http://www.w3.org/1999/xlink" x="0px" y="0px" width="400px"
	 height="400px" viewBox="0 0 400 400" enable-background="new 0 0 400 400" xml:space="preserve">
<g id="Layer_2">
	<rect fill="#FFFFFF" width="401.883" height="400"/>
</g>
<g id="Layer_1">
	<g>
		<g>
			<g>
				<path fill="#FFFFFF" d="M245.049,261.204c0,0-10.133-28.638-10.133-54.052c0-25.416,19.1-36.155,27.119-36.155
					c8.023,0,12.99,4.653,12.99,4.653s7.256,10.145,8.277,13.483c1.018,3.341-0.764,5.249,1.018,8.353
					c1.781,3.101,5.348,20.562,6.367,26.628s3.309,18.713,4.074,20.385c0.764,1.67,5.604,23.626,5.604,28.876
					s-0.258,14.502,1.018,18.229c1.273,3.727-1.529,12.795-3.059,15.42c-1.525,2.625-7.637,10.979-10.184,11.455
					s-15.723,0.238-19.832-0.955c-4.107-1.193-31.609-10.979-35.939-11.932c-4.33-0.955-44.311-10.939-44.311-10.939
					s2.548,0.264,3.821-4.898c1.271-5.162,2.519-17.813,2.787-25.926s0-15.988,0-15.988s20.457,4.291,26.533,7.635
					c0,0,9.387,1.674,12.953,5.252c0,0,2.854-1.67,7.666,0.717c4.813,2.385,2.775,5.725,4.813,8.113
					C248.666,271.944,245.049,261.204,245.049,261.204z"/>
				<path d="M245.049,261.204c-1.604-4.677-3.002-9.423-4.261-14.204c-0.63-2.391-1.21-4.794-1.772-7.202
					c-0.529-2.414-1.059-4.83-1.508-7.262c-0.246-1.212-0.453-2.431-0.652-3.651c-0.197-1.221-0.429-2.436-0.582-3.663l-0.509-3.675
					l-0.392-3.689c-0.152-1.228-0.199-2.465-0.294-3.698c-0.089-1.233-0.18-2.468-0.19-3.706c-0.02-1.238-0.093-2.469-0.066-3.715
					l0.167-3.704c0.271-2.458,0.591-4.934,1.27-7.321c0.249-1.218,0.696-2.377,1.116-3.545c0.222-0.579,0.387-1.181,0.656-1.74
					l0.799-1.682c0.282-0.552,0.498-1.14,0.835-1.663l0.96-1.595c0.597-1.093,1.396-2.05,2.123-3.057
					c0.353-0.512,0.764-0.978,1.186-1.435l1.242-1.387c0.422-0.456,0.9-0.856,1.347-1.287c0.466-0.411,0.884-0.877,1.388-1.242
					c1.921-1.578,4-2.961,6.225-4.08c2.244-1.063,4.617-1.94,7.131-2.154c0.318-0.014,0.615-0.075,0.953-0.049l0.924,0.063
					c0.617,0.046,1.234,0.073,1.85,0.136c1.225,0.27,2.486,0.431,3.65,0.89c2.371,0.784,4.609,1.959,6.547,3.589l0.016,0.012
					l0.017,0.023c1.546,2.17,3.048,4.367,4.493,6.606c0.734,1.111,1.416,2.26,2.109,3.399l0.963,1.764
					c0.298,0.612,0.557,1.225,0.804,1.896c0.89,2.655-0.541,5.505,0.8,7.772c0.605,1.164,1.061,2.502,1.44,3.763
					c0.38,1.281,0.731,2.567,1.056,3.86c1.3,5.168,2.406,10.374,3.426,15.6c0.988,5.241,1.832,10.479,2.867,15.694
					c0.528,2.593,1.012,5.24,1.703,7.744c0.843,2.473,1.435,5.183,2.029,7.747c1.169,5.196,2.252,10.408,3.145,15.666
					c0.187,1.325,0.415,2.636,0.566,3.973l0.162,2.028c0.055,0.679,0.013,1.333,0.024,2.001c-0.01,2.661-0.017,5.315,0.052,7.964
					c0.106,2.632,0.208,5.317,0.815,7.803l0.247,0.974l0.123,0.484l0.07,0.545c0.091,0.73,0.081,1.398,0.047,2.088
					c-0.076,1.366-0.291,2.703-0.564,4.022c-0.582,2.634-1.356,5.202-2.501,7.684c-0.635,1.258-1.413,2.322-2.183,3.428
					c-0.778,1.09-1.587,2.156-2.425,3.201c-0.839,1.045-1.707,2.067-2.646,3.039c-0.469,0.486-0.954,0.961-1.479,1.406
					c-0.532,0.438-1.064,0.882-1.819,1.154l-0.287,0.094c-0.149,0.034-0.184,0.024-0.281,0.038l-0.496,0.05
					c-0.333,0.028-0.656,0.079-1,0.081l-2.035,0.063c-1.335-0.005-2.672,0.01-4.005-0.04c-2.668-0.054-5.332-0.222-7.996-0.479
					l-1.998-0.252c-0.666-0.094-1.334-0.269-2.002-0.4c-1.307-0.374-2.535-0.828-3.807-1.239
					c-5.049-1.668-10.067-3.458-15.104-5.172c-5.037-1.685-10.055-3.502-15.123-4.99l-1.898-0.585
					c-0.645-0.187-1.289-0.328-1.936-0.495l-3.87-0.964l-7.741-1.928l-30.966-7.712l0.08-0.474c0.402,0.018,0.862-0.215,1.249-0.455
					l0.531-0.479c0.17-0.167,0.292-0.386,0.442-0.575c0.56-0.798,0.92-1.741,1.194-2.698c0.176-0.469,0.239-0.955,0.337-1.462
					l0.278-1.497c0.176-0.999,0.393-1.993,0.534-2.996l0.756-6.025c0.207-2.017,0.372-4.039,0.561-6.059
					c0.1-1.01,0.181-2.021,0.226-3.033l0.173-3.037c0.042-1.017,0.149-2.018,0.138-3.035l0.034-3.045l0.068-6.089
					c0.03-2.03-0.056-4.055-0.078-6.083l-0.002-0.18l0.172,0.036c2.256,0.484,4.501,1.009,6.746,1.538
					c2.238,0.554,4.48,1.095,6.705,1.707c1.114,0.296,2.23,0.588,3.332,0.929l1.659,0.491c0.552,0.17,1.11,0.315,1.655,0.504
					l3.271,1.133c0.547,0.188,1.062,0.461,1.594,0.687l1.582,0.711l-0.025-0.01c2.316,0.46,4.604,1.061,6.824,1.866
					c1.107,0.405,2.205,0.852,3.248,1.408c0.266,0.13,0.522,0.275,0.773,0.433c0.25,0.156,0.516,0.291,0.75,0.474
					c0.238,0.176,0.487,0.337,0.716,0.524l0.665,0.591l-0.068-0.009c0.529-0.252,1.088-0.413,1.661-0.48
					c0.284-0.057,0.571-0.07,0.86-0.067c0.287,0.007,0.576-0.038,0.861,0.016c0.57,0.072,1.147,0.112,1.695,0.294l0.833,0.224
					c0.272,0.088,0.531,0.216,0.798,0.321c0.527,0.224,1.069,0.429,1.557,0.731c0.498,0.279,0.97,0.624,1.386,1.02
					c0.415,0.397,0.773,0.859,1.024,1.379c0.27,0.51,0.426,1.07,0.549,1.629c0.242,1.113,0.335,2.287,0.929,3.277
					c0.159,0.233,0.312,0.479,0.515,0.679c0.098,0.088,0.221,0.217,0.342,0.169c0.103-0.083,0.09-0.253,0.102-0.386
					c-0.016-0.569-0.143-1.133-0.263-1.69C246.449,265.565,245.76,263.38,245.049,261.204z M245.049,261.204
					c0.719,2.173,1.418,4.355,1.95,6.583c0.123,0.559,0.251,1.12,0.271,1.696c-0.017,0.139,0.013,0.304-0.116,0.417
					c-0.171,0.061-0.287-0.089-0.39-0.174c-0.206-0.201-0.361-0.448-0.523-0.684c-0.604-0.998-0.701-2.181-0.947-3.287
					c-0.125-0.556-0.282-1.109-0.551-1.612c-0.25-0.512-0.605-0.966-1.017-1.356c-0.415-0.391-0.876-0.726-1.375-1.004
					c-0.49-0.301-1.022-0.498-1.55-0.72c-0.266-0.104-0.523-0.23-0.795-0.316l-0.826-0.218c-0.545-0.179-1.116-0.216-1.681-0.285
					c-0.282-0.053-0.567-0.007-0.852-0.012c-0.285-0.002-0.568,0.013-0.848,0.07c-0.563,0.066-1.118,0.231-1.62,0.473l-0.037,0.019
					l-0.03-0.027l-0.659-0.58c-0.226-0.185-0.474-0.343-0.71-0.516c-0.232-0.18-0.496-0.313-0.745-0.467
					c-0.25-0.154-0.505-0.299-0.77-0.426c-1.039-0.549-2.133-0.989-3.238-1.388c-2.213-0.794-4.5-1.385-6.805-1.831l-0.01-0.002
					l-0.018-0.008l-1.574-0.699c-0.529-0.222-1.039-0.49-1.584-0.674l-3.268-1.117c-0.544-0.186-1.104-0.329-1.654-0.496
					l-1.658-0.484c-1.102-0.335-2.217-0.623-3.332-0.913c-2.224-0.603-4.467-1.135-6.705-1.679
					c-2.245-0.519-4.491-1.034-6.745-1.508l0.17-0.144c0.031,2.031,0.125,4.066,0.103,6.096l-0.043,6.09l-0.021,3.045
					c0.016,1.015-0.087,2.037-0.125,3.048l-0.161,3.044c-0.042,1.016-0.118,2.029-0.214,3.04c-0.18,2.024-0.337,4.049-0.537,6.072
					l-0.736,6.063c-0.138,1.008-0.351,2-0.522,3.001l-0.272,1.498c-0.092,0.489-0.161,1.014-0.34,1.502
					c-0.28,0.989-0.646,1.973-1.249,2.841c-0.564,0.867-1.435,1.684-2.655,1.718l0.08-0.474l30.995,7.585l7.749,1.896l3.875,0.948
					c0.643,0.163,1.298,0.305,1.93,0.485l1.918,0.581c5.145,1.487,10.141,3.277,15.197,4.944c5.041,1.692,10.049,3.457,15.106,5.104
					c1.259,0.401,2.534,0.864,3.78,1.215c0.639,0.121,1.26,0.284,1.91,0.372l1.961,0.24c2.63,0.242,5.278,0.398,7.928,0.441
					c1.326,0.044,2.648,0.024,3.973,0.022l1.951-0.066c0.322,0,0.657-0.054,0.986-0.083c0.335-0.052,0.682-0.028,0.893-0.147
					c0.5-0.175,1.03-0.582,1.512-0.991c0.487-0.417,0.952-0.875,1.404-1.348c0.905-0.945,1.757-1.954,2.578-2.987
					c0.821-1.032,1.616-2.089,2.379-3.167c0.745-1.075,1.531-2.177,2.088-3.3c1.077-2.352,1.839-4.913,2.396-7.468
					c0.271-1.281,0.483-2.577,0.561-3.867c0.037-0.636,0.042-1.305-0.029-1.893l-0.049-0.445l-0.12-0.482l-0.239-0.961
					c-0.643-2.689-0.716-5.363-0.818-8.034c-0.058-2.67-0.039-5.334-0.02-7.991c-0.009-0.661,0.036-1.339-0.017-1.985l-0.148-1.949
					c-0.142-1.304-0.366-2.617-0.544-3.926c-0.867-5.232-1.927-10.443-3.071-15.629c-0.292-1.294-0.576-2.598-0.897-3.86
					c-0.288-1.277-0.663-2.536-1.082-3.827c-0.714-2.625-1.171-5.222-1.695-7.84c-1.014-5.224-1.842-10.492-2.804-15.708
					c-0.995-5.218-2.08-10.425-3.354-15.578c-0.318-1.287-0.662-2.568-1.033-3.838c-0.387-1.284-0.774-2.477-1.391-3.682
					c-0.326-0.613-0.508-1.297-0.611-1.983c-0.076-0.694-0.051-1.38,0.002-2.047c0.113-1.354,0.189-2.561-0.203-3.877
					c-0.217-0.568-0.469-1.191-0.751-1.771l-0.942-1.741c-0.684-1.134-1.354-2.277-2.082-3.387c-1.43-2.235-2.922-4.437-4.453-6.604
					l0.031,0.035c-1.841-1.56-4.053-2.744-6.363-3.512c-1.144-0.457-2.354-0.61-3.539-0.883c-0.61-0.065-1.23-0.095-1.846-0.144
					l-0.925-0.066c-0.278-0.025-0.599,0.033-0.896,0.045c-2.424,0.195-4.772,1.046-6.986,2.085c-2.198,1.095-4.26,2.455-6.166,4.007
					c-0.501,0.359-0.916,0.819-1.379,1.224c-0.443,0.425-0.918,0.819-1.338,1.269l-1.236,1.369c-0.419,0.451-0.828,0.91-1.18,1.416
					c-0.723,0.994-1.52,1.939-2.115,3.02l-0.959,1.578c-0.336,0.517-0.551,1.099-0.834,1.645l-0.799,1.665
					c-0.27,0.554-0.436,1.151-0.658,1.724c-0.422,1.157-0.871,2.306-1.123,3.515c-0.685,2.373-1.01,4.817-1.29,7.263l-0.183,3.703
					c-0.03,1.224,0.038,2.466,0.053,3.698c0.005,1.234,0.09,2.467,0.174,3.699c0.09,1.231,0.133,2.467,0.279,3.694l0.376,3.687
					l0.493,3.673c0.148,1.227,0.374,2.442,0.566,3.662c0.195,1.221,0.396,2.439,0.639,3.651c0.438,2.433,0.957,4.849,1.477,7.265
					c0.553,2.409,1.123,4.813,1.742,7.207C242.086,251.77,243.464,256.521,245.049,261.204z"/>
			</g>
			<g>
				<path fill="#FFFFFF" d="M205.883,289.364c0.564-2.354,4.619-3.885,6.756-2.395c1.678,1.17,0.875,4.408,0.811,6.16
					c-2.133-0.102-3.553-1.691-3.49-3.766"/>
				<path fill="#231F20" d="M205.883,289.364l0.096-0.449c0.055-0.145,0.116-0.291,0.182-0.438c0.154-0.273,0.334-0.535,0.547-0.773
					c0.424-0.477,0.954-0.851,1.526-1.138c0.571-0.292,1.197-0.482,1.847-0.565c0.325-0.04,0.658-0.061,0.992-0.024
					c0.332,0.017,0.671,0.088,0.998,0.196c0.339,0.11,0.625,0.249,0.955,0.494c0.202,0.137,0.561,0.538,0.697,0.835
					c0.35,0.646,0.438,1.329,0.459,1.972c0.049,1.289-0.213,2.517-0.313,3.673l-0.041,0.477l-0.398-0.072l-0.773-0.141
					c-0.251-0.071-0.494-0.181-0.736-0.271c-0.123-0.046-0.228-0.132-0.339-0.199l-0.326-0.217
					c-0.199-0.167-0.374-0.362-0.558-0.542c-0.149-0.21-0.285-0.431-0.412-0.647c-0.088-0.24-0.186-0.473-0.256-0.71
					c-0.038-0.247-0.087-0.49-0.111-0.731l0.041-0.727l0.125,0.703c0.064,0.226,0.151,0.443,0.223,0.659
					c0.104,0.205,0.23,0.396,0.34,0.591l0.443,0.499c0.18,0.131,0.344,0.276,0.524,0.394l0.294,0.142
					c0.1,0.041,0.186,0.11,0.292,0.136c0.211,0.053,0.413,0.126,0.624,0.167l0.646,0.056l-0.44,0.404
					c0.033-1.271,0.219-2.453,0.167-3.601c-0.034-0.564-0.112-1.122-0.34-1.556c-0.14-0.244-0.174-0.325-0.454-0.558
					c-0.158-0.112-0.41-0.273-0.646-0.356c-0.242-0.097-0.504-0.17-0.775-0.197c-0.269-0.047-0.549-0.04-0.828-0.037
					c-0.563,0.013-1.127,0.147-1.67,0.337c-0.273,0.091-0.539,0.211-0.791,0.351c-0.259,0.134-0.502,0.292-0.736,0.469
					c-0.23,0.181-0.436,0.39-0.625,0.618l-0.25,0.365L205.883,289.364z"/>
			</g>
			<g>
				<path fill="#FFFFFF" d="M223.201,292.706c-0.973-0.809-2.668-1.359-4.008-1.369c0.121,1.994,1.373,3.414,3.143,4.576
					c0.545-0.051,0.832-0.326,0.865-0.822"/>
				<path fill="#231F20" d="M223.201,292.706c-0.17-0.067-0.344-0.13-0.51-0.204l-0.25-0.108c-0.085-0.032-0.162-0.087-0.25-0.103
					c-0.348-0.081-0.668-0.182-0.99-0.266l-1.014-0.168l-0.997-0.047l0.476-0.502c0.042,0.214,0.07,0.429,0.103,0.643l0.192,0.615
					c0.09,0.195,0.168,0.397,0.266,0.591c0.116,0.185,0.225,0.373,0.346,0.558c0.137,0.176,0.258,0.363,0.406,0.533
					c0.159,0.161,0.297,0.345,0.459,0.509c0.325,0.326,0.668,0.646,1.025,0.964l-0.148-0.037l0.282-0.014
					c0.091-0.014,0.161-0.06,0.259-0.086c0.043-0.02,0.066-0.061,0.104-0.092c0.033-0.033,0.072-0.067,0.107-0.106l0.135-0.295
					l-0.006,0.348c-0.014,0.058-0.047,0.111-0.072,0.169c-0.029,0.055-0.051,0.122-0.094,0.168
					c-0.093,0.079-0.195,0.185-0.311,0.237l-0.361,0.13l-0.043,0.016l-0.104-0.053c-0.439-0.223-0.873-0.47-1.276-0.771
					c-0.203-0.148-0.395-0.318-0.584-0.488c-0.188-0.174-0.352-0.376-0.528-0.565c-0.169-0.197-0.297-0.431-0.446-0.646
					c-0.127-0.23-0.233-0.476-0.349-0.714c-0.079-0.254-0.146-0.513-0.214-0.769c-0.032-0.262-0.068-0.524-0.092-0.786l-0.051-0.578
					l0.527,0.075c0.384,0.055,0.766,0.105,1.142,0.169l1.069,0.371c0.344,0.177,0.68,0.368,0.993,0.562
					c0.151,0.102,0.274,0.236,0.409,0.358C222.945,292.444,223.072,292.577,223.201,292.706z"/>
			</g>
			<g>
				<path fill="#FFFFFF" d="M230.842,291.751c-6.471-1.381-5.021,7.451-0.512,5.727"/>
				<path fill="#231F20" d="M230.842,291.751c0,0-0.189,0.012-0.52,0.033c-0.164,0.004-0.363,0.01-0.593,0.016
					c-0.209,0.042-0.445,0.089-0.702,0.141c-0.256,0.013-0.492,0.199-0.757,0.278c-0.142,0.034-0.229,0.161-0.349,0.237
					c-0.104,0.097-0.248,0.147-0.32,0.28c-0.089,0.112-0.18,0.227-0.271,0.342c-0.056,0.14-0.115,0.277-0.185,0.411
					c-0.09,0.286-0.188,0.593-0.167,0.913c-0.041,0.317,0.03,0.64,0.083,0.95c0.055,0.148,0.102,0.299,0.143,0.45
					c0.05,0.148,0.139,0.273,0.203,0.411c0.057,0.146,0.159,0.249,0.248,0.362c0.094,0.105,0.16,0.248,0.279,0.315
					c0.107,0.086,0.213,0.169,0.314,0.25c0.105,0.077,0.23,0.108,0.34,0.166c0.221,0.13,0.455,0.14,0.664,0.179
					c0.212,0.055,0.4,0.036,0.559,0.02c0.329-0.018,0.518-0.028,0.518-0.028s-0.162,0.085-0.475,0.223
					c-0.156,0.071-0.348,0.164-0.594,0.169c-0.242,0.025-0.529,0.086-0.832-0.011c-0.15-0.037-0.322-0.052-0.478-0.118
					c-0.151-0.082-0.307-0.167-0.467-0.254c-0.174-0.077-0.286-0.228-0.435-0.352c-0.146-0.128-0.283-0.27-0.381-0.441
					c-0.238-0.32-0.412-0.689-0.538-1.086c-0.089-0.401-0.187-0.816-0.151-1.244c-0.005-0.423,0.127-0.849,0.273-1.241
					c0.096-0.192,0.199-0.38,0.305-0.56c0.146-0.154,0.289-0.306,0.43-0.455c0.13-0.161,0.321-0.24,0.487-0.34
					c0.175-0.082,0.325-0.211,0.507-0.234c0.352-0.069,0.666-0.204,0.979-0.161c0.306,0.008,0.583,0.02,0.813,0.05
					c0.221,0.064,0.413,0.12,0.571,0.166C230.662,291.691,230.842,291.751,230.842,291.751z"/>
			</g>
			<g>
				<path fill="#FFFFFF" d="M236.779,296.062c-2.162-1.223-2.422,6.609,3.23,3.48c4.145-2.293,0.348-5.658-3.23-5.389"/>
				<path fill="#231F20" d="M236.779,296.062c0,0-0.07-0.021-0.202-0.062c-0.13-0.018-0.329-0.028-0.513,0.102
					c-0.382,0.258-0.529,1.011-0.413,1.796c0.056,0.396,0.208,0.809,0.438,1.166c0.244,0.35,0.59,0.612,1.012,0.709
					c0.42,0.112,0.912,0.037,1.403-0.107c0.483-0.142,1.011-0.401,1.435-0.673c0.24-0.155,0.521-0.308,0.666-0.471
					c0.086-0.081,0.185-0.15,0.264-0.238l0.213-0.28c0.238-0.384,0.332-0.792,0.212-1.207c-0.104-0.417-0.415-0.793-0.731-1.108
					c-0.332-0.309-0.701-0.568-1.069-0.759c-0.178-0.109-0.364-0.18-0.54-0.257c-0.174-0.086-0.345-0.148-0.51-0.196
					c-0.326-0.121-0.625-0.17-0.873-0.221c-0.494-0.076-0.791-0.102-0.791-0.102s0.072-0.011,0.207-0.03
					c0.137-0.011,0.339-0.068,0.598-0.063c0.259,0.003,0.578-0.007,0.941,0.052c0.365,0.035,0.775,0.129,1.203,0.292
					c0.433,0.151,0.887,0.38,1.318,0.715c0.416,0.34,0.872,0.761,1.084,1.403c0.234,0.624,0.146,1.419-0.233,1.997
					c-0.347,0.578-0.962,1.031-1.413,1.311c-0.562,0.341-1.096,0.587-1.713,0.762c-0.602,0.171-1.275,0.225-1.91,0.025
					c-0.643-0.18-1.14-0.67-1.408-1.171c-0.27-0.509-0.371-1.033-0.371-1.505c-0.012-0.933,0.343-1.754,0.89-2.01
					c0.272-0.126,0.505-0.028,0.628,0.02C236.717,296.023,236.779,296.062,236.779,296.062z"/>
			</g>
			<g>
				<path fill="#FFFFFF" d="M250.959,274.331c0,0,6.619,11.58,9.932,17.006c3.311,5.426,15.535,14.732,17.828,18.553"/>
				<path fill="#231F20" d="M250.959,274.331c0,0,0.389,0.596,1.068,1.639c0.662,1.053,1.643,2.537,2.757,4.355
					c1.11,1.819,2.444,3.921,3.805,6.212c0.681,1.146,1.386,2.328,2.101,3.531c0.68,1.241,1.504,2.326,2.41,3.377
					c1.82,2.134,3.856,4.114,5.775,5.953c1.928,1.833,3.705,3.578,5.227,5.076c1.522,1.499,2.709,2.838,3.503,3.801
					c0.386,0.493,0.679,0.886,0.845,1.18c0.176,0.283,0.27,0.435,0.27,0.435s-0.109-0.141-0.314-0.403
					c-0.189-0.274-0.533-0.623-0.946-1.083c-0.85-0.903-2.166-2.091-3.743-3.52c-1.573-1.435-3.477-3.038-5.434-4.853
					c-1.956-1.817-4.038-3.771-5.941-5.938c-0.934-1.111-1.807-2.324-2.452-3.552c-0.696-1.214-1.382-2.408-2.044-3.564
					c-1.328-2.311-2.503-4.506-3.543-6.367c-1.035-1.864-1.848-3.448-2.439-4.543C251.287,274.963,250.959,274.331,250.959,274.331z
					"/>
			</g>
			<g>
				<path fill="#FFFFFF" d="M249.176,265.739c0.766,0,7.641-1.67,12.225,3.58c4.586,5.248,5.094,3.58,7.893,6.205"/>
				<path fill="#231F20" d="M249.176,265.739c0,0,0.091-0.018,0.261-0.051c0.168-0.037,0.411-0.102,0.729-0.162
					c0.633-0.117,1.549-0.293,2.67-0.314c1.119-0.029,2.449,0.078,3.818,0.483c0.681,0.21,1.375,0.474,2.039,0.833
					c0.658,0.364,1.301,0.79,1.883,1.289c0.586,0.501,1.089,1.079,1.57,1.598c0.496,0.516,0.938,1.103,1.421,1.552
					c0.479,0.462,0.919,0.938,1.405,1.307c0.461,0.406,0.946,0.704,1.406,0.994c0.467,0.267,0.912,0.538,1.288,0.789
					c0.356,0.29,0.696,0.498,0.916,0.741c0.462,0.459,0.71,0.727,0.71,0.727s-0.311-0.205-0.83-0.572
					c-0.246-0.202-0.609-0.353-0.983-0.573c-0.407-0.18-0.866-0.382-1.368-0.604c-0.5-0.238-1.071-0.51-1.584-0.903
					c-0.551-0.354-1.06-0.811-1.586-1.286c-0.539-0.47-0.997-0.989-1.501-1.513c-0.507-0.528-0.981-1.054-1.515-1.496
					c-0.523-0.465-1.102-0.86-1.697-1.204c-0.604-0.331-1.22-0.623-1.845-0.842c-0.626-0.211-1.246-0.386-1.847-0.505
					c-0.603-0.112-1.18-0.194-1.719-0.243c-1.076-0.09-1.99-0.097-2.631-0.065S249.176,265.739,249.176,265.739z"/>
			</g>
			<g>
				<g>
					<path fill="#FFFFFF" d="M191.879,289.755c0,0,46.611,17.662,51.4,19.287"/>
					<path fill="#231F20" d="M191.879,289.755c0,0,0.815,0.269,2.241,0.737c1.419,0.489,3.46,1.151,5.885,2.013
						c2.423,0.865,5.265,1.833,8.283,2.945c3.019,1.11,6.238,2.294,9.459,3.479c3.205,1.227,6.41,2.453,9.414,3.603
						c3.006,1.146,5.785,2.29,8.181,3.232c2.394,0.945,4.368,1.793,5.761,2.358c1.385,0.585,2.176,0.92,2.176,0.92
						s-0.815-0.268-2.242-0.737c-1.419-0.489-3.46-1.149-5.885-2.012c-2.423-0.865-5.266-1.831-8.283-2.945
						c-3.019-1.11-6.238-2.295-9.459-3.479c-3.205-1.227-6.41-2.453-9.414-3.604c-3.005-1.147-5.785-2.289-8.18-3.232
						c-2.394-0.946-4.369-1.792-5.761-2.357C192.67,290.09,191.879,289.755,191.879,289.755z"/>
				</g>
				<g>
					<path fill="#FFFFFF" d="M194.667,271.866l-7.499-0.996c0,0-2.928,13.484-2.419,17.064c0.508,3.578,1.258,7.797,3.31,6.719
						C190.11,293.571,195.508,288.81,194.667,271.866z"/>
					<path fill="#231F20" d="M194.667,271.866c-1.258-0.105-2.514-0.226-3.769-0.354l-3.765-0.382l0.292-0.205
						c-0.402,2.059-0.775,4.127-1.114,6.196c-0.329,2.071-0.65,4.145-0.903,6.217c-0.123,1.035-0.219,2.074-0.248,3.099
						c-0.019,0.519,0.003,1.007,0.059,1.495l0.247,1.546c0.179,1.023,0.382,2.044,0.693,3c0.152,0.475,0.33,0.944,0.571,1.32
						c0.252,0.387,0.521,0.595,0.8,0.536c0.278-0.028,0.805-0.403,1.153-0.651c0.386-0.309,0.748-0.651,1.09-1.02
						c0.68-0.742,1.223-1.611,1.726-2.497c0.469-0.91,0.871-1.857,1.212-2.832c0.353-0.972,0.612-1.976,0.868-2.983
						c0.198-1.021,0.424-2.038,0.542-3.076c0.168-1.031,0.229-2.075,0.337-3.117c0.099-1.043,0.114-2.092,0.175-3.14
						L194.667,271.866z M194.667,271.866c0.073,1.048,0.156,2.099,0.204,3.151c0.004,1.052,0.056,2.107,0.022,3.162
						c-0.032,1.056-0.068,2.113-0.195,3.165c-0.079,1.056-0.269,2.101-0.432,3.15c-0.221,1.04-0.448,2.081-0.774,3.102
						c-0.313,1.022-0.74,2.012-1.217,2.979c-0.52,0.945-1.086,1.878-1.818,2.699c-0.369,0.408-0.764,0.794-1.196,1.146
						c-0.229,0.161-0.478,0.362-0.699,0.484c-0.196,0.12-0.526,0.323-0.884,0.375c-0.365,0.067-0.798-0.029-1.09-0.238
						c-0.301-0.202-0.507-0.456-0.676-0.707c-0.332-0.507-0.531-1.03-0.703-1.553c-0.324-1.049-0.515-2.1-0.685-3.148l-0.229-1.57
						c-0.06-0.557-0.077-1.119-0.051-1.651c0.043-1.077,0.153-2.132,0.29-3.182c0.265-2.1,0.632-4.176,1.048-6.241
						c0.411-2.066,0.853-4.123,1.327-6.176l0.056-0.244l0.236,0.039l3.734,0.614C192.181,271.428,193.425,271.64,194.667,271.866z"
						/>
				</g>
			</g>
			<g>
				<path fill="#FFFFFF" d="M264.902,284.294c0.109-1.037-2.906-7.014-0.813-6.943c1.596,0.053,3.129,5.457,3.67,6.496
					c1.082,2.072,1.934,3.916,3.404,5.822c1.143,1.484,2.678,2.146,3.902,3.555c3.234-1.836-1.518-7.84-0.006-10.543
					c0.975-1.74,3.111-1.738,1.82-4.248c-0.754-1.471-2.469-2.422-2.02-4.318c1.521,0.426,3.619,3.469,4.877,4.658
					c2.527,2.387,4.723,5.309,7.322,7.48c0.35-1.137,0.381-3.328,1.324-4.133c2.625,1.473,2.102,9.109,7.076,7.543"/>
				<path fill="#231F20" d="M264.902,284.294c-0.035-0.568-0.281-1.097-0.462-1.632l-0.586-1.605
					c-0.185-0.539-0.364-1.082-0.497-1.644c-0.114-0.561-0.279-1.141-0.051-1.782c0.071-0.158,0.205-0.304,0.375-0.388
					c0.18-0.061,0.328-0.103,0.53-0.058c0.254,0.004,0.643,0.274,0.823,0.467c0.432,0.434,0.732,0.938,1.018,1.443
					c0.547,1.023,0.969,2.092,1.385,3.152c0.211,0.524,0.402,1.075,0.646,1.539l0.803,1.505c0.534,1,1.094,1.979,1.713,2.908
					c0.326,0.435,0.658,0.943,0.978,1.316c0.398,0.397,0.774,0.859,1.206,1.163l1.312,1.048c0.46,0.342,0.868,0.807,1.303,1.208
					l-0.548-0.094l0.426-0.331c0.087-0.151,0.219-0.27,0.287-0.434c0.138-0.325,0.209-0.698,0.196-1.1
					c-0.015-0.803-0.228-1.646-0.47-2.484c-0.244-0.842-0.521-1.69-0.74-2.577c-0.112-0.442-0.19-0.904-0.25-1.375l-0.021-0.732
					c0.037-0.254,0.057-0.509,0.12-0.762c0.103-0.247,0.171-0.518,0.321-0.739c0.098-0.172,0.281-0.414,0.447-0.599
					c0.329-0.369,0.703-0.663,1.013-0.94c0.314-0.281,0.542-0.532,0.585-0.803c0.063-0.272-0.025-0.637-0.176-0.999l-0.124-0.274
					c-0.013-0.036-0.103-0.173-0.149-0.255c-0.112-0.201-0.23-0.375-0.352-0.523l-0.809-1.041c-0.281-0.371-0.535-0.81-0.705-1.305
					c-0.066-0.251-0.095-0.522-0.129-0.782l0.088-0.779l0.063-0.559l0.518,0.217c0.398,0.168,0.798,0.353,1.083,0.604
					c0.331,0.225,0.583,0.493,0.861,0.748c0.531,0.523,1.011,1.072,1.484,1.62c0.47,0.543,0.93,1.107,1.408,1.597l1.507,1.545
					c1.014,1.015,1.945,2.159,2.923,3.194c0.491,0.518,0.951,1.076,1.47,1.561l1.543,1.472l-0.516,0.153
					c0.195-0.652,0.287-1.396,0.454-2.124c0.087-0.366,0.187-0.733,0.331-1.098c0.063-0.183,0.181-0.357,0.271-0.535
					c0.038-0.091,0.128-0.164,0.192-0.246l0.213-0.236l0.145-0.159l0.156,0.13c0.202,0.169,0.45,0.306,0.606,0.51
					c0.163,0.199,0.34,0.392,0.452,0.614c0.267,0.426,0.457,0.878,0.636,1.327c0.355,0.9,0.637,1.813,0.995,2.69
					c0.18,0.439,0.39,0.86,0.627,1.267c0.138,0.187,0.268,0.383,0.414,0.564c0.172,0.153,0.32,0.341,0.512,0.47
					c0.206,0.101,0.379,0.282,0.611,0.326c0.225,0.053,0.442,0.17,0.683,0.149c0.233-0.009,0.476,0.055,0.707-0.013l0.704-0.132
					l-0.698,0.174c-0.23,0.081-0.478,0.033-0.719,0.056c-0.246,0.034-0.478-0.07-0.718-0.114c-0.248-0.035-0.441-0.208-0.665-0.31
					c-0.21-0.128-0.374-0.316-0.563-0.474c-0.161-0.183-0.307-0.381-0.46-0.571c-0.265-0.41-0.5-0.835-0.702-1.274
					c-0.404-0.877-0.728-1.783-1.113-2.646c-0.193-0.43-0.397-0.855-0.656-1.229c-0.113-0.203-0.273-0.355-0.415-0.524
					c-0.139-0.176-0.336-0.26-0.495-0.399l0.3-0.029l-0.147,0.18c-0.045,0.064-0.11,0.105-0.141,0.188
					c-0.068,0.152-0.16,0.286-0.212,0.452c-0.118,0.322-0.202,0.665-0.275,1.015c-0.144,0.706-0.206,1.429-0.41,2.191l-0.134,0.499
					l-0.383-0.346l-1.622-1.465c-0.546-0.484-1.019-1.028-1.532-1.541c-1.023-1.034-1.951-2.092-2.975-3.113l-1.521-1.532
					c-0.532-0.537-0.985-1.087-1.463-1.628c-0.472-0.537-0.946-1.067-1.444-1.55c-0.255-0.229-0.5-0.484-0.771-0.659
					c-0.264-0.228-0.531-0.323-0.789-0.449l0.579-0.342c-0.015,0.183-0.033,0.362-0.058,0.544c0.035,0.175,0.049,0.351,0.094,0.525
					c0.127,0.343,0.313,0.681,0.572,1.015c0.252,0.343,0.535,0.651,0.832,1.053c0.157,0.198,0.287,0.392,0.394,0.578
					c0.063,0.109,0.103,0.154,0.187,0.317l0.154,0.331c0.184,0.447,0.36,0.976,0.244,1.583c-0.117,0.621-0.553,1.049-0.893,1.345
					c-0.354,0.309-0.683,0.564-0.945,0.856c-0.129,0.146-0.224,0.253-0.352,0.463c-0.103,0.145-0.131,0.32-0.211,0.476
					c-0.043,0.175-0.056,0.367-0.091,0.55l0.013,0.597c0.05,0.41,0.114,0.823,0.217,1.242c0.199,0.838,0.464,1.681,0.707,2.544
					c0.238,0.864,0.469,1.76,0.481,2.734c0.009,0.484-0.076,1-0.296,1.488c-0.106,0.24-0.301,0.446-0.455,0.663
					c-0.199,0.171-0.416,0.324-0.627,0.479l-0.248,0.182l-0.301-0.275c-0.402-0.368-0.739-0.776-1.189-1.119
					c-0.433-0.345-0.875-0.7-1.345-1.097c-0.495-0.367-0.823-0.813-1.22-1.229c-0.407-0.499-0.678-0.964-1.021-1.446
					c-0.616-0.981-1.16-1.996-1.672-3.017l-0.763-1.527c-0.27-0.553-0.434-1.088-0.634-1.624c-0.383-1.068-0.779-2.128-1.271-3.132
					c-0.251-0.494-0.522-0.989-0.878-1.378c-0.092-0.089-0.186-0.199-0.272-0.241c-0.046-0.029-0.083-0.065-0.134-0.096
					l-0.207-0.054c-0.2-0.049-0.428,0.025-0.517,0.225c-0.188,0.437-0.095,1.044,0.003,1.58c0.105,0.551,0.26,1.098,0.42,1.642
					l0.5,1.631C264.684,283.176,264.9,283.721,264.902,284.294z"/>
			</g>
			<g>
				<path fill="#FFFFFF" d="M255.16,216.459c0,0-4.775-3.223-4.201,0.896c0.574,4.115,43.549,51.032,45.457,54.511
					s3.93,5.807,3.93,5.807"/>
				<path fill="#231F20" d="M255.16,216.459c0,0-0.275-0.182-0.826-0.455c-0.276-0.136-0.622-0.293-1.041-0.437
					c-0.417-0.125-0.931-0.277-1.461-0.173c-0.577,0.072-0.816,0.729-0.775,1.384c-0.053,0.707,0.382,1.317,0.797,1.967
					c0.887,1.318,2.006,2.736,3.238,4.271c2.465,3.073,5.488,6.542,8.696,10.285c3.214,3.738,6.674,7.699,10.149,11.647
					c3.447,3.974,6.896,7.947,10.129,11.673c3.236,3.723,6.195,7.251,8.727,10.282c1.262,1.521,2.404,2.923,3.351,4.235
					c0.905,1.361,1.479,2.627,2.135,3.574c0.313,0.48,0.594,0.909,0.837,1.282c0.261,0.363,0.481,0.672,0.661,0.922
					c0.355,0.505,0.569,0.755,0.569,0.755s-0.229-0.238-0.612-0.722c-0.398-0.472-0.957-1.184-1.619-2.133
					c-0.696-0.918-1.345-2.188-2.271-3.459c-0.986-1.246-2.19-2.6-3.479-4.09c-2.62-2.949-5.677-6.39-8.952-10.076
					c-3.265-3.698-6.747-7.643-10.229-11.587c-3.442-3.98-6.871-7.974-10.056-11.743c-3.184-3.772-6.07-7.365-8.479-10.501
					c-1.206-1.565-2.268-3.039-3.111-4.421c-0.41-0.696-0.846-1.427-0.758-2.161c0.01-0.358,0.055-0.714,0.223-1.024
					c0.076-0.151,0.217-0.276,0.339-0.381c0.151-0.067,0.292-0.166,0.448-0.17c0.613-0.093,1.123,0.099,1.542,0.251
					c0.419,0.17,0.757,0.348,1.026,0.5C254.896,216.262,255.16,216.459,255.16,216.459z"/>
			</g>
			<g>
				<path fill="#FFFFFF" d="M280.373,204.824c-0.766-1.074-17-18.636-19.482-15.941c-2.482,2.697-2.154-0.994,2.455,7.832
					c4.611,8.826,29.824,49.814,32.115,61.985c2.291,12.17,2.291,12.17,2.291,12.17"/>
				<path fill="#231F20" d="M280.373,204.824c0,0-0.292-0.356-0.885-0.984c-0.588-0.631-1.472-1.537-2.601-2.687
					c-1.13-1.147-2.521-2.522-4.151-4.062c-1.637-1.53-3.502-3.242-5.64-4.97c-1.071-0.855-2.215-1.728-3.479-2.447
					c-0.623-0.342-1.322-0.692-1.953-0.718c-0.164-0.024-0.279,0.034-0.389,0.075c-0.048,0.046-0.073,0.049-0.15,0.113l-0.205,0.209
					c-0.25,0.275-0.613,0.577-0.936,0.813c-0.074,0.053-0.18,0.122-0.229,0.164c-0.017,0.016-0.077,0.057-0.061,0.049
					c0.029-0.021,0.012-0.043,0.038-0.096c-0.031-0.137,0.112,0.149,0.227,0.266c0.245,0.313,0.502,0.639,0.74,0.974
					c0.488,0.666,0.935,1.367,1.378,2.08c0.883,1.432,1.651,2.951,2.491,4.456c3.375,6,7.149,12.341,10.816,18.729
					c1.82,3.203,3.621,6.418,5.381,9.592c1.752,3.177,3.449,6.319,5.066,9.374c0.793,1.536,1.57,3.048,2.333,4.526
					c0.729,1.496,1.444,2.96,2.14,4.384c0.661,1.442,1.305,2.844,1.927,4.2c0.574,1.38,1.129,2.712,1.662,3.991
					c0.438,1.319,0.963,2.543,1.271,3.778c0.153,0.617,0.302,1.219,0.447,1.804c0.134,0.585,0.209,1.157,0.312,1.71
					c0.381,2.212,0.714,4.141,0.987,5.729c0.536,3.179,0.842,4.995,0.842,4.995s-0.375-1.804-1.032-4.959
					c-0.322-1.579-0.714-3.496-1.163-5.696c-0.376-2.227-1.187-4.584-2.187-7.153c-0.553-1.261-1.129-2.574-1.725-3.934
					c-0.646-1.339-1.312-2.723-1.997-4.146c-0.72-1.407-1.459-2.853-2.214-4.329c-0.774-1.469-1.564-2.969-2.368-4.494
					c-1.634-3.039-3.347-6.165-5.117-9.327c-1.791-3.149-3.611-6.35-5.432-9.55c-3.628-6.411-7.352-12.755-10.712-18.813
					c-0.829-1.518-1.601-3.028-2.429-4.446c-0.421-0.706-0.846-1.4-1.306-2.053c-0.226-0.331-0.464-0.644-0.706-0.966l-0.189-0.259
					c-0.027-0.034-0.07-0.118-0.104-0.179l-0.049-0.1c-0.018-0.061-0.028-0.142-0.027-0.215c-0.01-0.16,0.073-0.252,0.148-0.358
					c0.076-0.087,0.108-0.093,0.166-0.143c0.105-0.081,0.17-0.117,0.257-0.178c0.315-0.229,0.571-0.42,0.854-0.715l0.207-0.206
					c0.072-0.059,0.211-0.162,0.318-0.23c0.23-0.108,0.51-0.177,0.727-0.147c0.914,0.069,1.594,0.478,2.262,0.845
					c1.312,0.779,2.446,1.684,3.516,2.569c2.135,1.778,3.95,3.553,5.543,5.139c1.587,1.592,2.938,3.011,4.033,4.193
					c1.1,1.18,1.936,2.132,2.502,2.785C280.096,204.456,280.373,204.824,280.373,204.824z"/>
			</g>
			<g>
				<path fill="#FFFFFF" d="M233.387,260.487c1.936,2.775,0.502,7.789,3.057,10.383"/>
				<path fill="#231F20" d="M233.387,260.487c0,0,0.125,0.126,0.327,0.355c0.191,0.223,0.459,0.626,0.661,1.116
					c0.451,0.991,0.664,2.406,0.808,3.76c0.063,0.678,0.14,1.346,0.222,1.962c0.098,0.61,0.2,1.18,0.355,1.646
					c0.137,0.476,0.314,0.858,0.456,1.12c0.145,0.27,0.228,0.423,0.228,0.423s-0.141-0.1-0.383-0.299
					c-0.129-0.095-0.258-0.233-0.396-0.404c-0.151-0.163-0.299-0.364-0.429-0.603c-0.295-0.462-0.518-1.061-0.694-1.707
					c-0.175-0.647-0.268-1.345-0.354-2.033c-0.063-0.688-0.116-1.37-0.163-1.998c-0.054-0.629-0.109-1.21-0.197-1.701
					c-0.047-0.245-0.08-0.476-0.137-0.664c-0.055-0.193-0.082-0.376-0.146-0.517C233.439,260.656,233.387,260.487,233.387,260.487z"
					/>
			</g>
			<g>
				<path fill="#231F20" d="M211.232,286.622c0,0-0.152-0.382-0.249-0.949c-0.026-0.142-0.054-0.295-0.068-0.457
					c-0.026-0.16,0-0.346,0.016-0.529c0.028-0.373,0.095-0.773,0.167-1.17c0.139-0.368,0.275-0.737,0.436-1.068
					c0.079-0.165,0.144-0.33,0.252-0.464c0.096-0.14,0.195-0.266,0.289-0.381c0.369-0.463,0.684-0.71,0.684-0.71
					s-0.025,0.422-0.167,0.962c-0.034,0.137-0.071,0.282-0.122,0.431c-0.059,0.145-0.063,0.319-0.114,0.48
					c-0.071,0.334-0.183,0.673-0.292,1.014c-0.078,0.339-0.15,0.677-0.258,0.994c-0.037,0.163-0.123,0.306-0.146,0.47
					c-0.027,0.161-0.067,0.312-0.104,0.451C211.414,286.254,211.232,286.622,211.232,286.622z"/>
			</g>
			<g>
				<path fill="#231F20" d="M220.592,291.095c0,0-0.036-0.082-0.085-0.224c-0.054-0.136-0.125-0.321-0.188-0.558
					c-0.135-0.467-0.239-1.104-0.194-1.773c0.031-0.33,0.089-0.676,0.219-0.995c0.067-0.165,0.144-0.315,0.264-0.459
					c0.087-0.142,0.267-0.262,0.407-0.334c0.172-0.061,0.322-0.09,0.447-0.046c0.129,0.018,0.219,0.061,0.281,0.116
					c0.131,0.097,0.186,0.157,0.186,0.157s-0.083,0.014-0.229,0.037c-0.137,0.006-0.299,0.105-0.365,0.212
					c-0.029,0.08-0.063,0.127-0.084,0.235c-0.029,0.086-0.034,0.21-0.061,0.325c-0.021,0.25-0.061,0.529-0.068,0.827
					c-0.047,0.588-0.113,1.211-0.231,1.688c-0.054,0.235-0.127,0.443-0.186,0.582C220.639,291.02,220.592,291.095,220.592,291.095z"
					/>
			</g>
			<g>
				<path fill="#231F20" d="M228.803,291.454c0,0,0-0.072,0.013-0.189c0.009-0.058,0.015-0.129,0.033-0.204
					c0.021-0.078-0.007-0.16-0.002-0.236c-0.005-0.14-0.014-0.327-0.004-0.534c0.002-0.204,0.024-0.427,0.048-0.654
					c0.063-0.453,0.207-0.936,0.418-1.269c0.086-0.168,0.227-0.295,0.307-0.375c0.087-0.08,0.145-0.118,0.145-0.118
					c-0.001,0,0.068,0.283,0.107,0.625c0.047,0.35,0.072,0.798,0.014,1.272c-0.079,0.48-0.221,0.949-0.525,1.314
					c-0.131,0.187-0.273,0.243-0.38,0.295C228.87,291.431,228.803,291.454,228.803,291.454z"/>
			</g>
			<g>
				<path fill="#231F20" d="M240.336,295.503c0,0-0.154-0.242-0.256-0.6c-0.107-0.358-0.168-0.832-0.147-1.302
					c0.026-0.47,0.133-0.936,0.278-1.282c0.136-0.347,0.316-0.574,0.316-0.574s0.156,0.242,0.256,0.6
					c0.109,0.358,0.168,0.832,0.147,1.302c-0.027,0.47-0.135,0.936-0.278,1.282C240.516,295.275,240.336,295.503,240.336,295.503z"
					/>
			</g>
			<g>
				<path fill="#231F20" d="M247.904,300.583c0,0-0.115-0.243-0.16-0.578c-0.055-0.335-0.033-0.771,0.063-1.188
					c0.136-0.421,0.316-0.825,0.582-1.079c0.238-0.262,0.469-0.378,0.469-0.378s0.068,0.271,0.063,0.593
					c-0.016,0.315-0.027,0.735-0.146,1.117c-0.1,0.402-0.279,0.784-0.473,1.065C248.114,300.416,247.904,300.583,247.904,300.583z"
					/>
			</g>
			<g>
				<g>
					<path fill="#FFFFFF" d="M159.899,235.229v-3.788h-14.898v-8.095c0-0.065-0.005-0.127-0.01-0.188h-38.814
						c-0.002,0.062-0.007,0.123-0.007,0.188v38.803c0,4.614,3.062,8.356,6.837,8.356h25.155c3.776,0,6.838-3.742,6.838-8.356
						l0.148-2.73l14.75-0.058v-3.887h-14.75l-0.148-20.245H159.899z"/>
					<path fill="#231F20" d="M159.849,235.178l-0.061-3.737l0.111,0.111c-4.966,0.09-9.932,0.159-14.898,0.195l-0.304,0.002
						l-0.003-0.309l-0.04-4.142l-0.02-2.071l-0.009-1.035l-0.002-0.518c-0.001-0.185,0.002-0.329-0.011-0.504l0.378,0.365
						l-19.407,0.067l-9.704-0.031l-9.704-0.089l0.326-0.313l-0.123,11.337l-0.053,11.351l0.023,11.35
						c0.015,1.888-0.013,3.793,0.064,5.666c0.154,1.827,0.813,3.651,1.994,5.055c1.163,1.41,2.906,2.33,4.725,2.271l5.675-0.045
						l11.35-0.089l5.675-0.026c0.933-0.017,1.922,0.023,2.807-0.04c0.853-0.08,1.683-0.378,2.422-0.854
						c1.48-0.951,2.517-2.537,3.024-4.245c0.253-0.858,0.396-1.754,0.395-2.653l0.148-2.856l0.025-0.492l0.494-0.001l14.75-0.051
						l-0.512,0.515l0.005-3.887l0.509,0.509l-7.375-0.017l-7.375-0.061l-0.432-0.004l0.001-0.425l0.029-20.246l0-0.257l0.253,0.001
						C149.951,235.003,154.899,235.112,159.849,235.178z M159.899,235.278c-4.966,0.065-9.932,0.176-14.898,0.204l0.253-0.256
						l0.326,20.244l-0.431-0.429l7.375-0.061l7.375-0.017l0.508-0.001l0,0.51l0.005,3.887l0.001,0.512l-0.513,0.003l-14.75,0.064
						l0.519-0.493l-0.157,2.811c-0.006,0.993-0.17,1.984-0.459,2.937c-0.579,1.894-1.743,3.674-3.47,4.771
						c-0.853,0.544-1.854,0.9-2.886,0.984c-1.003,0.061-1.908,0.011-2.866,0.022l-5.675-0.026l-11.35-0.089l-5.675-0.045
						c-2.004,0.035-3.921-1.023-5.126-2.55c-1.237-1.526-1.888-3.437-2.019-5.37c-0.044-1.908,0.015-3.788,0.003-5.684l0.023-11.35
						l-0.053-11.351l-0.109-11.362l-0.003-0.311l0.329-0.003l9.704-0.089l9.704-0.031l19.407,0.067l0.353,0.001l0.025,0.364
						c0.012,0.17,0.009,0.371,0.008,0.531l-0.002,0.518l-0.009,1.035l-0.02,2.071l-0.04,4.142l-0.307-0.307
						c4.966,0.036,9.932,0.105,14.898,0.195l0.113,0.002l-0.002,0.109l-0.062,3.838H159.899z"/>
				</g>
				<g>
					<ellipse fill="#FFFFFF" cx="125.586" cy="223.157" rx="19.564" ry="5.445"/>
					<path fill="#231F20" d="M145.2,223.159c-0.022-0.017,0.059,0.367-0.274,0.929c-0.318,0.56-1.047,1.172-2.074,1.73
						c-2.066,1.111-5.304,2.103-9.27,2.709c-1.984,0.303-4.156,0.464-6.452,0.484c-2.299,0.051-4.714-0.106-7.203-0.371
						c-2.483-0.292-5.042-0.666-7.588-1.316c-1.273-0.319-2.549-0.702-3.766-1.271c-0.61-0.279-1.209-0.604-1.75-1.043
						c-0.525-0.428-1.043-1.046-1.075-1.853c-0.007-0.794,0.5-1.474,1.013-1.924c0.53-0.471,1.125-0.83,1.73-1.141
						c1.222-0.607,2.5-1.025,3.777-1.379c2.563-0.678,5.14-1.052,7.638-1.288c2.5-0.236,4.93-0.256,7.224-0.205
						c2.302,0.04,4.468,0.253,6.454,0.548c1.987,0.291,3.782,0.721,5.348,1.175c1.567,0.453,2.887,1.002,3.923,1.547
						c1.026,0.56,1.755,1.175,2.073,1.735C145.259,222.784,145.177,223.171,145.2,223.159z M145.1,223.155
						c-0.022,0.01,0.051-0.346-0.272-0.871c-0.307-0.527-1.024-1.126-2.061-1.626c-2.081-1.013-5.354-1.702-9.286-2.063
						c-1.967-0.196-4.11-0.3-6.37-0.354c-2.269-0.05-4.656,0.04-7.119,0.218c-2.461,0.182-4.998,0.514-7.507,1.109
						c-1.251,0.301-2.502,0.667-3.669,1.2c-0.583,0.264-1.148,0.569-1.631,0.957c-0.482,0.391-0.86,0.869-0.889,1.433
						c-0.009,0.552,0.357,1.092,0.828,1.505c0.473,0.42,1.032,0.761,1.612,1.055c1.171,0.571,2.426,0.972,3.68,1.308
						c2.526,0.623,5.082,0.953,7.557,1.079c2.474,0.15,4.876,0.103,7.139,0.054c2.267-0.075,4.404-0.23,6.373-0.418
						c3.932-0.369,7.205-1.063,9.287-2.076c1.037-0.502,1.753-1.104,2.059-1.632C145.152,223.509,145.078,223.15,145.1,223.155z"/>
				</g>
			</g>
			<g>
				<path fill="#FFFFFF" d="M194.667,249.274c0,0-7.499-12.054-8.836-13.663c-1.338-1.611-12.225-6.803-16.426-7.34
					c-4.203-0.537-4.203-0.537-4.203-0.537s-8.594-0.537-9.167,0c-0.575,0.537-0.382,3.223,2.481,4.475
					c2.866,1.254,5.886,2.865,9.819,2.506c3.932-0.357,2.215,0.359,2.215,0.359s-12.935-0.537-14.774-0.717
					c-1.842-0.178-8.908-0.178-9.482,1.969c-0.574,2.148-1.91,4.117,0.955,5.729c2.865,1.609,11.65,1.789,11.65,1.789l-9.74,0.715
					c0,0-2.482,1.791-2.291,3.581c0.189,1.789,1.145,4.473,5.729,4.654c4.584,0.18,6.303,0,6.303,0s-6.494-0.359-7.066,0.895
					c-0.574,1.252-0.671,4.066-0.382,4.652c0.699,1.428,7.448,0.244,10.864,1.545c3.359,1.281-6.28,0.783-6.855,3.826
					c-0.57,3.041,8.453,5.369,11.199,4.832c0,0,1.409,3.027,3.413,3.393c2.005,0.365,10.557,1.742,14.594,0.797
					c3.393-0.797,8.854,0.207,10.001,0.564C195.812,273.655,194.667,249.274,194.667,249.274z"/>
				<path fill="#231F20" d="M194.667,249.274l-4.519-7.043l-2.295-3.497c-0.793-1.131-1.516-2.377-2.444-3.338
					c-1.082-0.833-2.333-1.481-3.561-2.123c-1.237-0.634-2.498-1.226-3.77-1.786c-1.274-0.56-2.561-1.088-3.864-1.568
					c-1.304-0.473-2.62-0.93-3.959-1.226c-1.322-0.256-2.751-0.364-4.122-0.554l-1.02-0.122l-1.042-0.054l-2.086-0.087
					c-1.39-0.046-2.783-0.085-4.163-0.05c-0.344,0.011-0.688,0.026-1.02,0.06c-0.164,0.018-0.332,0.039-0.466,0.073
					c-0.035,0.008-0.052,0.019-0.079,0.025c-0.019,0.012,0.01-0.008,0.007-0.011c-0.041,0.041-0.039,0.051-0.042,0.054
					c-0.008,0.02-0.024,0.041-0.033,0.07c-0.177,0.488-0.038,1.199,0.231,1.753c0.275,0.574,0.707,1.072,1.229,1.454
					c0.513,0.394,1.136,0.626,1.787,0.917c1.277,0.566,2.54,1.125,3.846,1.524c1.304,0.398,2.65,0.638,4,0.614
					c0.667,0.001,1.346-0.09,2.067-0.133c0.357-0.02,0.71-0.037,1.094-0.017c0.096,0.004,0.197,0.015,0.307,0.032
					c0.06,0.012,0.114,0.021,0.191,0.048c0.07,0.036,0.172,0.032,0.329,0.248c0.076,0.111,0.088,0.311,0.041,0.415
					c-0.039,0.1-0.083,0.154-0.12,0.195c-0.074,0.079-0.126,0.112-0.18,0.15c-0.107,0.069-0.19,0.111-0.3,0.16l-0.082,0.036
					l-0.097-0.004l-10.82-0.47l-2.715-0.149c-0.923-0.045-1.788-0.132-2.674-0.138c-1.773-0.012-3.575,0.077-5.277,0.446
					c-0.82,0.189-1.722,0.476-2.153,0.979c-0.057,0.06-0.083,0.124-0.119,0.184l-0.035,0.094l-0.048,0.165l-0.202,0.664
					c-0.142,0.433-0.285,0.854-0.393,1.265c-0.229,0.827-0.241,1.604,0.241,2.185c0.463,0.599,1.223,1.022,2.031,1.307
					c0.777,0.272,1.667,0.473,2.534,0.62c0.873,0.156,1.759,0.27,2.648,0.365c1.777,0.187,3.576,0.301,5.358,0.348l0.026,0.973
					l-9.739,0.726l0.255-0.092c-0.571,0.432-1.13,0.975-1.545,1.553c-0.205,0.292-0.37,0.601-0.466,0.908
					c-0.054,0.154-0.073,0.307-0.085,0.455l0.002,0.211l0.038,0.293c0.105,0.703,0.346,1.404,0.747,1.974
					c0.201,0.286,0.436,0.547,0.71,0.766c0.271,0.221,0.569,0.419,0.898,0.563c0.32,0.158,0.667,0.28,1.024,0.366
					c0.353,0.104,0.725,0.148,1.093,0.206c0.384,0.026,0.734,0.066,1.137,0.068l1.182,0.033c0.789,0.025,1.576,0.045,2.351,0.033
					c0.773,0.004,1.57-0.014,2.313-0.064l0.023,0.934c-0.935-0.046-1.887-0.062-2.825-0.041c-0.938,0.024-1.883,0.076-2.767,0.248
					c-0.414,0.076-0.912,0.249-1.021,0.396c-0.119,0.222-0.263,0.733-0.335,1.159c-0.156,0.891-0.222,1.846-0.147,2.722
					c0.014,0.103,0.026,0.211,0.048,0.293c0.009,0.054,0.021,0.065,0.027,0.093l0.002,0.01c-0.052-0.09-0.007-0.015-0.016-0.029
					l0.024,0.037l0.049,0.073c-0.008-0.021,0.198,0.139,0.376,0.177c0.386,0.124,0.848,0.182,1.305,0.223
					c0.924,0.077,1.877,0.085,2.832,0.108c0.956,0.021,1.919,0.05,2.888,0.13c0.967,0.088,1.946,0.215,2.913,0.535
					c0.243,0.084,0.471,0.164,0.731,0.305c0.127,0.097,0.273,0.094,0.463,0.458c0.042,0.097,0.051,0.269,0.004,0.381
					c-0.044,0.128-0.11,0.191-0.159,0.241c-0.109,0.101-0.184,0.132-0.262,0.174c-0.558,0.233-1.004,0.289-1.485,0.396
					c-0.942,0.186-1.87,0.354-2.768,0.6c-0.884,0.246-1.79,0.557-2.411,1.092c-0.302,0.282-0.484,0.555-0.489,0.967
					c-0.004,0.277,0.172,0.681,0.443,0.983c0.558,0.638,1.376,1.118,2.205,1.515c0.837,0.396,1.722,0.717,2.622,0.979
					c0.899,0.264,1.819,0.472,2.743,0.614c0.916,0.135,1.876,0.231,2.729,0.097l0.271-0.042l0.12,0.241
					c0.471,0.949,1.102,1.891,1.896,2.567c0.402,0.34,0.843,0.581,1.339,0.663l1.653,0.282c2.209,0.348,4.433,0.624,6.661,0.774
					c1.114,0.068,2.229,0.116,3.34,0.086c1.124-0.021,2.18-0.164,3.294-0.398c1.149-0.192,2.282-0.206,3.417-0.162
					c1.132,0.049,2.258,0.166,3.375,0.334c0.559,0.087,1.115,0.183,1.669,0.298c0.277,0.059,0.554,0.122,0.831,0.193
					c0.115,0.055,0.385,0.067,0.172,0.085c0.037-0.058,0.081-0.199,0.105-0.324c0.194-1.067,0.214-2.208,0.257-3.321
					c0.062-2.24,0.05-4.485,0.025-6.73C194.958,258.252,194.831,253.763,194.667,249.274z M194.667,249.274
					c0.238,4.485,0.438,8.972,0.568,13.463c0.061,2.245,0.11,4.491,0.084,6.741c-0.026,1.128-0.022,2.245-0.21,3.393
					c-0.034,0.148-0.053,0.286-0.161,0.47c0.008,0.023-0.14,0.152-0.231,0.152l-0.026,0.001h-0.013
					c0.01,0.003-0.13-0.017-0.077-0.011l-0.049-0.013l-0.196-0.054c-0.268-0.064-0.539-0.122-0.812-0.176
					c-0.547-0.104-1.098-0.19-1.65-0.269c-1.106-0.147-2.218-0.247-3.33-0.277c-1.106-0.024-2.232-0.004-3.298,0.188
					c-1.082,0.239-2.254,0.412-3.378,0.438c-1.135,0.042-2.266,0.003-3.393-0.056c-2.254-0.132-4.495-0.39-6.724-0.719l-1.67-0.269
					c-0.62-0.097-1.2-0.411-1.654-0.793c-0.922-0.78-1.573-1.743-2.108-2.792l0.39,0.199c-1.038,0.17-2.005,0.063-2.972-0.065
					c-0.964-0.14-1.913-0.345-2.847-0.609c-0.935-0.264-1.855-0.586-2.747-0.997c-0.885-0.422-1.77-0.903-2.488-1.698
					c-0.344-0.411-0.658-0.901-0.65-1.591c-0.009-0.559,0.344-1.175,0.753-1.519c0.842-0.717,1.812-1.012,2.748-1.286
					c0.944-0.261,1.896-0.437,2.825-0.622c0.449-0.094,0.957-0.19,1.279-0.331c0.027-0.013,0.061-0.036,0.038-0.019
					c-0.016-0.015-0.117,0.183-0.057,0.303c0.087,0.146,0.005,0.021-0.069,0c-0.16-0.088-0.382-0.17-0.591-0.24
					c-0.848-0.28-1.778-0.403-2.708-0.484c-0.935-0.075-1.88-0.101-2.833-0.119c-0.954-0.021-1.91-0.024-2.89-0.103
					c-0.491-0.046-0.985-0.097-1.511-0.262c-0.272-0.105-0.518-0.156-0.846-0.534l-0.051-0.076l-0.024-0.037l-0.039-0.067
					l-0.013-0.032c-0.034-0.086-0.071-0.184-0.082-0.248c-0.038-0.149-0.052-0.279-0.07-0.413c-0.088-1.026-0.018-1.991,0.147-2.98
					c0.111-0.505,0.156-0.951,0.51-1.561c0.551-0.57,1.063-0.594,1.558-0.733c0.992-0.195,1.96-0.246,2.929-0.274
					c0.97-0.024,1.928-0.012,2.9,0.033l0.023,0.934c-0.829,0.062-1.609,0.078-2.411,0.078c-0.8,0.014-1.589-0.004-2.375-0.027
					l-1.181-0.028c-0.385-0.001-0.819-0.042-1.221-0.071c-0.41-0.062-0.822-0.111-1.228-0.227c-0.407-0.099-0.812-0.237-1.197-0.426
					c-0.392-0.172-0.761-0.412-1.099-0.687c-0.341-0.272-0.641-0.601-0.893-0.958c-0.507-0.724-0.792-1.55-0.921-2.403l-0.039-0.293
					c-0.01-0.139-0.009-0.252-0.011-0.379c0.015-0.242,0.052-0.484,0.125-0.703c0.138-0.444,0.354-0.836,0.6-1.189
					c0.507-0.701,1.089-1.27,1.771-1.791l0.107-0.083l0.148-0.011l9.741-0.703l0.025,0.973c-1.824-0.055-3.629-0.175-5.441-0.37
					c-0.905-0.1-1.809-0.219-2.711-0.383c-0.91-0.161-1.79-0.353-2.714-0.68c-0.872-0.321-1.779-0.783-2.429-1.62
					c-0.325-0.415-0.538-0.959-0.57-1.49c-0.036-0.532,0.061-1.029,0.18-1.488c0.122-0.461,0.272-0.895,0.412-1.318l0.194-0.631
					l0.047-0.159l0.083-0.224c0.069-0.138,0.146-0.277,0.244-0.385c0.381-0.457,0.85-0.679,1.297-0.872
					c0.453-0.186,0.91-0.312,1.368-0.415c1.831-0.389,3.659-0.467,5.489-0.451c0.919,0.009,1.852,0.104,2.73,0.149l2.69,0.156
					l10.811,0.505l-0.179,0.032c0.051-0.021,0.124-0.058,0.163-0.084c0.018-0.011,0.038-0.028,0.022-0.014
					c-0.007,0.008-0.027,0.026-0.049,0.087c-0.033,0.063-0.021,0.214,0.029,0.289c0.108,0.143,0.124,0.103,0.112,0.111
					c-0.005-0.003-0.036-0.01-0.062-0.016c-0.062-0.01-0.135-0.02-0.213-0.023c-0.313-0.02-0.658-0.008-0.997,0.008
					c-0.67,0.032-1.379,0.12-2.107,0.114c-1.442,0.012-2.875-0.258-4.23-0.688c-1.359-0.429-2.648-1.015-3.914-1.591
					c-0.616-0.283-1.315-0.549-1.913-1.013c-0.599-0.447-1.104-1.037-1.426-1.726c-0.3-0.692-0.518-1.455-0.227-2.301
					c0.02-0.054,0.051-0.106,0.083-0.163c0.045-0.071,0.096-0.133,0.118-0.153c0.057-0.063,0.167-0.127,0.226-0.149
					c0.055-0.02,0.12-0.044,0.169-0.055c0.205-0.05,0.384-0.067,0.567-0.087c0.362-0.032,0.715-0.044,1.068-0.052
					c1.41-0.023,2.806,0.028,4.203,0.088l2.093,0.107l1.046,0.063l1.056,0.135c1.39,0.206,2.749,0.315,4.164,0.601
					c1.382,0.322,2.708,0.787,4.015,1.29c1.306,0.507,2.592,1.06,3.862,1.643c1.271,0.585,2.526,1.2,3.761,1.858
					c1.229,0.67,2.462,1.329,3.579,2.218c0.989,1.057,1.652,2.278,2.439,3.435l2.238,3.536L194.667,249.274z"/>
			</g>
		</g>
		<g>
			<path fill="#231F20" d="M250.321,301.028c0,0-0.208-0.062-0.571-0.168c-0.178-0.072-0.405-0.1-0.651-0.14
				c-0.245-0.046-0.517-0.087-0.832-0.099c-0.308-0.034-0.64-0.036-0.987-0.021c-0.354-0.015-0.721,0.062-0.911,0.177
				c-0.217,0.115-0.364,0.389-0.533,0.755c-0.163,0.363-0.337,0.765-0.459,1.128c-0.133,0.367-0.228,0.729-0.218,1.059
				c0.015,0.31,0.109,0.663,0.279,0.843c0.176,0.206,0.479,0.393,0.785,0.517c0.31,0.123,0.629,0.219,0.928,0.297
				c0.605,0.141,1.133,0.23,1.504,0.295c0.371,0.068,0.584,0.107,0.584,0.107s-0.213,0.042-0.589,0.092
				c-0.376,0.046-0.916,0.104-1.579,0.074c-0.332-0.019-0.697-0.054-1.084-0.157c-0.385-0.105-0.811-0.25-1.193-0.624
				c-0.391-0.398-0.561-0.881-0.6-1.402c-0.027-0.516,0.094-0.995,0.24-1.43c0.162-0.441,0.342-0.817,0.531-1.216
				c0.183-0.382,0.48-0.871,0.997-1.115c0.53-0.235,0.97-0.191,1.341-0.142c0.191,0.023,0.377,0.046,0.558,0.068
				c0.175,0.046,0.343,0.09,0.505,0.132c0.322,0.068,0.613,0.188,0.863,0.305c0.254,0.104,0.462,0.202,0.609,0.319
				C250.146,300.902,250.321,301.028,250.321,301.028z"/>
		</g>
	</g>
</g>
</svg>
