<?xml version="1.0" encoding="utf-8"?>
<!-- Generator: Adobe Illustrator 16.0.0, SVG Export Plug-In . SVG Version: 6.00 Build 0)  -->
<!DOCTYPE svg PUBLIC "-//W3C//DTD SVG 1.1//EN" "http://www.w3.org/Graphics/SVG/1.1/DTD/svg11.dtd">
<svg version="1.1" id="Layer_1" xmlns="http://www.w3.org/2000/svg" xmlns:xlink="http://www.w3.org/1999/xlink" x="0px" y="0px"
	 width="400px" height="400px" viewBox="0 0 400 400" enable-background="new 0 0 400 400" xml:space="preserve">
<g>
	<g>
		<path fill="#FFFFFF" d="M162.534,157.896c5.061,3.295,6.814,19.855,6.814,19.855s20.02,0,20.508,0
			c0.488,0,21.81-25.564,21.81-25.564L200.33,138.04C200.33,138.04,159.169,155.706,162.534,157.896z"/>
		<path fill="#231F20" d="M162.562,157.854c0.365,0.252,0.716,0.544,1.022,0.878c0.307,0.329,0.582,0.686,0.835,1.056
			c0.507,0.742,0.926,1.538,1.293,2.354c0.744,1.632,1.285,3.342,1.793,5.057c0.981,3.445,1.67,6.96,2.158,10.518l-0.315-0.283
			c2.255-0.063,4.51-0.081,6.765-0.102c2.255-0.036,4.51-0.03,6.765-0.011c2.255,0.003,4.51,0.028,6.765,0.076l0.211,0.003
			c-0.125-0.015-0.141,0.039-0.071-0.031l0.289-0.281l0.579-0.605l1.143-1.241l2.261-2.513c1.506-1.678,2.961-3.4,4.437-5.105
			c1.472-1.708,2.898-3.456,4.346-5.184c2.87-3.479,5.69-7,8.531-10.502l-0.005,0.491l-11.436-14.067l0.605,0.151l-9.911,4.371
			l-9.874,4.456c-3.282,1.504-6.58,2.978-9.809,4.595c-1.614,0.807-3.225,1.626-4.773,2.552c-0.775,0.46-1.542,0.937-2.271,1.463
			c-0.362,0.265-0.72,0.541-1.035,0.856c-0.156,0.158-0.304,0.328-0.402,0.519C162.355,157.514,162.368,157.745,162.562,157.854z
			 M162.505,157.937c-0.242-0.118-0.269-0.461-0.146-0.66c0.105-0.213,0.256-0.391,0.414-0.556c0.318-0.33,0.674-0.614,1.036-0.889
			c0.727-0.544,1.488-1.036,2.258-1.511c1.548-0.938,3.114-1.846,4.697-2.722c3.174-1.738,6.375-3.429,9.623-5.023l4.884-2.365
			l4.931-2.26c3.298-1.483,6.588-2.982,9.925-4.384l0.365-0.153l0.24,0.305l11.236,14.227l0.201,0.254l-0.206,0.238l-8.85,10.238
			l-4.38,5.156l-4.336,5.195l-2.167,2.602l-1.102,1.29l-0.567,0.639l-0.306,0.32c-0.035,0.022-0.146,0.189-0.403,0.226l-0.211,0.003
			c-2.255,0.047-4.51,0.072-6.765,0.076c-2.255,0.019-4.51,0.025-6.765-0.011c-2.255-0.021-4.51-0.04-6.765-0.102l-0.288-0.008
			l-0.028-0.276c-0.355-3.529-0.923-7.062-1.782-10.515c-0.43-1.728-0.979-3.428-1.688-5.059
			C164.841,160.605,163.967,158.971,162.505,157.937z"/>
	</g>
	<g>
		<path fill="#FFFFFF" d="M206.371,129.953c-0.981,0.245-2.925-0.49-4.146-0.98c-1.22-0.49,1.709-2.696,3.435-4.658
			c1.725-1.961-0.26-4.412-0.016-7.109c0.244-2.696-2.441-3.187-2.685-5.246c-0.245-2.059,0.487-6.521-0.978-8.727
			c-1.466-2.206-6.592-5.148-8.545-7.354s-1.709-4.658-0.733-7.354c0.977-2.696,3.174-2.696,2.197-4.167
			c-0.977-1.471-2.686-0.49-4.638-0.735c-1.954-0.245-3.418-0.98-4.151-1.804c-0.732-0.824,1.465-0.892,1.709-0.892
			c0.245,0,12.451-1.961-5.41-4.902c-17.861-2.942-25.108,1.961-28.038,4.412c-2.93,2.451-7.568,8.089-7.568,8.089
			s0.488,23.042,0,25.249s0.244,21.327,1.465,25.739c1.221,4.413,6.348,21.817,13.184,23.533c6.836,1.716,14.473,0.404,15.625,0
			c2.865-1.005,4.15-1.716,6.592-4.412c2.441-2.697,8.056-3.432,10.253-5.393c2.198-1.961,10.987-11.276,14.162-20.101
			c0.363-1.015,0.813-2.102,1.312-3.258C208.157,129.842,206.843,129.835,206.371,129.953z"/>
		<path fill="#231F20" d="M206.382,130.002c-0.658,0.131-1.32-0.031-1.945-0.191c-0.63-0.172-1.243-0.391-1.85-0.625
			c-0.153-0.062-0.301-0.11-0.457-0.186c-0.169-0.067-0.291-0.278-0.258-0.462c0.058-0.36,0.277-0.622,0.472-0.883
			c0.411-0.513,0.876-0.969,1.334-1.429c0.461-0.458,0.926-0.911,1.372-1.379c0.441-0.464,0.901-0.947,1.081-1.545
			c0.381-1.227-0.122-2.519-0.391-3.772c-0.145-0.636-0.257-1.291-0.249-1.957c0.031-0.663,0.044-1.285-0.225-1.847
			c-0.481-1.159-1.779-1.785-2.341-3.101c-0.256-0.675-0.221-1.343-0.242-1.997l0.005-1.949c-0.007-1.288-0.039-2.587-0.343-3.803
			c-0.156-0.606-0.387-1.174-0.755-1.65c-0.388-0.504-0.821-0.917-1.315-1.343c-0.962-0.838-2.015-1.595-3.057-2.366
			c-1.046-0.769-2.095-1.545-3.097-2.413c-0.484-0.428-1.006-0.936-1.391-1.458c-0.429-0.574-0.744-1.19-0.944-1.867
			c-0.402-1.356-0.25-2.783,0.09-4.07c0.181-0.65,0.36-1.272,0.66-1.919c0.301-0.633,0.736-1.215,1.226-1.689
			c0.475-0.458,1.052-0.934,0.932-1.143c-0.027-0.166-0.183-0.411-0.377-0.61c-0.14-0.144-0.364-0.28-0.611-0.327
			c-1.045-0.19-2.489,0.275-3.853-0.027c-1.321-0.221-2.668-0.657-3.756-1.6c-0.132-0.141-0.255-0.227-0.391-0.416
			c-0.088-0.128-0.159-0.269-0.158-0.489c0.005-0.222,0.14-0.413,0.249-0.503c0.448-0.332,0.779-0.33,1.132-0.402
			c0.173-0.024,0.344-0.041,0.515-0.052c0.163-0.015,0.373-0.003,0.454-0.023c0.306-0.044,0.623-0.102,0.933-0.165
			c0.621-0.129,1.24-0.284,1.82-0.495c0.287-0.107,0.57-0.229,0.797-0.38c0.245-0.161,0.336-0.317,0.292-0.363
			c-0.028-0.12-0.274-0.333-0.52-0.472c-0.254-0.151-0.538-0.28-0.827-0.399c-0.583-0.234-1.194-0.428-1.812-0.601
			c-2.479-0.673-5.038-1.158-7.593-1.54c-2.567-0.437-5.13-0.638-7.72-0.762c-2.585-0.06-5.177,0.07-7.728,0.482
			c-2.54,0.43-5.066,1.108-7.358,2.297c-2.321,1.137-4.293,2.863-6.067,4.73c-1.791,1.869-3.488,3.835-5.139,5.83l0.051-0.148
			c0.143,5.943,0.263,11.885,0.312,17.832c0.01,1.487,0.01,2.974-0.011,4.464c-0.013,0.746-0.032,1.492-0.077,2.247
			c-0.009,0.188-0.042,0.395-0.063,0.591l-0.065,0.542c-0.053,0.373-0.04,0.714-0.065,1.072c-0.054,2.941,0.061,5.918,0.199,8.877
			c0.15,2.961,0.321,5.924,0.59,8.873c0.129,1.475,0.293,2.946,0.508,4.397c0.11,0.731,0.244,1.43,0.43,2.125l0.624,2.129
			c0.862,2.83,1.832,5.627,2.95,8.357c1.13,2.721,2.375,5.408,3.981,7.842c1.611,2.409,3.591,4.694,6.554,4.969
			c2.84,0.539,5.813,0.658,8.735,0.482c1.462-0.096,2.931-0.25,4.358-0.512c0.36-0.065,0.705-0.143,1.009-0.243l1.043-0.379
			c0.666-0.267,1.335-0.541,1.938-0.914c1.228-0.711,2.276-1.727,3.271-2.809c0.305-0.297,0.504-0.533,0.848-0.79
			c0.316-0.265,0.642-0.471,0.966-0.68c0.662-0.392,1.345-0.734,2.041-1.023c1.387-0.59,2.808-1.046,4.164-1.604
			c0.676-0.28,1.347-0.576,1.936-0.967c0.572-0.374,1.104-0.929,1.631-1.427c2.099-2.081,4.061-4.313,5.898-6.638
			c1.825-2.333,3.552-4.756,4.997-7.347c0.703-1.304,1.39-2.621,1.928-4.002c0.553-1.376,1.074-2.769,1.679-4.13l0.056,0.088
			c-0.505-0.018-1.01-0.03-1.514-0.031C207.38,129.917,206.866,129.913,206.382,130.002z M206.36,129.904
			c0.51-0.099,1.015-0.095,1.521-0.104c0.506-0.003,1.012,0.005,1.518,0.018l0.093,0.002l-0.037,0.085
			c-0.59,1.361-1.098,2.756-1.641,4.142c-0.529,1.395-1.207,2.724-1.902,4.04c-1.444,2.604-3.097,5.09-4.888,7.47
			c-1.796,2.377-3.719,4.656-5.788,6.812c-0.541,0.532-1.025,1.077-1.686,1.54c-0.641,0.446-1.332,0.767-2.019,1.072
			c-1.379,0.604-2.781,1.091-4.115,1.698c-0.668,0.299-1.312,0.633-1.923,1.006c-0.609,0.378-1.12,0.812-1.619,1.349
			c-0.996,1.113-2.088,2.214-3.427,3.019c-0.657,0.418-1.366,0.72-2.073,1.015l-1.046,0.396c-0.398,0.14-0.781,0.226-1.15,0.299
			c-1.491,0.302-2.983,0.461-4.485,0.561c-3.005,0.185-6.016,0.08-9.02-0.483l-1.089-0.239c-0.375-0.081-0.789-0.211-1.151-0.373
			c-0.752-0.313-1.398-0.785-1.994-1.286c-1.186-1.02-2.131-2.234-2.97-3.494c-1.668-2.531-2.96-5.253-4.08-8.027
			c-1.118-2.776-2.08-5.606-2.932-8.466l-0.617-2.152c-0.194-0.741-0.336-1.504-0.442-2.243c-0.211-1.489-0.367-2.974-0.488-4.46
			c-0.246-2.972-0.421-5.944-0.525-8.919c-0.1-2.978-0.177-5.945-0.083-8.946c0.394-2.981,0.354-5.897,0.396-8.885
			c0.039-5.938-0.03-11.881-0.12-17.822l-0.001-0.085l0.053-0.063c1.679-1.99,3.396-3.942,5.215-5.808
			c0.93-0.931,1.851-1.829,2.884-2.648c1.027-0.812,2.144-1.511,3.315-2.092c2.33-1.198,4.874-1.919,7.44-2.365
			c2.574-0.436,5.188-0.58,7.794-0.542c2.597,0.077,5.225,0.241,7.787,0.633c2.585,0.341,5.148,0.781,7.693,1.426
			c0.635,0.167,1.267,0.355,1.894,0.594c0.313,0.123,0.625,0.257,0.932,0.432c0.295,0.192,0.642,0.357,0.852,0.856
			c0.102,0.259,0.027,0.603-0.116,0.787c-0.137,0.198-0.295,0.324-0.45,0.432c-0.312,0.212-0.629,0.351-0.947,0.477
			c-0.636,0.244-1.278,0.414-1.925,0.56c-0.325,0.071-0.646,0.136-0.982,0.19c-0.24,0.039-0.357,0.019-0.517,0.039
			c-0.153,0.011-0.305,0.026-0.453,0.048c-0.278,0.034-0.624,0.133-0.695,0.205c-0.013,0.015,0.028-0.027,0.029-0.085
			c-0.002-0.058-0.007-0.04-0.002-0.037c0.049,0.079,0.19,0.192,0.279,0.288c0.888,0.766,2.111,1.185,3.333,1.375
			c0.612,0.114,1.193,0.102,1.835,0.041c0.632-0.046,1.302-0.174,2.072-0.024c0.389,0.083,0.763,0.268,1.074,0.591
			c0.242,0.269,0.495,0.568,0.597,1.044c0.049,0.24,0.008,0.533-0.101,0.746c-0.106,0.214-0.239,0.368-0.363,0.502
			c-0.252,0.265-0.49,0.47-0.709,0.69c-0.437,0.433-0.8,0.9-1.062,1.438c-0.254,0.528-0.448,1.158-0.619,1.755
			c-0.331,1.204-0.463,2.461-0.132,3.617c0.158,0.572,0.443,1.13,0.785,1.6c0.384,0.526,0.799,0.927,1.279,1.367
			c0.951,0.845,1.99,1.618,3.019,2.409c1.027,0.796,2.07,1.58,3.048,2.469c0.48,0.43,0.979,0.933,1.37,1.467
			c0.416,0.563,0.665,1.229,0.816,1.88c0.296,1.317,0.293,2.641,0.272,3.942l-0.047,1.945c0.002,0.634-0.028,1.302,0.174,1.852
			c0.425,1.141,1.728,1.833,2.259,3.121c0.14,0.313,0.208,0.65,0.233,0.998c0.022,0.332-0.014,0.667-0.024,0.98
			c-0.021,0.633,0.073,1.271,0.202,1.902c0.225,1.247,0.761,2.558,0.343,3.88c-0.208,0.66-0.688,1.141-1.135,1.607
			c-0.453,0.468-0.922,0.918-1.386,1.372c-0.461,0.455-0.928,0.907-1.333,1.405c-0.192,0.249-0.404,0.518-0.449,0.808
			c-0.062,0.316,0.341,0.386,0.626,0.513c0.603,0.238,1.211,0.46,1.833,0.635C205.085,129.864,205.732,130.026,206.36,129.904z"/>
	</g>
	<g>
		<path fill="#231F20" d="M146.834,111.062c0.45,0.359,0.945,0.662,1.482,0.874c0.263,0.118,0.538,0.204,0.816,0.275
			c0.278,0.071,0.543,0.174,0.83,0.204l0.839,0.134c0.279,0.037,0.565,0.027,0.843,0.055c0.281,0.004,0.556,0.064,0.837,0.046
			c0.28-0.011,0.56-0.019,0.839-0.015l0.419,0.002l0.105,0c-0.027,0.004,0.055-0.005,0.077-0.007l0.217-0.022
			c0.289-0.03,0.578-0.061,0.869-0.078c0.301-0.005,0.563-0.066,0.826-0.13c0.264-0.066,0.541-0.104,0.805-0.19l0.782-0.311
			c0.252-0.122,0.474-0.295,0.716-0.441c0.216-0.175,0.419-0.373,0.605-0.579c0.174-0.214,0.335-0.457,0.429-0.692l-0.003,0.093
			c-0.239-0.724-0.658-1.406-1.14-1.999c-0.24-0.299-0.506-0.578-0.793-0.826c-0.279-0.256-0.583-0.484-0.892-0.694
			c-0.308-0.215-0.643-0.383-0.976-0.55c-0.345-0.14-0.679-0.308-1.044-0.392c-0.354-0.115-0.722-0.184-1.092-0.238l-0.259-0.042
			l-0.297-0.023c-0.207-0.019-0.353-0.006-0.533-0.016c-1.447,0.028-2.82,0.659-3.936,1.663c-0.563,0.494-1.064,1.093-1.408,1.784
			c-0.175,0.343-0.303,0.714-0.335,1.098c-0.044,0.375,0.056,0.794,0.365,1.011l0.003,0.003L146.834,111.062z M146.782,111.146
			l-0.008-0.004c-0.375-0.236-0.473-0.704-0.476-1.101c0-0.411,0.077-0.817,0.188-1.213c0.237-0.789,0.636-1.53,1.15-2.199
			c1.042-1.318,2.745-2.194,4.491-2.191c0.216,0.007,0.469,0.003,0.655,0.034l0.295,0.038c0.139,0.02,0.216,0.044,0.327,0.066
			c0.413,0.081,0.821,0.179,1.217,0.329c0.404,0.117,0.779,0.323,1.158,0.502c0.365,0.213,0.719,0.439,1.043,0.707
			c0.326,0.262,0.637,0.544,0.9,0.867c0.276,0.309,0.518,0.647,0.736,0.994c0.439,0.697,0.777,1.432,1.016,2.224l0.015,0.049
			l-0.019,0.044c-0.126,0.306-0.306,0.538-0.492,0.78c-0.192,0.23-0.408,0.444-0.63,0.644c-0.239,0.179-0.468,0.379-0.721,0.542
			l-0.786,0.45c-0.271,0.134-0.567,0.222-0.855,0.333c-0.292,0.112-0.586,0.217-0.868,0.259c-0.284,0.063-0.57,0.113-0.857,0.163
			l-0.214,0.038c-0.05,0.007-0.04,0.011-0.139,0.021l-0.113,0.001l-0.452,0.006c-0.301,0.008-0.603,0.002-0.903-0.005
			c-0.301,0.009-0.598-0.077-0.895-0.124c-0.295-0.058-0.594-0.098-0.879-0.195l-0.848-0.299c-0.285-0.085-0.547-0.239-0.816-0.362
			c-0.27-0.122-0.531-0.26-0.778-0.422C147.714,111.842,147.231,111.512,146.782,111.146z"/>
	</g>
	<g>
		<path fill="#231F20" d="M172.878,108.46c0-0.22,0.014-0.442,0.045-0.667c0.04-0.22,0.072-0.442,0.13-0.66l0.118,0.116
			c-0.513,0.25-1.017,0.518-1.512,0.791c-0.477,0.311-0.974,0.571-1.452,0.853c-0.235,0.147-0.491,0.259-0.729,0.4
			c-0.24,0.137-0.479,0.274-0.729,0.398c-0.472,0.272-0.977,0.557-1.375,0.895l-0.033-0.339c0.337,0.294,0.738,0.557,1.142,0.784
			c0.407,0.229,0.832,0.43,1.268,0.599c0.873,0.34,1.787,0.565,2.701,0.734c0.462,0.064,0.912,0.174,1.375,0.221
			c0.459,0.062,0.917,0.124,1.378,0.159c0.919,0.094,1.844,0.083,2.765,0.098l-0.064,1.064c-1.356-0.191-2.706-0.773-3.625-1.808
			c-0.457-0.51-0.823-1.093-1.055-1.716c-0.111-0.313-0.201-0.63-0.262-0.951C172.909,109.108,172.876,108.785,172.878,108.46z
			 M172.978,108.462c0.018,0.316,0.049,0.63,0.137,0.934c0.095,0.3,0.212,0.593,0.383,0.854c0.327,0.53,0.765,0.974,1.259,1.319
			c0.496,0.342,1.021,0.625,1.574,0.836c0.546,0.228,1.128,0.357,1.713,0.441l-0.064,1.064c-0.483-0.016-0.968-0.005-1.449-0.052
			c-0.481-0.054-0.963-0.082-1.44-0.167c-0.958-0.121-1.898-0.37-2.813-0.66c-0.455-0.162-0.905-0.328-1.347-0.514
			c-0.442-0.185-0.878-0.381-1.31-0.584c-0.868-0.405-1.711-0.813-2.562-1.315l-0.206-0.122l0.173-0.218
			c0.389-0.49,0.83-0.854,1.281-1.245c0.467-0.354,0.961-0.676,1.491-0.922c0.511-0.285,1.085-0.426,1.635-0.608
			c0.561-0.152,1.128-0.272,1.678-0.43l0.187-0.053l-0.069,0.169C173.064,107.595,172.985,108.018,172.978,108.462z"/>
	</g>
	<g>
		<path fill="#231F20" d="M184.958,108.229c0.026,0.076,0.056,0.146,0.074,0.249l0.048,0.373c0.041,0.241,0.022,0.505-0.023,0.781
			c-0.02,0.285-0.121,0.526-0.206,0.782c-0.07,0.264-0.237,0.478-0.359,0.717c-0.131,0.234-0.324,0.424-0.492,0.629
			c-0.191,0.184-0.409,0.339-0.624,0.49c-0.228,0.132-0.46,0.253-0.686,0.374c-0.243,0.093-0.479,0.188-0.706,0.295l-0.116-0.316
			c0.272-0.065,0.543-0.14,0.809-0.231c0.265-0.093,0.532-0.18,0.779-0.316c0.492-0.275,0.986-0.535,1.442-0.843
			c0.229-0.151,0.478-0.268,0.696-0.43c0.219-0.159,0.445-0.309,0.657-0.473c0.195-0.183,0.428-0.322,0.615-0.503
			c0.093-0.091,0.203-0.167,0.297-0.254c0.083-0.083,0.196-0.183,0.252-0.247l0.147,0.739c-0.467-0.274-0.928-0.561-1.379-0.877
			C185.771,108.875,185.359,108.57,184.958,108.229z M184.889,108.053c0.55,0.122,1.082,0.302,1.615,0.488
			c0.533,0.187,1.056,0.403,1.573,0.631l0.521,0.23l-0.375,0.509c-0.117,0.16-0.212,0.253-0.32,0.379
			c-0.108,0.111-0.214,0.219-0.33,0.319c-0.229,0.203-0.47,0.377-0.718,0.547c-0.253,0.158-0.515,0.297-0.771,0.445
			c-0.255,0.149-0.532,0.253-0.8,0.372c-0.53,0.254-1.126,0.331-1.673,0.504c-0.28,0.07-0.565,0.115-0.84,0.194
			c-0.277,0.072-0.548,0.16-0.818,0.258l-1.34,0.488l1.225-0.805c0.201-0.132,0.393-0.275,0.577-0.423l0.499-0.497
			c0.138-0.19,0.293-0.355,0.436-0.528c0.13-0.182,0.284-0.346,0.412-0.527c0.112-0.19,0.265-0.361,0.358-0.563
			c0.095-0.199,0.226-0.396,0.292-0.597c0.039-0.102,0.082-0.204,0.13-0.309c0.049-0.105,0.059-0.237,0.101-0.354l0.108-0.36
			c0.016-0.088,0.041-0.237,0.069-0.353l0.015-0.061L184.889,108.053z"/>
	</g>
	<g>
		<path fill="#231F20" d="M177.865,113.382l0.113-0.056c0.174-0.086,0.346-0.14,0.518-0.181c0.086-0.022,0.171-0.041,0.256-0.052
			l0.128-0.021c0.001-0.005,0.089-0.005,0.018-0.009l0.063-0.013c0.166-0.041,0.333-0.064,0.501-0.083
			c0.174-0.016,0.328-0.027,0.478-0.028c0.154,0.007,0.317,0.039,0.484,0.06c0.167,0.007,0.337,0.006,0.499-0.027
			c0.333-0.04,0.604-0.268,0.867-0.459l0.191,0.525c-0.307,0.156-0.626,0.283-0.955,0.37c-0.326,0.1-0.657,0.188-0.994,0.237
			c-0.342,0.034-0.671,0.066-1.028,0.036c-0.337-0.045-0.678-0.123-1.024-0.255L177.865,113.382z M177.971,113.326
			c0.316-0.189,0.638-0.325,0.962-0.427c0.084-0.021,0.142-0.06,0.229-0.089l0.235-0.082c0.156-0.058,0.315-0.089,0.472-0.135
			c0.317-0.069,0.64-0.099,0.968-0.116c0.325-0.031,0.66-0.021,1.007,0.017l2.345,0.256l-2.153,0.269
			c-0.367,0.046-0.692,0.149-1.017,0.262c-0.162,0.06-0.314,0.154-0.472,0.253c-0.165,0.077-0.333,0.166-0.511,0.23
			c-0.371,0.141-0.685,0.089-1.031,0.064l-0.063-0.006c-0.113-0.002-0.067-0.009-0.108-0.016l-0.124-0.039
			c-0.083-0.023-0.165-0.053-0.247-0.087c-0.165-0.064-0.328-0.143-0.49-0.253l-0.078-0.053L177.971,113.326z"/>
	</g>
	<g>
		<path fill="#231F20" d="M184.842,108.462l-0.027-0.36l0.033,0.048c-0.472-0.184-0.951-0.351-1.43-0.51
			c-0.491-0.127-0.987-0.229-1.477-0.344l0.265-0.268c0.081,0.243,0.158,0.492,0.187,0.763c0.034,0.322,0.005,0.506,0.003,0.77
			c-0.069,0.264-0.094,0.579-0.226,0.815c-0.112,0.251-0.236,0.498-0.417,0.709c-0.155,0.233-0.379,0.401-0.589,0.583
			c-0.218,0.169-0.472,0.299-0.725,0.411c-0.269,0.072-0.528,0.195-0.81,0.199l-0.416,0.028c-0.216-0.008-0.267-0.03-0.408-0.044
			c-0.223-0.006-0.518-0.123-0.788-0.222c-0.268-0.105-0.481-0.268-0.708-0.414c-0.191-0.191-0.419-0.342-0.561-0.573l-0.233-0.321
			l-0.171-0.357c-0.131-0.229-0.162-0.497-0.23-0.744c-0.043-0.261-0.057-0.494-0.052-0.787l0.116-0.718l0.299-0.724l0.145,0.228
			l-1.731,0.263c-0.143,0.026-0.279,0.085-0.418,0.126l-0.415,0.136l-0.825,0.269l0.172-0.175l-0.094,0.518
			c-0.032,0.171-0.013,0.347-0.024,0.518l-0.003,0.128c0,0.005-0.002,0.08-0.001,0.027l0.012,0.069l0.047,0.278l0.085,0.554
			c0.15,0.299,0.194,0.605,0.398,0.889l0.27,0.431c0.083,0.147,0.224,0.257,0.331,0.388c0.12,0.121,0.217,0.263,0.353,0.368
			l0.408,0.313c0.252,0.234,0.592,0.349,0.883,0.526c0.145,0.094,0.319,0.13,0.479,0.192l0.484,0.18
			c0.334,0.086,0.677,0.142,1.014,0.218l-0.106-0.003l0.974-0.069l0.061-0.004c-0.05,0.007,0.021-0.004,0.026-0.005l0.123-0.02
			l0.246-0.04l0.492-0.08c0.658-0.098,1.317-0.187,1.98-0.257l-0.104,0.034l0.593-0.267c0.191-0.103,0.374-0.221,0.565-0.332
			c0.182-0.122,0.347-0.266,0.522-0.402c0.167-0.145,0.309-0.314,0.468-0.472c0.145-0.168,0.264-0.357,0.4-0.538
			c0.114-0.192,0.197-0.402,0.299-0.604c0.075-0.212,0.129-0.432,0.188-0.651L184.842,108.462z M184.941,108.46l-0.045,0.698
			c-0.056,0.226-0.099,0.457-0.152,0.685c-0.147,0.446-0.332,0.88-0.579,1.292c-0.138,0.192-0.266,0.399-0.419,0.583
			c-0.164,0.174-0.318,0.363-0.493,0.531c-0.183,0.156-0.363,0.321-0.555,0.472l-0.61,0.407l-0.018,0.012l-0.086,0.022
			c-0.646,0.165-1.294,0.313-1.944,0.45l-0.489,0.097l-0.245,0.049l-0.122,0.024l-0.096,0.018l-0.063,0.006l-1.012,0.104
			l-0.063,0.006l-0.044-0.01c-0.394-0.085-0.793-0.155-1.182-0.26l-0.568-0.216c-0.186-0.081-0.382-0.135-0.552-0.251
			c-0.341-0.221-0.72-0.38-1.017-0.667l-0.466-0.395c-0.153-0.133-0.271-0.307-0.406-0.459c-0.124-0.163-0.277-0.302-0.374-0.485
			l-0.296-0.541c-0.208-0.348-0.278-0.81-0.405-1.204l-0.043-0.563l-0.014-0.281l-0.004-0.071c-0.006-0.1,0.004-0.071,0.005-0.113
			l0.021-0.152c0.034-0.201,0.042-0.406,0.099-0.599l0.176-0.574l0.045-0.148l0.128-0.028l0.885-0.193
			c0.294-0.06,0.585-0.136,0.881-0.182l1.782-0.204l0.251-0.029l-0.106,0.257l-0.257,0.619c-0.034,0.237-0.065,0.479-0.087,0.72
			c0.02,0.185,0.045,0.443,0.1,0.651c0.09,0.208,0.138,0.431,0.278,0.61l0.178,0.28l0.228,0.24c0.134,0.175,0.343,0.269,0.506,0.405
			c0.192,0.088,0.388,0.204,0.578,0.249c0.193,0.042,0.353,0.104,0.62,0.105c0.1,0.004,0.29,0.025,0.314,0.016l0.307-0.044
			c0.209,0,0.395-0.105,0.593-0.154c0.181-0.092,0.37-0.179,0.539-0.294c0.159-0.13,0.335-0.244,0.459-0.413
			c0.156-0.143,0.266-0.32,0.373-0.502c0.125-0.179,0.161-0.361,0.26-0.549c0.039-0.216,0.11-0.515,0.111-0.674
			c0.013-0.216-0.016-0.439-0.055-0.667l-0.067-0.4l0.333,0.132l1.428,0.569c0.466,0.21,0.933,0.414,1.407,0.6l0.031,0.012
			l0.002,0.036L184.941,108.46z"/>
	</g>
	<path fill="none" stroke="#000000" stroke-miterlimit="10" d="M176.61,106.706c-0.239,0.405-0.386,0.866-0.386,1.364
		c0,1.551,1.322,2.809,2.953,2.809c1.63,0,2.952-1.258,2.952-2.809c0-0.274-0.054-0.533-0.13-0.784
		C180.011,106.763,178.212,106.603,176.61,106.706z"/>
	<g>
		<path d="M150.324,106.448c-0.023,0.256-0.072,0.504-0.111,0.755c0,0.259,0.025,0.493,0.021,0.722
			c-0.002,0.169,0.088,0.492,0.113,0.732c0.089,0.216,0.136,0.416,0.232,0.624c0.113,0.201,0.196,0.417,0.339,0.594
			c0.07,0.089,0.123,0.193,0.191,0.283c0.076,0.083,0.154,0.164,0.224,0.258c0.137,0.192,0.338,0.309,0.519,0.466
			c0.209,0.092,0.412,0.257,0.655,0.287l0.343,0.07l0.392-0.033c0.137,0.001,0.255-0.039,0.362-0.089
			c0.111-0.045,0.225-0.081,0.331-0.134c0.196-0.154,0.418-0.265,0.561-0.473l0.233-0.276l0.171-0.319
			c0.131-0.198,0.167-0.446,0.258-0.657c0.056-0.226,0.098-0.456,0.134-0.681c-0.005-0.226,0.042-0.476,0.002-0.674
			c-0.02-0.282-0.086-0.482-0.138-0.681l0.353,0.374c-0.428-0.109-0.855-0.215-1.275-0.354c-0.21-0.072-0.429-0.094-0.642-0.155
			l-0.645-0.161c-0.214-0.07-0.434-0.085-0.652-0.13l-0.659-0.14c-0.221-0.05-0.444-0.051-0.669-0.097
			C150.757,106.523,150.542,106.493,150.324,106.448z M150.279,106.342c0.225-0.061,0.453-0.103,0.683-0.15
			c0.23-0.046,0.463-0.095,0.696-0.106c0.465-0.023,0.94-0.064,1.409-0.031c0.465,0.052,0.94,0.08,1.4,0.175
			c0.459,0.098,0.911,0.228,1.362,0.355l0.3,0.085l0.053,0.289c0.058,0.314,0.104,0.626,0.098,0.871
			c0.022,0.325-0.055,0.596-0.082,0.893c-0.068,0.285-0.163,0.567-0.279,0.832c-0.155,0.251-0.27,0.52-0.484,0.724l-0.289,0.318
			l-0.338,0.264c-0.208,0.192-0.493,0.276-0.724,0.423c-0.269,0.074-0.55,0.216-0.806,0.228l-0.389,0.057
			c-0.173,0.007-0.288-0.007-0.438-0.01c-0.291,0.023-0.56-0.083-0.851-0.14c-0.257-0.12-0.553-0.22-0.782-0.405
			c-0.243-0.173-0.469-0.374-0.629-0.626c-0.2-0.227-0.297-0.511-0.417-0.778c-0.113-0.271-0.159-0.596-0.211-0.881
			c0.002-0.282-0.027-0.482,0.026-0.833c0.066-0.29,0.127-0.583,0.228-0.835c0.139-0.229,0.263-0.462,0.421-0.684l0.019-0.026
			L150.279,106.342z"/>
	</g>
	<g>
		<path fill="#231F20" d="M217.606,87.3c0,0-1.221-23.533-26.611-26.474c-25.391-2.942-35.157,6.373-35.157,6.373
			s-11.556,4.658-9.004,22.797c0,0,4.609-7.108,7.539-9.56c2.93-2.451,10.177-7.354,28.038-4.412
			c17.86,2.941,5.654,4.902,5.41,4.902c-0.244,0-2.441,0.068-1.709,0.892c0.732,0.824,2.197,1.559,4.151,1.804
			c1.953,0.245,3.662-0.735,4.638,0.735c0.977,1.471-1.22,1.471-2.197,4.167c-0.977,2.696-1.22,5.148,0.733,7.354
			s7.079,5.148,8.545,7.354c1.465,2.206,0.732,6.667,0.978,8.727c0.243,2.059,2.929,2.549,2.685,5.246
			c-0.244,2.697,1.74,5.148,0.016,7.109c-1.726,1.961-4.654,4.167-3.435,4.658c1.222,0.49,3.165,1.226,4.146,0.98
			c0.472-0.118,1.786-0.111,3.026-0.072C213.234,120.978,220.198,107.692,217.606,87.3z"/>
		<path fill="#231F20" d="M217.557,87.305c-0.133-1.603-0.449-3.192-0.859-4.748c-0.418-1.555-0.944-3.08-1.586-4.556
			c-1.282-2.947-3.013-5.717-5.233-8.039c-1.1-1.167-2.291-2.25-3.593-3.182c-0.629-0.497-1.326-0.896-1.99-1.34
			c-0.705-0.377-1.379-0.813-2.113-1.134l-1.082-0.516l-1.113-0.445c-0.733-0.319-1.508-0.529-2.263-0.788
			c-0.762-0.238-1.544-0.41-2.315-0.619c-0.786-0.148-1.567-0.316-2.355-0.446l-2.375-0.313c-0.802-0.075-1.607-0.167-2.407-0.227
			c-1.597-0.122-3.2-0.218-4.805-0.247c-1.604-0.045-3.208-0.015-4.81,0.05c-1.6,0.087-3.2,0.179-4.789,0.377
			c-3.18,0.365-6.33,1.012-9.363,2.012c-1.513,0.507-3.005,1.081-4.431,1.79c-1.418,0.699-2.829,1.52-3.998,2.514l-0.056,0.047
			l-0.053,0.023c-0.458,0.196-0.938,0.466-1.382,0.75c-0.451,0.285-0.882,0.604-1.298,0.939c-0.832,0.674-1.598,1.432-2.277,2.264
			c-1.369,1.658-2.405,3.585-3.101,5.629c-0.362,1.018-0.615,2.074-0.82,3.136c-0.197,1.065-0.325,2.145-0.381,3.229
			c-0.063,1.084-0.048,2.171-0.006,3.258l0.12,1.627l0.189,1.621l-0.323-0.071c1.489-2.24,3.046-4.431,4.74-6.522
			c0.854-1.04,1.722-2.074,2.743-2.978c1.018-0.883,2.147-1.659,3.327-2.314c2.379-1.302,4.989-2.131,7.646-2.604
			c2.659-0.478,5.364-0.652,8.06-0.608c2.692,0.086,5.388,0.266,8.049,0.682c2.666,0.368,5.319,0.824,7.941,1.535
			c0.654,0.188,1.307,0.393,1.949,0.685c0.321,0.153,0.642,0.31,0.95,0.587c0.148,0.14,0.314,0.321,0.383,0.612
			c0.068,0.301-0.07,0.616-0.219,0.779c-0.626,0.638-1.296,0.791-1.954,1.028c-0.662,0.204-1.327,0.357-2.003,0.481
			c-0.173,0.026-0.327,0.069-0.556,0.072c-0.156,0.006-0.316,0.017-0.472,0.034c-0.306,0.033-0.634,0.092-0.84,0.189
			c-0.049,0.022-0.081,0.05-0.078,0.049c0.003,0.008,0.042-0.075,0.031-0.115c-0.009-0.038-0.003-0.009,0.026,0.023
			c-0.021-0.012,0.098,0.097,0.14,0.14c0.255,0.257,0.437,0.372,0.721,0.549c1.058,0.635,2.375,0.95,3.616,1.005
			c0.617,0.013,1.266-0.092,1.974-0.132c0.356-0.016,0.739-0.015,1.14,0.089c0.4,0.099,0.797,0.341,1.073,0.656
			c0.128,0.16,0.257,0.321,0.346,0.496c0.107,0.204,0.191,0.424,0.193,0.706c-0.018,0.603-0.4,0.938-0.628,1.179
			c-0.511,0.487-0.954,0.892-1.29,1.41c-1.148,2.124-1.842,5.055-0.484,7.128c0.655,1.039,1.696,1.868,2.729,2.686l3.207,2.425
			c1.066,0.836,2.152,1.655,3.064,2.801l0.166,0.223l0.041,0.056l0.051,0.085l0.063,0.109c0.082,0.148,0.167,0.278,0.243,0.475
			c0.17,0.371,0.267,0.711,0.357,1.062c0.174,0.699,0.244,1.396,0.286,2.084c0.084,1.378,0.007,2.737,0.009,4.052
			c0.002,0.327,0.007,0.654,0.038,0.958l0.009,0.116c-0.011-0.042,0.012,0.059,0.016,0.082l0.048,0.247
			c0.053,0.126,0.063,0.207,0.138,0.338c0.237,0.49,0.701,0.935,1.173,1.436c0.465,0.504,0.979,1.115,1.184,1.892
			c0.11,0.378,0.153,0.776,0.131,1.155c-0.003,0.334-0.043,0.697-0.014,0.97c0.049,1.227,0.557,2.478,0.708,3.929
			c0.068,0.724-0.038,1.562-0.464,2.244c-0.104,0.167-0.23,0.317-0.348,0.474l-0.349,0.385l-0.715,0.733l-1.429,1.41
			c-0.44,0.448-0.961,0.987-1.119,1.382c-0.382-0.179,0.638,0.269,1.168,0.446c0.615,0.22,1.241,0.42,1.849,0.514
			c0.313,0.043,0.574,0.066,0.853,0.003c0.152-0.031,0.354-0.053,0.551-0.068l0.521-0.02c0.688-0.013,1.362,0.006,2.038,0.031
			l-0.404,0.257l2.251-5.023c0.746-1.672,1.462-3.355,2.126-5.059c0.317-0.857,0.667-1.703,0.951-2.572
			c0.296-0.864,0.607-1.725,0.861-2.603c0.267-0.874,0.541-1.747,0.757-2.635c0.231-0.885,0.474-1.767,0.649-2.665
			c0.188-0.895,0.404-1.785,0.537-2.69c0.137-0.904,0.333-1.801,0.422-2.712c0.101-0.91,0.23-1.817,0.302-2.73l0.166-2.742
			c0.033-0.915,0.022-1.832,0.036-2.748c0.029-0.917-0.037-1.832-0.072-2.747c-0.041-0.916-0.064-1.832-0.172-2.743L217.557,87.305z
			 M217.656,87.295l0.288,2.737c0.116,0.912,0.147,1.83,0.196,2.747c0.043,0.917,0.117,1.834,0.096,2.753
			c-0.005,0.918,0.013,1.837-0.013,2.755l-0.143,2.753c-0.069,0.916-0.174,1.829-0.256,2.745c-0.069,0.918-0.247,1.822-0.365,2.734
			c-0.114,0.914-0.313,1.812-0.481,2.716c-0.158,0.907-0.383,1.8-0.596,2.695c-0.199,0.899-0.456,1.783-0.705,2.669
			c-0.234,0.891-0.528,1.764-0.806,2.642c-0.267,0.882-0.598,1.741-0.897,2.612c-0.627,1.731-1.308,3.442-2.018,5.138l-2.168,5.059
			l-0.113,0.264l-0.292-0.007c-0.665-0.016-1.333-0.024-1.986-0.003l-0.482,0.024c-0.139,0.014-0.271,0.024-0.447,0.062
			c-0.378,0.089-0.798,0.065-1.147,0.018c-0.722-0.103-1.382-0.309-2.032-0.53l-0.961-0.353l-0.235-0.091
			c-0.075-0.029-0.242-0.1-0.367-0.215c-0.134-0.123-0.249-0.329-0.262-0.515c-0.021-0.185,0.013-0.332,0.051-0.451
			c0.168-0.462,0.403-0.722,0.627-1.007c0.229-0.275,0.464-0.525,0.701-0.772l1.429-1.425l0.688-0.71l0.326-0.361
			c0.079-0.114,0.173-0.221,0.246-0.337c0.285-0.469,0.367-1.025,0.314-1.631c-0.115-1.223-0.645-2.514-0.721-3.981
			c-0.03-0.397,0.011-0.704,0.012-1.041c0.019-0.29-0.017-0.569-0.094-0.834c-0.137-0.536-0.513-0.999-0.949-1.471
			c-0.438-0.475-0.982-0.959-1.348-1.68c-0.095-0.16-0.168-0.41-0.228-0.598l-0.049-0.247c-0.01-0.06-0.013-0.04-0.028-0.165
			l-0.012-0.135c-0.037-0.363-0.042-0.708-0.045-1.051c-0.004-1.367,0.066-2.693-0.017-3.996c-0.04-0.648-0.108-1.292-0.262-1.896
			c-0.076-0.298-0.171-0.604-0.28-0.844c-0.037-0.121-0.134-0.274-0.215-0.419l-0.063-0.109c-0.002-0.004-0.039-0.068-0.013-0.023
			l-0.034-0.045l-0.136-0.18c-0.764-0.958-1.827-1.795-2.863-2.613l-3.199-2.449c-1.049-0.85-2.163-1.716-2.946-2.964
			c-0.79-1.241-1.018-2.797-0.814-4.194c0.093-0.707,0.266-1.38,0.48-2.047c0.199-0.625,0.458-1.347,0.878-1.945
			c0.399-0.612,0.961-1.117,1.421-1.55c0.233-0.221,0.37-0.42,0.354-0.514c0.003-0.055-0.027-0.16-0.076-0.252
			c-0.062-0.127-0.147-0.225-0.225-0.33c-0.635-0.794-2.11-0.282-3.514-0.323c-1.429-0.075-2.799-0.427-4.043-1.179
			c-0.287-0.17-0.656-0.453-0.865-0.679c-0.089-0.109-0.33-0.256-0.402-0.644c-0.042-0.208,0.066-0.462,0.187-0.574
			c0.118-0.123,0.232-0.185,0.334-0.233c0.409-0.176,0.757-0.211,1.114-0.252c0.178-0.017,0.353-0.027,0.532-0.032
			c0.107,0.007,0.283-0.031,0.441-0.054c0.645-0.11,1.292-0.25,1.914-0.434c0.597-0.181,1.281-0.424,1.601-0.763
			c0.071-0.085,0.067-0.115,0.066-0.147c-0.006-0.04-0.061-0.133-0.155-0.219c-0.188-0.178-0.471-0.334-0.753-0.47
			c-0.575-0.271-1.204-0.481-1.836-0.67c-2.548-0.727-5.191-1.219-7.833-1.617c-2.636-0.451-5.305-0.657-7.972-0.764
			c-2.668-0.068-5.344,0.081-7.972,0.528c-2.626,0.442-5.201,1.235-7.548,2.493c-1.17,0.638-2.271,1.377-3.289,2.244
			c-0.995,0.871-1.878,1.884-2.721,2.919c-1.671,2.088-3.213,4.287-4.68,6.523l-0.264,0.404l-0.059-0.475l-0.201-1.635l-0.131-1.643
			c-0.049-1.098-0.071-2.198-0.014-3.298c0.109-2.196,0.435-4.397,1.132-6.5c0.68-2.104,1.714-4.106,3.104-5.845
			c0.69-0.873,1.473-1.672,2.33-2.387c0.429-0.356,0.874-0.696,1.343-1.002c0.473-0.309,0.942-0.589,1.486-0.832l-0.108,0.07
			c1.273-1.12,2.671-1.948,4.127-2.702c1.454-0.749,2.967-1.373,4.513-1.892c3.092-1.037,6.294-1.712,9.521-2.099
			c1.613-0.204,3.235-0.329,4.858-0.388c1.623-0.05,3.247-0.065,4.868-0.003c1.622,0.046,3.239,0.158,4.859,0.299
			c1.604,0.146,3.217,0.332,4.828,0.609c0.8,0.15,1.594,0.339,2.39,0.508c0.782,0.23,1.574,0.423,2.346,0.683
			c0.765,0.28,1.547,0.512,2.289,0.854l1.124,0.478l1.091,0.549c0.738,0.344,1.416,0.802,2.124,1.201
			c0.667,0.466,1.366,0.887,1.994,1.405c1.302,0.975,2.487,2.098,3.574,3.302c2.183,2.405,3.886,5.213,5.164,8.18
			c0.634,1.489,1.151,3.025,1.559,4.589C217.229,84.089,217.534,85.68,217.656,87.295z"/>
	</g>
	<g>
		<path fill="#231F20" d="M166.581,100.78c0.163,0.327,0,4.189,0,4.189s4.476-0.68,7.976-1.088c3.5-0.409,5.626-0.981,7.93,0
			c2.303,0.98,9.901,4.181,10.39,4.218c0.488,0.037-2.197-5.11-2.442-5.274c-0.244-0.163-6.267-3.023-8.708-3.104
			c-2.441-0.082-9.439-0.245-12.532,0.898C166.101,101.763,166.581,100.78,166.581,100.78z"/>
		<path fill="#231F20" d="M166.629,100.767c0.097,0.322,0.119,0.714,0.143,1.056l0.05,1.053c0.028,0.702,0.04,1.402,0.031,2.104
			l-0.313-0.281c1.195-0.199,2.386-0.426,3.585-0.602l3.596-0.542c1.195-0.185,2.392-0.327,3.6-0.459
			c1.208-0.125,2.472-0.195,3.717,0.056c1.267,0.254,2.314,0.905,3.423,1.366c1.104,0.498,2.217,0.968,3.34,1.417
			c1.121,0.454,2.247,0.893,3.383,1.307c0.568,0.208,1.104,0.363,1.647,0.55l0.051,0.017l0.013,0.004
			c0.029,0-0.213,0.028-0.104,0.013l0.025-0.009c-0.109-0.014-0.192,0.22-0.169,0.176c-0.003,0.001-0.003,0.008-0.003,0.006
			c-0.007-0.039-0.022-0.099-0.043-0.162c-0.041-0.127-0.098-0.263-0.154-0.396c-0.115-0.269-0.245-0.537-0.377-0.805
			c-0.542-1.063-1.104-2.14-1.72-3.15c-0.073-0.118-0.163-0.259-0.219-0.33c-0.006-0.01-0.02-0.02,0.021,0.02l0.023,0.017
			c0.007,0.004,0.056,0.034,0.028,0.018l-0.025-0.013l-0.102-0.051l-0.204-0.101l-0.789-0.356c-0.552-0.237-1.101-0.479-1.659-0.699
			c-1.108-0.46-2.239-0.854-3.366-1.222c-0.559-0.15-1.138-0.349-1.682-0.418c-0.279-0.029-0.531-0.095-0.832-0.105l-0.907-0.036
			c-2.4-0.061-4.814-0.131-7.205,0.023c-1.19,0.077-2.4,0.147-3.54,0.441c-0.573,0.121-1.169,0.305-1.756,0.451
			c-0.31,0.051-0.605,0.138-0.927,0.134c-0.153,0.022-0.321-0.01-0.482-0.053c-0.073-0.035-0.17-0.096-0.204-0.18
			c-0.039-0.096-0.027-0.187,0.012-0.27l0.055-0.117L166.629,100.767z M166.625,100.802c-0.088,0.291,0.307,0.306,0.571,0.245
			c0.287-0.024,0.569-0.14,0.85-0.215c0.571-0.202,1.107-0.45,1.71-0.622c0.588-0.215,1.191-0.329,1.794-0.448
			c0.603-0.141,1.209-0.194,1.816-0.281c2.432-0.256,4.865-0.351,7.302-0.313c0.598,0.007,1.205,0.003,1.876,0.128
			c0.655,0.092,1.229,0.296,1.834,0.46c1.171,0.39,2.311,0.84,3.427,1.332c0.562,0.238,1.113,0.499,1.667,0.754l0.854,0.416
			l0.2,0.106l0.1,0.053l0.025,0.014c-0.02-0.013,0.037,0.021,0.051,0.033l0.043,0.037c0.069,0.065,0.078,0.085,0.094,0.106
			c0.123,0.173,0.185,0.294,0.267,0.436c0.587,1.09,1.12,2.173,1.593,3.307c0.117,0.284,0.231,0.569,0.334,0.864
			c0.051,0.15,0.102,0.297,0.143,0.461c0.02,0.083,0.039,0.17,0.048,0.282c0.001,0.036-0.001,0.08-0.006,0.12
			c0.026-0.004-0.088,0.26-0.209,0.281l-0.029,0.008c0.1-0.013-0.151,0.023-0.131,0.017l-0.014-0.005l-0.056-0.021
			c-0.592-0.23-1.208-0.447-1.763-0.692c-1.104-0.5-2.229-0.952-3.34-1.431c-1.109-0.484-2.232-0.936-3.358-1.381
			c-1.132-0.427-2.249-0.957-3.384-1.098c-1.149-0.157-2.325,0.022-3.512,0.186c-1.191,0.183-2.396,0.337-3.599,0.479l-3.597,0.439
			c-1.198,0.151-2.404,0.251-3.607,0.379l-0.337,0.036l0.024-0.317l0.157-2.088l0.064-1.044c0.006-0.355,0.059-0.669,0.003-1.032
			L166.625,100.802z"/>
	</g>
	<g>
		<path fill="#231F20" d="M166.581,100.78c0.163,0.327,0,4.189,0,4.189s4.476-0.68,7.976-1.088c3.5-0.409,5.626-0.981,7.93,0
			c2.303,0.98,9.901,4.181,10.39,4.218c0.488,0.037-2.197-5.11-2.442-5.274c-0.244-0.163-6.267-3.023-8.708-3.104
			c-2.441-0.082-9.439-0.245-12.532,0.898C166.101,101.763,166.581,100.78,166.581,100.78z"/>
		<path fill="#231F20" d="M166.629,100.767c0.097,0.322,0.119,0.714,0.143,1.056l0.05,1.053c0.028,0.702,0.04,1.402,0.031,2.104
			l-0.313-0.281c1.195-0.199,2.386-0.426,3.585-0.602l3.596-0.542c1.195-0.185,2.392-0.327,3.6-0.459
			c1.208-0.125,2.472-0.195,3.717,0.056c1.267,0.254,2.314,0.905,3.423,1.366c1.104,0.498,2.217,0.968,3.34,1.417
			c1.121,0.454,2.247,0.893,3.383,1.307c0.568,0.208,1.104,0.363,1.647,0.55l0.051,0.017l0.013,0.004
			c0.029,0-0.213,0.028-0.104,0.013l0.025-0.009c-0.109-0.014-0.192,0.22-0.169,0.176c-0.003,0.001-0.003,0.008-0.003,0.006
			c-0.007-0.039-0.022-0.099-0.043-0.162c-0.041-0.127-0.098-0.263-0.154-0.396c-0.115-0.269-0.245-0.537-0.377-0.805
			c-0.542-1.063-1.104-2.14-1.72-3.15c-0.073-0.118-0.163-0.259-0.219-0.33c-0.006-0.01-0.02-0.02,0.021,0.02l0.023,0.017
			c0.007,0.004,0.056,0.034,0.028,0.018l-0.025-0.013l-0.102-0.051l-0.204-0.101l-0.789-0.356c-0.552-0.237-1.101-0.479-1.659-0.699
			c-1.108-0.46-2.239-0.854-3.366-1.222c-0.559-0.15-1.138-0.349-1.682-0.418c-0.279-0.029-0.531-0.095-0.832-0.105l-0.907-0.036
			c-2.4-0.061-4.814-0.131-7.205,0.023c-1.19,0.077-2.4,0.147-3.54,0.441c-0.573,0.121-1.169,0.305-1.756,0.451
			c-0.31,0.051-0.605,0.138-0.927,0.134c-0.153,0.022-0.321-0.01-0.482-0.053c-0.073-0.035-0.17-0.096-0.204-0.18
			c-0.039-0.096-0.027-0.187,0.012-0.27l0.055-0.117L166.629,100.767z M166.625,100.802c-0.088,0.291,0.307,0.306,0.571,0.245
			c0.287-0.024,0.569-0.14,0.85-0.215c0.571-0.202,1.107-0.45,1.71-0.622c0.588-0.215,1.191-0.329,1.794-0.448
			c0.603-0.141,1.209-0.194,1.816-0.281c2.432-0.256,4.865-0.351,7.302-0.313c0.598,0.007,1.205,0.003,1.876,0.128
			c0.655,0.092,1.229,0.296,1.834,0.46c1.171,0.39,2.311,0.84,3.427,1.332c0.562,0.238,1.113,0.499,1.667,0.754l0.854,0.416
			l0.2,0.106l0.1,0.053l0.025,0.014c-0.02-0.013,0.037,0.021,0.051,0.033l0.043,0.037c0.069,0.065,0.078,0.085,0.094,0.106
			c0.123,0.173,0.185,0.294,0.267,0.436c0.587,1.09,1.12,2.173,1.593,3.307c0.117,0.284,0.231,0.569,0.334,0.864
			c0.051,0.15,0.102,0.297,0.143,0.461c0.02,0.083,0.039,0.17,0.048,0.282c0.001,0.036-0.001,0.08-0.006,0.12
			c0.026-0.004-0.088,0.26-0.209,0.281l-0.029,0.008c0.1-0.013-0.151,0.023-0.131,0.017l-0.014-0.005l-0.056-0.021
			c-0.592-0.23-1.208-0.447-1.763-0.692c-1.104-0.5-2.229-0.952-3.34-1.431c-1.109-0.484-2.232-0.936-3.358-1.381
			c-1.132-0.427-2.249-0.957-3.384-1.098c-1.149-0.157-2.325,0.022-3.512,0.186c-1.191,0.183-2.396,0.337-3.599,0.479l-3.597,0.439
			c-1.198,0.151-2.404,0.251-3.607,0.379l-0.337,0.036l0.024-0.317l0.157-2.088l0.064-1.044c0.006-0.355,0.059-0.669,0.003-1.032
			L166.625,100.802z"/>
	</g>
	<ellipse fill="#FFFFFF" stroke="#000000" stroke-miterlimit="10" cx="179.943" cy="108.099" rx="1.167" ry="1.16"/>
	<ellipse fill="#FFFFFF" stroke="#000000" stroke-miterlimit="10" cx="154.016" cy="107.818" rx="1.167" ry="1.16"/>
	<g>
		<path fill="#231F20" d="M154.699,105.635c0,0,0.151-0.023,0.44-0.025c0.289-0.003,0.712,0.03,1.247,0.153
			c0.537,0.111,1.169,0.396,1.785,0.895c0.613,0.493,1.172,1.287,1.39,2.24c0.232,0.943,0.268,2.003,0.062,3.053
			c-0.053,0.262-0.106,0.528-0.16,0.797c-0.071,0.264-0.171,0.521-0.257,0.785c-0.169,0.526-0.366,1.064-0.593,1.576
			c-0.442,1.039-0.868,2.123-1.246,3.244c-0.18,0.563-0.368,1.129-0.585,1.689l-0.577,1.714l-0.518,1.69
			c-0.077,0.565-0.18,1.158-0.229,1.681c-0.002,0.293-0.029,0.596-0.026,0.877c0.036,0.257,0.034,0.517,0.089,0.763
			c0.119,0.494,0.296,0.948,0.627,1.269c0.324,0.324,0.728,0.583,1.193,0.767l0.345,0.139c0.014,0.011,0.228,0.055,0.331,0.083
			c0.095,0.005,0.154,0,0.237,0.01l0.297-0.041c0.819-0.198,1.619-0.806,2.365-1.295c0.754-0.498,1.494-1.015,2.377-1.1
			c0.183-0.01,0.36-0.021,0.531-0.03c0.188,0.012,0.369,0.023,0.543,0.035c0.34,0.05,0.643,0.117,0.899,0.238
			c0.513,0.224,0.856,0.498,1.055,0.707c0.203,0.206,0.295,0.327,0.295,0.327l-0.071,0.07c0,0-0.114-0.098-0.345-0.251
			c-0.223-0.161-0.581-0.358-1.061-0.476c-0.237-0.062-0.515-0.088-0.803-0.096c-0.143,0.007-0.292,0.015-0.446,0.023
			c-0.168,0.031-0.343,0.063-0.523,0.095c-0.586,0.137-1.244,0.61-1.937,1.161c-0.716,0.534-1.439,1.262-2.639,1.604
			c-0.151,0.036-0.313,0.056-0.472,0.081c-0.178,0.003-0.383-0.003-0.551-0.022c-0.153-0.04-0.205-0.039-0.442-0.116l-0.405-0.165
			c-0.539-0.217-1.101-0.553-1.542-1.054c-0.461-0.498-0.691-1.162-0.807-1.793c-0.056-0.321-0.046-0.651-0.067-0.977
			c0.014-0.304,0.044-0.589,0.073-0.886c0.104-0.647,0.256-1.223,0.389-1.835l0.729-1.688c0.491-1.092,1.003-2.178,1.379-3.302
			c0.396-1.115,0.734-2.23,1.03-3.32c0.165-0.545,0.289-1.067,0.392-1.591c0.127-0.518,0.203-1.025,0.26-1.519
			c0.15-0.982,0.151-1.913-0.02-2.722c-0.137-0.826-0.553-1.473-1.006-1.96c-0.465-0.486-1.007-0.786-1.474-0.978
			c-0.466-0.2-0.864-0.299-1.135-0.352c-0.271-0.063-0.421-0.075-0.421-0.075V105.635z"/>
	</g>
	<g>
		<path fill="#FFFFFF" d="M207.762,133.993c0,0,1.626-8.045,2.928-13.438c1.302-5.393,5.533-14.069,12.044-11.365
			c6.512,2.704,4.071,12.345,2.768,15.124c-1.302,2.779-10.091,12.419-12.695,11.767
			C210.202,135.426,207.438,135.571,207.762,133.993z"/>
		<path d="M207.713,133.983c0,0,0.253-1.116,0.633-3.083c0.381-1.966,0.846-4.792,1.464-8.17c0.165-0.851,0.314-1.706,0.544-2.64
			c0.205-0.89,0.551-1.842,0.899-2.766c0.702-1.868,1.755-3.73,3.125-5.43c0.708-0.83,1.498-1.629,2.451-2.241
			c0.935-0.62,2.042-1.075,3.206-1.098c1.15-0.057,2.332,0.203,3.355,0.766c0.524,0.209,0.992,0.598,1.476,0.959
			c0.407,0.426,0.858,0.833,1.146,1.356c0.358,0.484,0.567,1.041,0.813,1.584c0.165,0.566,0.367,1.13,0.442,1.714
			c0.211,1.161,0.227,2.335,0.144,3.484c-0.07,1.153-0.275,2.28-0.545,3.375c-0.281,1.094-0.593,2.167-1.138,3.187
			c-0.574,1.001-1.227,1.825-1.882,2.647c-0.653,0.816-1.329,1.58-2.006,2.306c-1.344,1.461-2.715,2.747-4.057,3.851
			c-1.355,1.081-2.669,2.035-4.104,2.454c-0.339,0.112-0.803,0.08-1.099-0.022c-0.316-0.09-0.613-0.161-0.906-0.228
			c-0.585-0.137-1.131-0.236-1.623-0.333c-0.97-0.21-1.794-0.39-2.167-0.854c-0.179-0.225-0.207-0.462-0.196-0.602
			C207.705,134.057,207.713,133.983,207.713,133.983z M207.811,134.003c0.039-0.017-0.146,0.315,0.165,0.727
			c0.328,0.407,1.139,0.593,2.111,0.74c0.496,0.069,1.046,0.146,1.645,0.229c0.299,0.044,0.618,0.094,0.936,0.158
			c0.331,0.072,0.566,0.063,0.894-0.052c1.233-0.456,2.432-1.524,3.679-2.647c1.248-1.147,2.521-2.484,3.832-3.924
			c1.273-1.452,2.672-3.035,3.752-4.751c0.489-0.861,0.824-1.894,1.111-2.927c0.284-1.04,0.493-2.118,0.601-3.21
			c0.121-1.091,0.148-2.205-0.007-3.295c-0.039-0.554-0.196-1.08-0.316-1.62c-0.199-0.509-0.36-1.042-0.664-1.502
			c-0.239-0.5-0.64-0.891-0.992-1.306c-0.419-0.34-0.806-0.724-1.339-0.967c-0.962-0.555-2.08-0.821-3.166-0.788
			c-1.104,0.006-2.136,0.494-3.014,1.097c-0.906,0.59-1.604,1.43-2.234,2.265c-1.235,1.711-2.07,3.595-2.752,5.401
			c-0.334,0.92-0.601,1.783-0.839,2.69c-0.229,0.858-0.413,1.761-0.628,2.583c-0.843,3.329-1.595,6.091-2.067,8.037
			C208.045,132.884,207.811,134.003,207.811,134.003z"/>
	</g>
	<g>
		<path fill="#231F20" d="M210.733,126.718c0.081-0.109,0.131-0.234,0.243-0.328c0.1-0.097,0.206-0.213,0.314-0.293
			c0.215-0.172,0.433-0.34,0.657-0.496c0.446-0.32,0.905-0.611,1.384-0.881l0.269,0.01c-0.008-0.031,0.021-0.003,0.09-0.197
			c0.049-0.157,0.084-0.37,0.09-0.576c0.018-0.426-0.018-0.867-0.052-1.311c-0.084-0.894-0.19-1.823-0.218-2.751
			c-0.035-0.93-0.007-1.877,0.169-2.814c0.17-0.935,0.501-1.867,1.057-2.669c0.55-0.81,1.386-1.398,2.283-1.697l0.349-0.119
			l0.337-0.064c0.222-0.05,0.446-0.096,0.696-0.09c0.243-0.016,0.483-0.014,0.719,0.031l0.355,0.048l0.342,0.114
			c0.917,0.314,1.639,1.03,2.141,1.832c0.5,0.815,0.801,1.735,0.963,2.67c0.163,0.938,0.156,1.9,0.04,2.848l-0.119,0.716
			l-0.156,0.668c-0.118,0.45-0.242,0.916-0.389,1.355c-0.568,1.779-1.332,3.51-2.464,5.052c-0.579,0.755-1.214,1.521-2.186,1.988
			l-0.381,0.15c-0.139,0.032-0.283,0.053-0.425,0.075c-0.311,0.026-0.464,0.014-0.75-0.009c-0.508-0.045-0.962-0.146-1.416-0.253
			c-0.869-0.206-1.805-0.565-2.419-0.131c-0.304,0.204-0.481,0.635-0.705,1.042l-0.653,1.211l-0.092-0.041l0.463-1.296
			c0.081-0.217,0.15-0.428,0.242-0.649c0.097-0.23,0.229-0.463,0.437-0.643c0.418-0.378,1.009-0.45,1.484-0.418
			c0.49,0.027,0.95,0.11,1.397,0.183c0.441,0.078,0.89,0.143,1.296,0.154c0.168,0.01,0.478,0.001,0.618-0.028l0.247-0.059l0.25-0.12
			c0.666-0.375,1.244-1.066,1.746-1.767c0.987-1.445,1.771-3.075,2.379-4.755c0.157-0.423,0.282-0.838,0.412-1.269l0.18-0.663
			l0.136-0.632c0.165-0.859,0.202-1.743,0.137-2.62c-0.068-0.875-0.268-1.752-0.671-2.534c-0.388-0.785-1.037-1.449-1.854-1.753
			c-0.807-0.323-1.749-0.219-2.56,0.113c-0.824,0.319-1.482,0.941-1.898,1.686c-0.426,0.747-0.616,1.609-0.73,2.475
			c-0.108,0.871-0.133,1.761-0.124,2.659c0.011,0.902,0.084,1.795,0.113,2.727c0.019,0.469,0.017,0.943-0.052,1.43
			c-0.035,0.244-0.088,0.493-0.203,0.756c-0.074,0.133-0.124,0.269-0.313,0.391c-0.155,0.123-0.423,0.145-0.626,0.025l0.269,0.01
			c-0.481,0.226-0.967,0.46-1.446,0.699c-0.24,0.12-0.473,0.25-0.702,0.386c-0.118,0.067-0.208,0.139-0.322,0.208
			c-0.116,0.058-0.197,0.181-0.296,0.272L210.733,126.718z"/>
	</g>
	<g>
		<path fill="#231F20" d="M214.058,120.385c0,0-0.012-0.054-0.034-0.155c-0.012-0.104-0.061-0.242-0.051-0.442
			c0.02-0.206,0.044-0.486,0.186-0.75c0.116-0.279,0.352-0.555,0.651-0.779c0.307-0.218,0.685-0.378,1.093-0.432
			c0.409-0.045,0.838,0.019,1.241,0.151c0.405,0.132,0.797,0.289,1.185,0.474c0.389,0.179,0.781,0.396,1.134,0.708
			c0.092,0.098,0.153,0.132,0.272,0.288l0.177,0.264c0.105,0.24,0.188,0.536,0.197,0.757c0.045,0.479-0.008,0.935-0.118,1.355
			c-0.1,0.425-0.279,0.812-0.492,1.151c-0.219,0.34-0.476,0.633-0.769,0.861c-0.295,0.219-0.615,0.394-0.946,0.423
			c-0.314,0.049-0.611-0.021-0.791-0.137c-0.202-0.089-0.295-0.23-0.372-0.303c-0.067-0.08-0.104-0.123-0.104-0.123l0.064-0.076
			c0,0,0.052,0.015,0.147,0.042c0.094,0.022,0.215,0.096,0.381,0.078c0.157,0.015,0.332-0.022,0.503-0.115
			c0.17-0.08,0.346-0.241,0.51-0.443c0.172-0.196,0.322-0.456,0.475-0.732c0.13-0.291,0.29-0.591,0.397-0.925
			c0.123-0.328,0.211-0.683,0.23-1.029c0.017-0.193,0.008-0.305,0.008-0.468l-0.085-0.306c-0.002-0.014-0.072-0.143-0.106-0.213
			c-0.194-0.315-0.478-0.629-0.845-0.784c-0.353-0.181-0.752-0.247-1.125-0.215c-0.374,0.007-0.713,0.115-1.014,0.179
			c-0.298,0.08-0.571,0.155-0.789,0.284c-0.226,0.115-0.408,0.262-0.548,0.421c-0.154,0.16-0.235,0.317-0.329,0.46
			c-0.085,0.152-0.123,0.309-0.169,0.398c-0.043,0.094-0.065,0.144-0.065,0.144L214.058,120.385z"/>
	</g>
	<g>
		<path fill="#231F20" d="M155.801,141.635c0,0,0.245-0.044,0.673-0.097c0.428-0.043,1.04-0.133,1.774-0.189
			c1.468-0.127,3.426-0.21,5.384-0.214c1.958,0.003,3.916,0.085,5.384,0.212c0.734,0.056,1.346,0.147,1.774,0.19
			c0.428,0.053,0.673,0.097,0.673,0.097s-0.245,0.044-0.673,0.097c-0.428,0.043-1.04,0.134-1.774,0.19
			c-1.468,0.127-3.426,0.209-5.384,0.212c-1.958-0.003-3.916-0.087-5.384-0.214c-0.734-0.056-1.346-0.146-1.774-0.189
			C156.045,141.679,155.801,141.635,155.801,141.635z"/>
	</g>
	<g>
		<path fill="#231F20" d="M176.104,141.65c-1.214-0.368-2.423-0.724-3.623-1.119l-3.705-1.177c-0.615-0.193-1.23-0.405-1.842-0.57
			c-0.303-0.083-0.628-0.193-0.875-0.232l-0.198-0.044c-0.014-0.008-0.109-0.016-0.056-0.024l-0.121,0.016l-0.482,0.063
			c-0.328,0.029-0.642,0.078-0.939,0.15l-0.919,0.173l-1.892,0.415l-0.1,0.022l-0.068-0.024c-0.703-0.249-1.409-0.515-2.123-0.725
			c-0.357-0.103-0.718-0.229-1.066-0.285c-0.162-0.022-0.385-0.094-0.498-0.077c-0.107,0.017-0.138,0.07-0.204,0.1
			c-0.065,0.041-0.142,0.104-0.212,0.155c-0.561,0.469-1.062,1.033-1.559,1.588c-0.5,0.555-0.96,1.149-1.418,1.738l0.02-0.284
			c0.601,0.901,1.242,1.782,1.895,2.639c0.325,0.428,0.658,0.853,1.006,1.238c0.17,0.184,0.362,0.388,0.52,0.492
			c0.049,0.044,0.069,0.042,0.067,0.042c0.006,0-0.004,0.014,0.014,0.013l0.101,0.015l0.39,0.047
			c2.134,0.216,4.316,0.323,6.463,0.373c1.072,0.021,2.153,0.02,3.177-0.102c0.242-0.041,0.512-0.069,0.716-0.141
			c0.098-0.041,0.224-0.056,0.303-0.111l0.356-0.199l1.425-0.798L176.104,141.65z M176.253,141.676
			c-0.83,0.711-1.683,1.393-2.543,2.066c-0.875,0.655-1.753,1.336-2.659,1.96l-1.378,0.879l-0.345,0.22
			c-0.146,0.102-0.298,0.135-0.449,0.203c-0.305,0.121-0.582,0.162-0.872,0.228c-1.134,0.184-2.239,0.203-3.343,0.204
			c-2.209-0.033-4.378-0.245-6.571-0.53l-0.419-0.065c-0.056,0.016-0.492-0.145-0.556-0.245c-0.281-0.221-0.445-0.437-0.634-0.66
			c-0.357-0.443-0.672-0.896-0.98-1.354c-0.602-0.924-1.151-1.868-1.697-2.82l-0.093-0.162l0.113-0.122l1.533-1.665
			c0.516-0.552,1.04-1.092,1.631-1.586c0.081-0.061,0.148-0.12,0.24-0.181c0.099-0.057,0.215-0.132,0.299-0.144
			c0.251-0.035,0.402,0.044,0.608,0.062c0.396,0.049,0.753,0.15,1.123,0.235c0.739,0.166,1.467,0.352,2.199,0.542l-0.168-0.002
			l1.871-0.589c0.643-0.166,1.319-0.39,1.952-0.465l0.481-0.071l0.121-0.018c0.133,0,0.117,0.013,0.183,0.02l0.28,0.049
			c0.396,0.061,0.686,0.166,1.005,0.264c0.637,0.188,1.245,0.413,1.863,0.624c1.226,0.444,2.436,0.922,3.635,1.427
			c1.2,0.496,2.396,1.023,3.559,1.608l0.071,0.036L176.253,141.676z"/>
	</g>
	<g>
		<path fill="#231F20" d="M146.377,109.926l-2.095-4.957c0,0,2.767-3.209,3.906-3.209s9.44,3.925,9.44,3.925l-1.218,0.672
			c0,0-9.257,0.64-9.392,1.461C146.883,108.64,146.377,109.926,146.377,109.926z"/>
		<path fill="#231F20" d="M146.331,109.945c-0.902-1.566-1.697-3.177-2.438-4.811l-0.107-0.236l0.177-0.205
			c0.853-0.991,1.721-1.955,2.849-2.703c0.287-0.182,0.582-0.357,0.95-0.473c0.402-0.154,0.844,0.021,1.122,0.125
			c0.615,0.241,1.195,0.511,1.787,0.767c1.178,0.513,2.362,1,3.567,1.45c1.2,0.458,2.4,0.917,3.58,1.428l0.783,0.339l-0.759,0.445
			l-1.201,0.704l-0.078,0.045l-0.12,0.013c-1.945,0.207-3.897,0.402-5.84,0.567c-0.968,0.08-1.948,0.194-2.865,0.368
			c-0.112,0.024-0.222,0.053-0.318,0.086c-0.093,0.011-0.189,0.129-0.137,0.014c-0.079,0.239-0.14,0.473-0.229,0.708
			c-0.197,0.476-0.389,0.932-0.63,1.368l-0.045,0.083L146.331,109.945z M146.367,109.743c0.101-0.425,0.203-0.849,0.279-1.26
			l0.112-0.727c0.136-0.355,0.298-0.345,0.417-0.439c0.128-0.067,0.251-0.119,0.374-0.166c0.975-0.365,1.954-0.505,2.93-0.695
			c1.957-0.338,3.922-0.493,5.898-0.576l-0.197,0.059l1.236-0.641l0.024,0.784l-3.402-1.782c-1.133-0.598-2.294-1.14-3.49-1.592
			c-0.597-0.222-1.209-0.424-1.817-0.563c-0.324-0.067-0.541-0.13-0.751-0.013c-0.233,0.107-0.479,0.29-0.709,0.483
			c-0.917,0.799-1.818,1.71-2.667,2.628l0.069-0.441C145.306,106.421,145.882,108.063,146.367,109.743z"/>
	</g>
	<g>
		<path fill="#231F20" d="M158.656,108.854c0,0-0.006,0.125-0.019,0.357c-0.022,0.233-0.091,0.582-0.241,0.999
			c-0.164,0.413-0.418,0.906-0.841,1.381c-0.42,0.472-0.982,0.949-1.691,1.303c-0.705,0.359-1.552,0.579-2.451,0.625
			c-0.23-0.002-0.441,0.006-0.694-0.006c-0.222-0.026-0.429-0.035-0.671-0.082c-0.479-0.079-0.939-0.186-1.395-0.356
			c-0.907-0.332-1.784-0.825-2.524-1.507c-0.732-0.677-1.321-1.624-1.393-2.716c-0.075-1.077,0.434-2.194,1.194-2.925
			c0.758-0.753,1.704-1.249,2.654-1.537c0.947-0.289,1.947-0.373,2.815-0.289c0.941,0.082,1.761,0.316,2.473,0.686
			c0.708,0.363,1.269,0.843,1.688,1.318c0.423,0.477,0.679,0.971,0.841,1.385c0.15,0.421,0.215,0.764,0.236,0.999
			C158.65,108.727,158.656,108.854,158.656,108.854z M158.556,108.851c0,0-0.011-0.12-0.032-0.347
			c-0.029-0.225-0.101-0.558-0.295-0.935c-0.181-0.384-0.533-0.775-0.981-1.136c-0.454-0.36-1.043-0.651-1.705-0.87
			c-0.656-0.212-1.421-0.38-2.182-0.419c-0.833-0.034-1.649,0.031-2.495,0.244c-0.838,0.202-1.661,0.601-2.332,1.181
			c-0.679,0.579-1.162,1.362-1.251,2.285c-0.058,0.908,0.347,1.86,1.054,2.494c0.689,0.651,1.58,1.052,2.461,1.21
			c0.437,0.094,0.885,0.131,1.296,0.142c0.202,0.013,0.44-0.011,0.654-0.011c0.203-0.015,0.403-0.029,0.601-0.043
			c0.803-0.075,1.54-0.257,2.203-0.481c0.661-0.228,1.25-0.522,1.702-0.885c0.448-0.362,0.801-0.754,0.98-1.14
			c0.194-0.38,0.262-0.708,0.291-0.935C158.546,108.973,158.556,108.851,158.556,108.851z"/>
	</g>
	<g>
		<path fill="#231F20" d="M243.736,218.104c-0.017,0.031-0.239-0.691-0.967-1.052c-0.36-0.166-0.81-0.185-1.18,0.024
			c-0.188,0.1-0.332,0.274-0.473,0.459c-0.06,0.104-0.129,0.2-0.17,0.323c-0.018,0.046-0.064,0.142-0.06,0.146l-0.06,0.226
			c-0.089,0.389,0.027,0.951,0.263,1.38c0.234,0.446,0.578,0.809,0.913,1.074c0.17,0.131,0.34,0.241,0.5,0.321
			c0.159,0.088,0.309,0.145,0.435,0.193c0.254,0.086,0.414,0.127,0.414,0.127s-0.153,0.045-0.44,0.07
			c-0.286,0.021-0.715-0.014-1.19-0.212c-0.473-0.195-0.994-0.556-1.377-1.107c-0.388-0.552-0.646-1.269-0.479-2.117l0.067-0.224
			c0.045-0.146,0.078-0.186,0.119-0.283c0.068-0.171,0.178-0.328,0.283-0.483c0.229-0.302,0.539-0.55,0.889-0.691
			c0.714-0.291,1.461-0.063,1.865,0.3c0.419,0.367,0.568,0.793,0.616,1.084c0.038,0.142,0.018,0.251,0.027,0.326
			C243.735,218.064,243.736,218.104,243.736,218.104z"/>
	</g>
	<g>
		<path fill="#FFFFFF" d="M185.809,285c0,0-3.07,29.9-0.167,35.039c0,0,18.848-1.201,25.3,0c6.454,1.201,49.862-0.49,70.097,16.594
			c13.59,11.471,10.867,10.844,10.867,10.844l-6.814-27.668l-4.053-6.801L185.809,285z"/>
		<path fill="#231F20" d="M185.809,285c-0.53,5.848-0.931,11.709-1.142,17.574c-0.099,2.933-0.15,5.868-0.071,8.797
			c0.042,1.465,0.117,2.928,0.272,4.379c0.079,0.726,0.179,1.447,0.323,2.157c0.15,0.703,0.332,1.415,0.661,2.013l-0.225-0.121
			c4.759-0.305,9.522-0.5,14.292-0.565c2.385-0.023,4.772-0.014,7.162,0.11c1.195,0.06,2.391,0.155,3.588,0.346
			c1.174,0.199,2.325,0.271,3.521,0.345c4.747,0.253,9.517,0.426,14.273,0.767c4.758,0.335,9.51,0.794,14.238,1.459
			c2.364,0.327,4.722,0.71,7.068,1.157c2.349,0.437,4.683,0.956,7.003,1.532c2.316,0.593,4.621,1.239,6.888,2.012
			c2.278,0.736,4.501,1.642,6.7,2.597c2.172,1.017,4.325,2.091,6.356,3.385c0.521,0.299,1.009,0.654,1.507,0.992
			c0.489,0.352,1.008,0.66,1.473,1.046c0.952,0.74,1.902,1.487,2.798,2.263c1.821,1.544,3.629,3.101,5.397,4.711
			c0.883,0.808,1.751,1.631,2.596,2.49c0.423,0.43,0.837,0.87,1.236,1.34c0.197,0.239,0.394,0.479,0.577,0.76
			c0.09,0.146,0.182,0.286,0.26,0.513c0.019,0.116,0.119,0.276-0.046,0.612c-0.093,0.163-0.286,0.262-0.399,0.277
			c-0.134,0.023-0.194,0.021-0.318-0.002l-0.285-0.054l-0.073-0.3l-6.75-27.684l0.046,0.113l-4.036-6.811l0.228,0.177
			l-47.582-14.115c-7.935-2.341-15.86-4.709-23.776-7.108L185.809,285z M185.809,285l23.855,6.841
			c7.955,2.269,15.9,4.568,23.839,6.896l47.647,13.893l0.147,0.043l0.08,0.134l4.068,6.791l0.031,0.053l0.016,0.061l6.879,27.651
			l-0.358-0.353c-0.051-0.008-0.035-0.009-0.097-0.001c-0.041,0.003-0.161,0.062-0.22,0.159c-0.094,0.201-0.028,0.201-0.053,0.179
			c-0.019-0.056-0.082-0.173-0.151-0.276c-0.143-0.218-0.325-0.44-0.508-0.658c-0.375-0.436-0.779-0.861-1.194-1.278
			c-0.828-0.836-1.699-1.641-2.571-2.443c-1.744-1.607-3.537-3.171-5.34-4.719c-1.795-1.575-3.652-2.984-5.651-4.251
			c-1.983-1.276-4.097-2.343-6.232-3.354c-2.165-0.951-4.355-1.855-6.607-2.595c-2.239-0.774-4.521-1.426-6.817-2.024
			c-2.3-0.582-4.615-1.108-6.948-1.554c-2.331-0.455-4.675-0.846-7.027-1.183c-4.703-0.684-9.438-1.162-14.182-1.518
			c-4.745-0.362-9.497-0.556-14.262-0.831c-1.181-0.076-2.41-0.163-3.585-0.368c-1.154-0.189-2.337-0.291-3.52-0.354
			c-2.366-0.135-4.745-0.156-7.123-0.145c-4.756,0.038-9.516,0.228-14.267,0.485l-0.156,0.009l-0.069-0.131
			c-0.37-0.698-0.537-1.433-0.685-2.162c-0.137-0.732-0.229-1.467-0.298-2.202c-0.137-1.471-0.192-2.942-0.214-4.414
			c-0.04-2.941,0.052-5.88,0.191-8.814C184.717,296.696,185.199,290.841,185.809,285z"/>
	</g>
	<g>
		<polygon fill="#FFFFFF" points="178.274,186.876 155.531,221.909 150.082,354.475 165.973,354.475 		"/>
		<path fill="#231F20" d="M178.274,186.876l-22.666,35.083l0.015-0.046c-0.397,11.05-0.733,22.102-1.186,33.148l-1.289,33.145
			l-2.578,66.288l-0.489-0.51l15.891,0.011l-0.479,0.444l6.309-83.787l3.168-41.894L178.274,186.876z M178.274,186.876
			l-2.847,41.917l-2.983,41.906l-5.993,83.811l-0.032,0.444h-0.447l-15.891,0.011h-0.512l0.022-0.511l2.871-66.276l1.436-33.139
			c0.456-11.047,1.028-22.089,1.539-33.134l0.001-0.025l0.014-0.021L178.274,186.876z"/>
	</g>
	<g>
		<path fill="#FFFFFF" d="M170.77,186.876l-26.843,29.48c0,0-1.538,18.973,0,22.91c1.54,3.938,3.078,19.329,3.078,25.415
			s2.309,17.184,1.538,24.699c-0.769,7.518-0.769,9.309-1.152,15.395c-0.386,6.084-6.368,34.363-4.146,37.586
			c2.222,3.221-0.494,11.813-0.494,11.813h10.408c0,0,1.154-42.24,1.54-47.969c0.383-5.727,0.359-33.314,2.295-39.389
			C158.928,260.744,181.156,192.478,170.77,186.876z"/>
		<path fill="#231F20" d="M170.77,186.876l-26.686,29.623l0.054-0.125c-0.21,2.883-0.359,5.774-0.482,8.663
			c-0.116,2.889-0.191,5.781-0.116,8.665c0.044,1.438,0.112,2.886,0.349,4.284c0.062,0.347,0.132,0.695,0.245,1.012l0.344,1.03
			c0.198,0.717,0.374,1.435,0.517,2.145c0.582,2.854,0.961,5.73,1.308,8.61c0.338,2.881,0.609,5.768,0.807,8.662
			c0.103,1.447,0.175,2.897,0.21,4.354c0.015,1.455,0.055,2.883,0.193,4.315c0.246,2.873,0.623,5.745,0.929,8.628
			c0.302,2.883,0.587,5.776,0.617,8.694c0.039,1.452-0.051,2.935-0.176,4.372l-0.371,4.327c-0.278,2.884-0.439,5.771-0.601,8.658
			c-0.079,2.891-0.567,5.814-1.009,8.657l-1.391,8.574c-0.459,2.857-0.905,5.716-1.302,8.578c-0.391,2.861-0.753,5.731-0.926,8.597
			c-0.067,1.419-0.136,2.89,0.108,4.206c0.035,0.159,0.076,0.313,0.127,0.448c0.047,0.13,0.111,0.223,0.218,0.399
			c0.094,0.14,0.191,0.34,0.283,0.534c0.079,0.189,0.152,0.371,0.209,0.56c0.23,0.752,0.329,1.513,0.359,2.263
			c0.074,3.008-0.549,5.883-1.362,8.713l-0.475-0.647l10.408,0.016l-0.482,0.469l0.649-21.282
			c0.252-7.096,0.432-14.184,0.751-21.285l0.227-5.325c0.107-1.754,0.148-3.531,0.201-5.302l0.284-10.644
			c0.108-3.548,0.235-7.097,0.427-10.645c0.205-3.548,0.417-7.097,0.96-10.634c0.147-0.878,0.332-1.78,0.616-2.635l0.814-2.533
			l1.601-5.073c1.055-3.387,2.083-6.781,3.084-10.185c2.007-6.804,3.882-13.646,5.625-20.521c1.731-6.877,3.316-13.798,4.441-20.801
			c0.549-3.501,0.996-7.026,1.097-10.571c0.042-1.77,0.003-3.55-0.286-5.299c-0.146-0.872-0.363-1.738-0.72-2.549
			C172.092,188.073,171.554,187.311,170.77,186.876z M170.77,186.876c0.789,0.425,1.338,1.185,1.704,1.988
			c0.368,0.811,0.595,1.678,0.75,2.551c0.309,1.752,0.367,3.537,0.344,5.312c-0.063,3.554-0.473,7.09-0.984,10.603
			c-1.051,7.026-2.563,13.974-4.222,20.877c-1.667,6.902-3.558,13.749-5.529,20.569c-0.989,3.41-2.007,6.812-3.049,10.205
			l-1.584,5.084l-0.805,2.537c-0.272,0.831-0.44,1.673-0.584,2.545c-0.522,3.481-0.722,7.03-0.913,10.565
			c-0.178,3.54-0.292,7.085-0.386,10.63l-0.243,10.642c-0.046,1.776-0.08,3.548-0.183,5.336l-0.206,5.312
			c-0.292,7.079-0.445,14.183-0.67,21.272l-0.569,21.282l-0.012,0.47h-0.47l-10.408,0.016h-0.665l0.19-0.648
			c0.795-2.714,1.414-5.579,1.35-8.373c-0.025-0.695-0.116-1.382-0.308-2.017c-0.046-0.158-0.11-0.313-0.167-0.457
			c-0.065-0.133-0.116-0.263-0.224-0.425c-0.08-0.132-0.216-0.344-0.292-0.556c-0.077-0.204-0.127-0.4-0.169-0.596
			c-0.273-1.539-0.18-2.991-0.11-4.455c0.188-2.915,0.563-5.794,0.966-8.667c0.409-2.872,0.867-5.733,1.337-8.592l1.422-8.567
			c0.456-2.874,0.942-5.676,1.033-8.581c0.173-2.894,0.346-5.787,0.635-8.667c0.219-2.891,0.631-5.764,0.577-8.627
			c-0.019-2.875-0.291-5.754-0.581-8.628c-0.295-2.877-0.661-5.749-0.898-8.647c-0.134-1.45-0.17-2.919-0.179-4.358
			c-0.03-1.439-0.097-2.882-0.193-4.323c-0.187-2.883-0.445-5.764-0.771-8.635c-0.334-2.869-0.704-5.741-1.268-8.563
			c-0.14-0.71-0.307-1.399-0.49-2.079l-0.34-1.031c-0.127-0.366-0.198-0.731-0.262-1.096c-0.24-1.459-0.301-2.914-0.341-4.367
			c-0.064-2.906,0.022-5.805,0.149-8.701c0.129-2.896,0.329-5.785,0.565-8.675l0.006-0.073l0.049-0.053L170.77,186.876z"/>
	</g>
	<g>
		<path fill="#020101" d="M169.325,190.212c0,0,0.063,11.471-1.897,15.766c-1.961,4.296-2.216,22.192-2.216,22.192
			s0.898,80.899,0,83.048c-0.9,2.146-3.591,36.512-2.822,41.164c0.769,4.654-0.136,1.791-0.136,1.791h12.675
			c0,0-7.418-28.639-3.693-42.955c3.809-14.631,24.478-100.591,24.478-100.591s-5.641-18.347-13.323-18.861
			C174.711,191.254,169.325,190.212,169.325,190.212z"/>
		<path fill="#231F20" d="M169.325,190.212c0.001,3.465-0.133,6.937-0.557,10.381c-0.23,1.717-0.505,3.445-1.131,5.081
			c-0.694,1.586-0.94,3.313-1.19,5.021c-0.455,3.43-0.663,6.892-0.823,10.351c-0.146,3.466-0.259,6.915-0.152,10.383l0.244,20.798
			l0.173,20.798l0.074,20.8l-0.06,10.403c-0.025,1.735-0.052,3.469-0.128,5.211c-0.023,0.438-0.042,0.87-0.088,1.319
			c-0.008,0.108-0.03,0.233-0.045,0.349c-0.009,0.063-0.036,0.155-0.058,0.229c-0.001,0.018-0.027,0.094-0.04,0.139
			c-0.075,0.216-0.085,0.387-0.134,0.581c-0.15,0.834-0.254,1.695-0.361,2.55c-0.403,3.432-0.707,6.884-0.992,10.335
			c-0.282,3.452-0.533,6.907-0.75,10.364c-0.218,3.456-0.406,6.915-0.522,10.371c-0.052,1.727-0.096,3.459-0.043,5.167
			c0.01,0.861,0.136,1.639,0.28,2.53c0.062,0.438,0.126,0.861,0.15,1.343c0.002,0.063,0.003,0.126,0,0.204
			c-0.002,0.039-0.005,0.082-0.016,0.143c-0.005,0.029-0.015,0.071-0.035,0.125c-0.045,0.062-0.032,0.187-0.335,0.313
			c-0.344,0.06-0.433-0.091-0.48-0.114c-0.056-0.05-0.073-0.076-0.095-0.104c-0.038-0.052-0.06-0.09-0.078-0.124l-0.089-0.185
			c-0.098-0.229-0.169-0.434-0.242-0.656l-0.203-0.618l0.656-0.001l12.675-0.016l-0.476,0.614
			c-1.502-5.967-2.642-11.997-3.521-18.078c-0.832-6.079-1.426-12.229-1.082-18.4c0.089-1.541,0.245-3.083,0.526-4.611
			c0.272-1.539,0.687-3.018,1.042-4.503l2.203-8.917l4.405-17.836l8.778-35.678l8.718-35.691l0.003,0.104
			c-0.934-2.942-2.074-5.836-3.42-8.62c-1.365-2.766-2.917-5.496-5.075-7.711c-1.083-1.081-2.363-2.042-3.865-2.397
			c-0.744-0.159-1.533-0.173-2.301-0.261l-2.317-0.214c-1.547-0.117-3.084-0.354-4.624-0.543
			C172.384,190.741,170.852,190.488,169.325,190.212z M169.325,190.212c1.529,0.26,3.063,0.497,4.604,0.678
			c1.542,0.173,3.077,0.394,4.626,0.494l2.32,0.189c0.773,0.081,1.546,0.084,2.323,0.24c1.548,0.35,2.863,1.318,3.971,2.401
			c2.21,2.222,3.799,4.954,5.201,7.721c1.384,2.788,2.557,5.673,3.531,8.635l0.016,0.049l-0.013,0.055l-8.516,35.745l-8.645,35.713
			l-4.338,17.852l-2.169,8.927c-0.352,1.493-0.758,2.97-1.013,4.447c-0.268,1.485-0.415,2.997-0.497,4.512
			c-0.316,6.07,0.293,12.179,1.144,18.216c0.441,3.021,0.961,6.031,1.556,9.026c0.598,2.993,1.248,5.985,1.979,8.939l0.152,0.615
			l-0.628-0.001l-12.675-0.016l0.454-0.619c0.061,0.189,0.132,0.395,0.205,0.564l0.051,0.108c0.006,0.014,0.013,0.021,0.007,0.014
			c-0.005-0.005-0.006-0.011-0.042-0.043c-0.028-0.006-0.091-0.138-0.407-0.085c-0.276,0.116-0.251,0.214-0.285,0.251
			c-0.011,0.029-0.014,0.045-0.014,0.047c-0.001,0.008,0-0.004,0.001-0.019v-0.121c-0.017-0.384-0.077-0.82-0.136-1.239
			c-0.131-0.819-0.275-1.758-0.279-2.634c-0.047-1.757,0.004-3.491,0.063-5.229c0.129-3.472,0.331-6.936,0.562-10.396
			c0.231-3.462,0.496-6.921,0.791-10.377c0.298-3.457,0.615-6.91,1.034-10.362c0.111-0.864,0.218-1.725,0.378-2.597
			c0.052-0.227,0.093-0.49,0.162-0.684l0.053-0.173l0.019-0.086c0.012-0.1,0.03-0.188,0.039-0.296
			c0.045-0.412,0.066-0.846,0.09-1.273c0.082-1.721,0.115-3.454,0.147-5.185l0.099-10.394l0.004-20.795l-0.23-41.594
			c-0.069-3.464,0.082-6.947,0.265-10.404c0.198-3.463,0.443-6.928,0.938-10.366c0.269-1.707,0.538-3.455,1.257-5.053
			c0.632-1.6,0.929-3.323,1.176-5.031C169.116,197.146,169.289,193.677,169.325,190.212z"/>
	</g>
	<g>
		<g>
			<path fill="#FFFFFF" d="M224.447,159.433l45.129,12.894l15.516,147.482l8.463,34.365H174.929c0,0-10.274-40.582-6.642-58.191
				C171.919,278.371,224.447,159.433,224.447,159.433z"/>
			<path fill="#231F20" d="M224.447,159.433l45.174,12.736l0.106,0.03l0.012,0.111l7.903,73.726l7.847,73.731l-0.01-0.054
				l8.504,34.355l0.136,0.547l-0.564,0.001l-59.313,0.044l-59.313-0.072h-0.325l-0.077-0.313c-1.027-4.192-1.954-8.397-2.807-12.622
				c-0.845-4.226-1.647-8.461-2.309-12.721c-0.688-4.255-1.254-8.531-1.667-12.826c-0.437-4.292-0.621-8.613-0.545-12.938
				l0.193-3.243c0.085-1.08,0.298-2.152,0.442-3.228l0.127-0.823l0.216-0.777l0.433-1.555c0.296-1.035,0.548-2.08,0.929-3.096
				c0.711-2.041,1.391-4.097,2.128-6.123l2.272-6.049c1.533-4.024,3.133-8.022,4.717-12.026l4.869-11.962
				c6.559-15.922,13.293-31.769,20.155-47.561C210.534,190.932,217.452,175.165,224.447,159.433z M224.447,159.433
				c-6.884,15.781-13.69,31.595-20.433,47.437l-10.051,23.788l-4.981,11.912l-4.922,11.936l-4.838,11.97
				c-1.573,4.005-3.162,8.004-4.684,12.027l-2.254,6.045c-0.729,2.02-1.396,4.053-2.098,6.078c-0.374,1.003-0.625,2.054-0.918,3.089
				l-0.429,1.556l-0.214,0.778l-0.114,0.772c-0.138,1.057-0.345,2.103-0.426,3.167l-0.183,3.202
				c-0.063,4.281,0.127,8.574,0.574,12.846c0.421,4.273,0.996,8.534,1.692,12.775c0.67,4.245,1.48,8.469,2.333,12.682
				c0.861,4.211,1.798,8.413,2.83,12.579l-0.402-0.313l59.313-0.072l59.313,0.044l-0.429,0.548l-8.422-34.375l-0.007-0.027
				l-0.003-0.026l-7.669-73.751l-7.612-73.756l0.118,0.141L224.447,159.433z"/>
		</g>
		<g>
			<path fill="#050403" d="M178.033,178.773h-8.718c0,0-0.257,3.561,0,6.672c0.256,3.113-0.115,6.215-0.115,6.215
				s4.475-0.955,8.833,0c4.358,0.955,5.898-4.783,5.898-4.783l-4.617-8.104H178.033z"/>
			<path fill="#FFFFFF" d="M178.033,178.773c-2.906,0.015-5.812,0.036-8.718,0.139l0.139-0.129l-0.023,1.607
				c-0.023,0.535,0.021,1.07,0.046,1.604l0.165,3.198l0.108,1.621c0.042,0.535,0.079,1.072,0.063,1.624
				c-0.011,0.546,0.006,1.101-0.029,1.643c-0.032,0.544-0.046,1.085-0.107,1.636l-0.577-0.527c0.742-0.143,1.458-0.253,2.193-0.32
				c0.729-0.087,1.464-0.108,2.199-0.122l1.103,0.019c0.368-0.001,0.735,0.055,1.102,0.079c0.367,0.037,0.735,0.055,1.098,0.135
				l1.09,0.203c0.287,0.056,0.701,0.119,1.028,0.154c0.301-0.016,0.605,0.006,0.925-0.086c0.161-0.021,0.316-0.067,0.464-0.137
				c0.149-0.065,0.311-0.104,0.447-0.2c0.293-0.153,0.559-0.356,0.82-0.572c1.002-0.917,1.72-2.201,2.171-3.519l0.019,0.149
				c-1.455-2.749-2.912-5.497-4.452-8.197l0.007,0.004L178.033,178.773z M178.033,178.773l1.281-0.008h0.004l0.002,0.004
				c1.538,2.702,3.159,5.356,4.782,8.009l0.041,0.067l-0.022,0.083c-0.189,0.724-0.463,1.402-0.802,2.063
				c-0.343,0.656-0.765,1.283-1.3,1.83c-0.279,0.263-0.571,0.515-0.908,0.718c-0.156,0.12-0.345,0.186-0.522,0.273
				c-0.176,0.093-0.361,0.161-0.557,0.202c-0.374,0.128-0.795,0.15-1.214,0.167c-0.388-0.031-0.689-0.063-1.113-0.128l-1.041-0.155
				c-0.344-0.067-0.7-0.063-1.05-0.096c-0.352-0.019-0.7-0.069-1.054-0.063l-1.059-0.005c-0.353-0.001-0.706,0.032-1.059,0.046
				c-0.354,0.007-0.706,0.04-1.058,0.072c-0.702,0.053-1.413,0.156-2.087,0.276l-0.655,0.117l0.077-0.644
				c0.063-0.517,0.106-1.05,0.153-1.578c0.053-0.53,0.054-1.052,0.084-1.58c0.038-0.523,0.042-1.06,0.029-1.599l-0.01-1.602
				l0.026-3.25c0.007-0.54-0.005-1.08,0.051-1.618l0.12-1.614l0.01-0.134l0.129,0.005
				C172.221,178.737,175.126,178.758,178.033,178.773z"/>
		</g>
		<g>
			<path fill="#231F20" d="M174.929,306.564c0,0-0.014-0.12,0.042-0.344c0.02-0.12,0.078-0.237,0.147-0.38
				c0.064-0.148,0.149-0.311,0.281-0.449c0.125-0.145,0.25-0.331,0.421-0.469c0.172-0.134,0.355-0.281,0.556-0.416
				c0.393-0.293,0.879-0.43,1.341-0.641c0.237-0.087,0.484-0.113,0.722-0.172c0.237-0.056,0.478-0.081,0.705-0.121
				c0.456-0.097,0.891-0.037,1.258-0.028c0.737,0.038,1.219,0.154,1.219,0.154s-0.465,0.221-1.149,0.415
				c-0.171,0.051-0.355,0.104-0.552,0.147c-0.198,0.038-0.398,0.106-0.604,0.175c-0.208,0.062-0.417,0.142-0.636,0.193
				c-0.215,0.063-0.446,0.1-0.653,0.186c-0.21,0.077-0.42,0.154-0.627,0.229c-0.205,0.079-0.428,0.122-0.6,0.23
				c-0.181,0.097-0.369,0.173-0.547,0.251c-0.17,0.086-0.307,0.193-0.458,0.275c-0.152,0.084-0.272,0.176-0.375,0.268
				c-0.103,0.091-0.216,0.163-0.274,0.24C175.003,306.452,174.93,306.564,174.929,306.564z"/>
		</g>
		<g>
			<path fill="#231F20" d="M216.495,334.844l13.565-2.063l13.574-2.004l13.577-1.979l13.585-1.919l0.326-0.046l0.143,0.296
				c1.703,3.519,3.344,7.058,4.81,10.692c0.363,0.91,0.713,1.828,1.028,2.766c0.157,0.469,0.305,0.943,0.43,1.434
				c0.12,0.496,0.249,0.972,0.229,1.597l-0.04,0.265c-0.042,0.171-0.048,0.146-0.074,0.228c-0.05,0.12-0.064,0.213-0.16,0.368
				c-0.153,0.302-0.35,0.525-0.558,0.73c-0.432,0.409-0.942,0.627-1.432,0.813c-0.992,0.346-1.98,0.495-2.96,0.626
				c-1.949,0.261-3.923,0.342-5.817,0.585c-1.928,0.275-3.866,0.51-5.785,0.818l-11.485,2.061l-2.88,0.518l-2.91,0.431
				c-1.941,0.322-3.874,0.45-5.789,0.735c-1.923,0.269-3.841,0.604-5.771,0.904c-1.929,0.295-3.872,0.581-5.851,0.616
				c-0.493,0.018-0.992-0.029-1.487-0.043c-0.493-0.089-0.996-0.091-1.48-0.253c-0.984-0.202-1.933-0.721-2.634-1.46
				c-0.165-0.199-0.354-0.365-0.496-0.593l-0.391-0.618l-0.782-1.234c-0.228-0.437-0.436-0.888-0.652-1.331
				c-0.225-0.44-0.432-0.888-0.574-1.359l-0.481-1.393l-0.331-1.434c-0.129-0.475-0.183-0.962-0.246-1.447
				c-0.054-0.486-0.156-0.967-0.168-1.456C216.365,338.743,216.437,336.79,216.495,334.844z M216.495,334.844
				c0.001,1.948,0.007,3.899,0.213,5.832c0.023,0.486,0.138,0.961,0.201,1.441c0.076,0.479,0.14,0.96,0.278,1.425l0.36,1.406
				l0.509,1.357c0.15,0.461,0.363,0.893,0.592,1.315c0.223,0.426,0.432,0.856,0.663,1.277l0.812,1.216l0.406,0.607
				c0.119,0.184,0.307,0.341,0.455,0.513c0.65,0.646,1.496,1.098,2.423,1.276c0.446,0.146,0.936,0.14,1.399,0.219
				c0.479,0.004,0.953,0.044,1.434,0.019c1.921-0.062,3.841-0.371,5.757-0.693c1.916-0.327,3.832-0.692,5.766-0.992
				c1.936-0.317,3.896-0.477,5.795-0.823l2.868-0.451l2.871-0.53l11.519-2.124c1.926-0.318,3.857-0.563,5.786-0.847
				c1.968-0.261,3.896-0.348,5.81-0.613c0.948-0.129,1.897-0.286,2.746-0.589c0.414-0.158,0.817-0.343,1.097-0.611
				c0.139-0.135,0.263-0.285,0.334-0.417c0.048-0.044,0.089-0.194,0.133-0.299c0.011-0.033,0.067-0.167,0.041-0.117
				c0.002-0.033,0.007-0.064,0.014-0.097c0.018-0.352-0.081-0.84-0.195-1.284c-0.114-0.454-0.253-0.912-0.403-1.367
				c-0.301-0.911-0.641-1.816-0.995-2.718c-1.432-3.601-3.055-7.146-4.729-10.65l0.468,0.25l-13.596,1.84l-13.605,1.779
				l-13.608,1.755L216.495,334.844z"/>
		</g>
		<g>
			<path fill="#231F20" d="M216.495,334.844l-0.078-2.325l-0.001-0.042l0.043-0.007l13.566-2.226l13.58-2.143l27.181-4.132
				l0.573-0.087l-0.001,0.58l-0.007,2.863l-0.001,0.431l-0.424,0.057l-13.597,1.837c-4.532,0.612-9.063,1.231-13.602,1.803
				l-13.61,1.744L216.495,334.844z M216.495,334.844l13.559-2.112l13.572-2.015c4.523-0.682,9.053-1.315,13.581-1.956l13.585-1.922
				l-0.425,0.487l-0.007-2.863l0.572,0.493l-27.213,3.923l-13.617,1.885l-13.63,1.802l0.042-0.049L216.495,334.844z"/>
		</g>
		<g>
			<path fill="#231F20" d="M179.698,353.043c0.014,0.013,0.072-0.14,0.315-0.275c0.253-0.164,0.589-0.322,1.023-0.482
				c0.858-0.327,2.031-0.617,3.215-0.808c1.186-0.184,2.383-0.268,3.289-0.261c0.905-0.001,1.518,0.094,1.518,0.094
				s-0.572,0.239-1.442,0.476c-0.869,0.245-2.037,0.491-3.209,0.679c-1.174,0.182-2.354,0.304-3.242,0.377
				c-0.438,0.038-0.828,0.067-1.058,0.101C179.845,352.955,179.699,353.06,179.698,353.043z"/>
		</g>
		<g>
			<path fill="#FFFFFF" d="M202.265,230.077c0,0,29.49-6.682,30.004-6.443c0.513,0.24,2.435,9.547,2.435,9.547l-36.49,8.994
				l-3.077-11.107l4.052-0.512L202.265,230.077z"/>
			<path fill="#231F20" d="M202.265,230.077l9.884-2.281l9.878-2.308l4.945-1.138l2.479-0.55c0.834-0.176,1.642-0.361,2.517-0.495
				c0.07-0.006,0.082-0.018,0.2-0.021c0.062,0.001,0.126,0.008,0.187,0.02l0.044,0.01c0.039,0.021-0.055-0.042,0.092,0.051
				l0.007,0.006l0.029,0.027c0.045,0.035,0.159,0.193,0.179,0.246l0.078,0.167c0.091,0.214,0.16,0.418,0.229,0.625
				c0.135,0.411,0.253,0.82,0.368,1.23c0.229,0.82,0.44,1.642,0.646,2.465c0.395,1.649,0.764,3.3,1.12,4.957l0.092,0.424
				l-0.426,0.106c-3.038,0.761-6.069,1.552-9.113,2.287l-9.136,2.194c-3.043,0.742-6.103,1.416-9.152,2.128l-9.157,2.108
				l-0.161,0.037l-0.04-0.155c-0.957-3.721-1.943-7.435-2.958-11.14l-0.014-0.049l0.05-0.006l3.573-0.43
				C199.893,230.445,201.077,230.248,202.265,230.077z M202.265,230.077c-1.186,0.186-2.366,0.396-3.555,0.561l-3.568,0.473
				l0.037-0.055c1.036,3.699,2.101,7.392,3.195,11.074l-0.2-0.117l9.087-2.389c3.032-0.787,6.054-1.612,9.093-2.369l9.109-2.303
				c3.037-0.764,6.089-1.472,9.132-2.21l-0.334,0.53c-0.335-1.652-0.685-3.306-1.056-4.949c-0.179-0.824-0.363-1.646-0.564-2.461
				c-0.102-0.406-0.205-0.813-0.322-1.209c-0.059-0.196-0.12-0.394-0.189-0.571l-0.052-0.122c-0.029-0.039,0.034,0.022,0.01-0.02
				l-0.028-0.028l-0.008-0.007c0.142,0.087,0.041,0.027,0.073,0.048l0.005,0.009c0.008,0.011,0.019,0.017,0.028,0.016
				c0.012-0.003-0.08,0.009-0.115,0.012c-0.8,0.098-1.648,0.262-2.473,0.41l-2.488,0.473l-4.975,0.985
				c-3.313,0.674-6.631,1.327-9.932,2.058L202.265,230.077z"/>
		</g>
		<g>
			<path fill="#FFFFFF" d="M189.058,197.625c0,0-11.795-17.658-13.848-18.852c-2.052-1.194,7.693-7.398,10.77-11.934
				c3.078-4.534,9.233-10.022,12.822-13.125c3.59-3.103,6.925-8.83,6.925-8.83l10.769,10.739c0,0-6.665,12.647-9.487,15.631
				C204.188,174.238,189.058,194.999,189.058,197.625z"/>
			<path fill="#231F20" d="M189.058,197.625c-3.341-4.75-6.656-9.522-10.176-14.131c-0.876-1.154-1.768-2.298-2.708-3.385
				c-0.245-0.252-0.485-0.528-0.731-0.761l-0.372-0.307c-0.155-0.128-0.144-0.082-0.271-0.239c-0.119-0.147-0.155-0.293-0.167-0.43
				c-0.006-0.548,0.258-0.864,0.461-1.189c0.226-0.31,0.466-0.601,0.719-0.87c1.01-1.085,2.105-2.042,3.186-3.016
				c1.083-0.968,2.169-1.927,3.216-2.92c1.045-0.992,2.063-2.016,2.935-3.126c0.859-1.142,1.671-2.352,2.656-3.461
				c0.467-0.576,0.958-1.119,1.458-1.651c0.493-0.541,0.988-1.078,1.507-1.591c1.016-1.049,2.069-2.057,3.127-3.06
				c1.064-0.995,2.143-1.974,3.232-2.939c0.534-0.479,1.123-0.962,1.612-1.436c0.517-0.506,1.072-0.995,1.516-1.534
				c0.473-0.52,0.938-1.054,1.374-1.628c0.455-0.554,0.876-1.136,1.297-1.719c0.831-1.168,1.637-2.374,2.369-3.596l0.33-0.55
				l0.447,0.449l10.739,10.768l0.239,0.24l-0.158,0.294c-0.996,1.852-1.999,3.694-3.042,5.519c-1.037,1.826-2.087,3.646-3.211,5.428
				c-0.542,0.9-1.149,1.768-1.744,2.642c-0.281,0.443-0.624,0.86-0.966,1.277c-0.343,0.421-0.671,0.84-1.025,1.213
				c-1.348,1.56-2.634,3.233-3.905,4.889c-2.54,3.33-5.008,6.717-7.438,10.131c-1.207,1.712-2.398,3.436-3.542,5.19
				c-0.572,0.877-1.128,1.764-1.664,2.664c-0.266,0.451-0.526,0.905-0.76,1.373C189.37,196.627,189.122,197.102,189.058,197.625z
				 M189.058,197.625c0.045-0.525,0.277-1.013,0.491-1.488c0.218-0.478,0.463-0.943,0.713-1.404c0.501-0.923,1.037-1.826,1.586-2.72
				c1.099-1.788,2.246-3.546,3.409-5.292c2.327-3.493,4.752-6.917,7.244-10.296c1.255-1.689,2.496-3.364,3.864-5
				c0.361-0.394,0.672-0.807,0.984-1.205c0.316-0.399,0.635-0.796,0.909-1.244c0.57-0.869,1.152-1.729,1.678-2.634
				c1.093-1.777,2.137-3.591,3.158-5.417c1.028-1.821,2.02-3.667,3-5.513l0.081,0.533l-10.798-10.71l0.777-0.102
				c-0.749,1.276-1.564,2.483-2.424,3.674c-0.433,0.592-0.865,1.184-1.335,1.75c-0.446,0.58-0.937,1.139-1.444,1.69
				c-0.488,0.579-1.029,1.047-1.553,1.554c-0.558,0.531-1.097,0.965-1.647,1.452c-1.089,0.955-2.166,1.921-3.228,2.903
				c-1.055,0.989-2.105,1.983-3.115,3.015c-0.517,0.505-1.008,1.033-1.497,1.563c-0.497,0.524-0.982,1.055-1.433,1.605
				c-0.954,1.058-1.771,2.26-2.663,3.432c-0.933,1.168-1.993,2.186-3.067,3.176c-1.076,0.988-2.183,1.934-3.28,2.883
				c-1.092,0.952-2.2,1.892-3.187,2.918c-0.248,0.255-0.474,0.523-0.681,0.796c-0.193,0.263-0.379,0.591-0.364,0.782
				c0.003,0.048,0.015,0.074,0.012,0.074c-0.043,0.005,0.151,0.129,0.125,0.125l0.467,0.388c0.276,0.269,0.508,0.547,0.764,0.82
				c0.941,1.125,1.816,2.288,2.678,3.46C182.677,187.917,185.909,192.744,189.058,197.625z"/>
		</g>
	</g>
	<g>
		<line fill="#FFFFFF" x1="207.008" y1="185.445" x2="210.942" y2="188.309"/>
		<path fill="#231F20" d="M207.008,185.445c0,0,0.345,0.044,0.783,0.216c0.443,0.167,0.984,0.457,1.479,0.812
			c0.489,0.36,0.933,0.785,1.227,1.156c0.3,0.365,0.446,0.68,0.446,0.68s-0.345-0.043-0.784-0.215
			c-0.443-0.166-0.983-0.457-1.478-0.813c-0.489-0.361-0.932-0.787-1.227-1.157C207.155,185.759,207.008,185.445,207.008,185.445z"
			/>
	</g>
	<g>
		<path fill="none" d="M173.392,198.996"/>
	</g>
	<g>
		<path fill="none" d="M178.576,191.593"/>
	</g>
	<g>
		<path fill="#FFFFFF" d="M214.878,154.009c0,0-0.435-1.852,3.669,0c4.104,1.853,9.183,6.148,9.183,6.148l-7.318,14.319
			l-5.546,4.296l3.428,4.056c0,0-6.155,12.409-6.155,14.796c0,2.387-10.516,31.023-10.516,31.023s-32.624,75.681-32.75,86.556
			c-0.125,10.875-0.608-0.75-0.608-0.75s-6.011-14.152,17.971-87.247c4.018-12.244,3.42-31.227,3.42-31.227L214.878,154.009z"/>
		<path fill="#231F20" d="M214.878,154.009c-0.078-0.32,0.117-0.67,0.438-0.761c0.31-0.105,0.641-0.064,0.957-0.025
			c0.637,0.108,1.244,0.332,1.838,0.576c0.603,0.229,1.159,0.558,1.739,0.831c0.575,0.287,1.116,0.64,1.676,0.957
			c1.096,0.674,2.159,1.398,3.205,2.146c1.036,0.763,2.063,1.534,3.058,2.354l0.056,0.046l-0.033,0.066l-7.233,14.363l-0.019,0.036
			l-0.033,0.027l-5.521,4.329l0.035-0.329l3.445,4.04l0.107,0.126l-0.073,0.151c-1.384,2.833-2.728,5.692-3.979,8.584
			c-0.62,1.447-1.227,2.905-1.72,4.386c-0.116,0.37-0.234,0.743-0.313,1.112c-0.039,0.183-0.074,0.37-0.08,0.535
			c-0.018,0.221-0.03,0.395-0.079,0.618c-0.168,0.824-0.39,1.562-0.612,2.331c-0.915,3.034-1.932,6.025-2.953,9.017l-3.129,8.947
			l-3.201,8.921l-0.404,1.114c-0.141,0.411-0.307,0.738-0.458,1.112l-0.929,2.179l-1.847,4.362l-7.29,17.489
			c-4.801,11.683-9.522,23.401-13.966,35.219c-2.206,5.913-4.375,11.847-6.236,17.862c-0.459,1.504-0.896,3.015-1.278,4.532
			c-0.364,1.527-0.731,3.024-0.692,4.559l-0.052,2.378c-0.014,0.398-0.029,0.795-0.06,1.205l-0.033,0.323
			c-0.01,0.063-0.014,0.113-0.046,0.226c-0.036,0.073,0.018,0.015-0.1,0.192c0.106,0.263-0.937,0.146-0.789-0.006
			c-0.1-0.146-0.065-0.119-0.091-0.172l-0.022-0.073c-0.063-0.277-0.072-0.449-0.097-0.661c-0.145-1.604-0.21-3.172-0.282-4.758
			l0.038,0.168c-0.442-1.368-0.51-2.595-0.613-3.89l-0.078-1.916l0.02-1.91c0.056-2.544,0.262-5.075,0.54-7.595
			c0.105-1.265,0.314-2.514,0.479-3.77c0.18-1.253,0.326-2.513,0.56-3.757c0.437-2.492,0.829-4.994,1.365-7.467
			c0.502-2.479,0.989-4.961,1.585-7.419c0.584-2.46,1.1-4.937,1.756-7.378l1.886-7.345l2.042-7.301
			c0.662-2.439,1.391-4.858,2.125-7.276l2.185-7.259l2.311-7.218c0.759-2.405,1.57-4.813,2.287-7.215
			c0.734-2.412,1.241-4.855,1.648-7.347c0.424-2.479,0.707-4.984,0.938-7.492c0.445-5.017,0.619-10.068,0.533-15.102l-0.001-0.081
			l0.04-0.065L214.878,154.009z M214.878,154.009l-24.994,42.106l0.038-0.145c0.066,2.536,0.037,5.063-0.038,7.592
			c-0.082,2.528-0.209,5.057-0.434,7.578c-0.221,2.521-0.495,5.041-0.912,7.542c-0.179,1.255-0.453,2.495-0.688,3.741
			c-0.304,1.235-0.565,2.492-0.947,3.691c-0.718,2.44-1.513,4.821-2.266,7.235l-2.285,7.22l-2.158,7.258
			c-0.725,2.417-1.445,4.836-2.098,7.273l-2.015,7.298l-1.857,7.337c-0.646,2.439-1.152,4.911-1.727,7.366
			c-0.586,2.454-1.064,4.93-1.556,7.402c-0.526,2.467-0.907,4.958-1.334,7.44c-0.229,1.24-0.369,2.491-0.544,3.737
			c-0.159,1.249-0.363,2.493-0.463,3.746c-0.267,2.501-0.462,5.009-0.508,7.515l-0.014,1.878l0.082,1.868
			c0.087,1.214,0.212,2.534,0.55,3.575l0.035,0.107l0.003,0.062c0.073,1.568,0.143,3.156,0.284,4.699
			c0.019,0.18,0.044,0.403,0.07,0.51c0,0,0.004,0.018-0.001-0.002c-0.017-0.029,0.022,0.023-0.061-0.104
			c0.156-0.126-0.851-0.24-0.735-0.004c-0.101,0.159-0.044,0.074-0.07,0.125c-0.005,0.018,0.005-0.029,0.009-0.064l0.026-0.267
			c0.028-0.377,0.043-0.771,0.056-1.161l0.049-2.358c-0.042-1.638,0.344-3.249,0.706-4.784c0.38-1.549,0.828-3.071,1.296-4.586
			c1.894-6.05,4.086-11.98,6.316-17.896c4.49-11.819,9.252-23.526,14.095-35.198l7.352-17.471l1.863-4.357l0.936-2.177
			c0.146-0.357,0.335-0.738,0.448-1.075l0.409-1.111l3.235-8.903l3.163-8.929c1.033-2.982,2.062-5.97,2.983-8.98
			c0.221-0.746,0.451-1.524,0.604-2.247c0.042-0.162,0.061-0.383,0.075-0.555c0.01-0.23,0.052-0.432,0.096-0.635
			c0.087-0.404,0.21-0.784,0.332-1.167c0.512-1.515,1.127-2.974,1.756-4.427c1.27-2.901,2.626-5.755,4.025-8.592l0.033,0.276
			l-3.408-4.071l-0.155-0.185l0.189-0.145l5.571-4.263l-0.052,0.063l7.403-14.275l0.022,0.111c-0.978-0.827-1.996-1.611-3.02-2.384
			c-1.035-0.758-2.088-1.493-3.172-2.178c-0.554-0.322-1.088-0.68-1.658-0.974c-0.578-0.281-1.129-0.615-1.727-0.851
			c-0.589-0.25-1.192-0.481-1.824-0.596c-0.313-0.042-0.643-0.087-0.949,0.014C215.002,153.345,214.805,153.688,214.878,154.009z"/>
	</g>
	<path fill="#FFFFFF" stroke="#231F20" stroke-miterlimit="10" d="M145.811,251.191"/>
	<g>
		<path fill="#FFFFFF" d="M168.621,172.327l5.324,6.446l-6.351,13.276C167.594,192.049,167.614,174.742,168.621,172.327z"/>
		<path fill="#231F20" d="M168.66,172.295c0.996,0.984,1.944,2.009,2.877,3.045c0.945,1.026,1.848,2.088,2.749,3.151l0.176,0.208
			l-0.119,0.264c-1.004,2.239-2.265,4.354-3.408,6.527c-0.576,1.084-1.085,2.2-1.592,3.317c-0.504,1.118-0.972,2.254-1.448,3.386
			l-0.564,1.341l-0.071-1.485c-0.079-1.652-0.103-3.302-0.105-4.953c-0.009-1.651-0.002-3.303,0.079-4.953
			c0.065-1.651,0.212-3.3,0.368-4.948c0.093-0.824,0.207-1.646,0.338-2.466c0.062-0.41,0.151-0.818,0.246-1.225
			c0.1-0.405,0.196-0.814,0.39-1.196l0.032-0.064L168.66,172.295z M168.651,172.455c-0.166,0.755-0.182,1.546-0.225,2.326
			c-0.041,0.819-0.05,1.641-0.064,2.463l-0.08,4.933c-0.022,1.645-0.09,3.29-0.152,4.936c-0.054,1.646-0.113,3.292-0.202,4.938
			l-0.635-0.145c0.583-1.081,1.173-2.158,1.727-3.252c0.552-1.096,1.101-2.192,1.583-3.321c0.974-2.253,1.83-4.563,2.942-6.75
			l0.058,0.473c-0.874-1.085-1.746-2.172-2.575-3.295C170.211,174.678,169.411,173.584,168.651,172.455z"/>
	</g>
	<g>
		<line fill="#FFFFFF" x1="215.219" y1="178.773" x2="205.431" y2="170.317"/>
		<polygon fill="#231F20" points="214.892,179.151 205.431,170.317 215.546,178.395 		"/>
	</g>
</g>
</svg>
