<?xml version="1.0" encoding="utf-8"?>
<!-- Generator: Adobe Illustrator 16.0.0, SVG Export Plug-In . SVG Version: 6.00 Build 0)  -->
<!DOCTYPE svg PUBLIC "-//W3C//DTD SVG 1.1//EN" "http://www.w3.org/Graphics/SVG/1.1/DTD/svg11.dtd">
<svg version="1.1" xmlns="http://www.w3.org/2000/svg" xmlns:xlink="http://www.w3.org/1999/xlink" x="0px" y="0px" width="400px"
	 height="400px" viewBox="0 0 400 400" enable-background="new 0 0 400 400" xml:space="preserve">
<g id="Layer_2" display="none">
	<rect display="inline" fill="#FFFFFF" width="401.883" height="400"/>
	<g display="inline">
		<g>
			<path fill="#231F20" d="M121.7,195.466c0,0.026,0.448,0.024,1.228,0.345c0.376,0.169,0.846,0.437,1.232,0.95
				c0.391,0.503,0.626,1.266,0.579,2.039c-0.034,0.773-0.247,1.562-0.566,2.324c-0.314,0.767-0.71,1.525-1.174,2.263
				c-0.462,0.736-0.943,1.487-1.468,2.202c-0.514,0.718-1.054,1.447-1.456,2.138c-0.095,0.158-0.206,0.352-0.239,0.445l-0.25,0.626
				l-0.121,0.309l-0.055,0.257l-0.12,0.508c-0.082,0.729-0.06,1.439,0.154,2.129c0.451,1.379,1.421,2.623,2.175,3.758
				c0.782,1.121,1.337,2.184,1.568,2.969c0.146,0.379,0.172,0.707,0.21,0.917c0.033,0.211,0.051,0.323,0.051,0.323
				s-0.054-0.101-0.155-0.29c-0.1-0.188-0.238-0.462-0.466-0.779c-0.42-0.655-1.152-1.46-2.098-2.414
				c-0.472-0.476-1-1.005-1.518-1.624c-0.51-0.633-1.057-1.345-1.421-2.252c-0.353-0.904-0.542-1.959-0.414-2.996
				c0.042-0.264,0.105-0.529,0.163-0.795l0.093-0.398l0.115-0.32l0.234-0.633c0.123-0.327,0.241-0.526,0.372-0.756
				c0.53-0.854,1.09-1.555,1.625-2.268c0.531-0.709,1.082-1.367,1.56-2.033c0.969-1.314,1.787-2.595,2.063-3.741
				c0.125-0.569,0.091-1.083-0.095-1.513c-0.192-0.424-0.496-0.767-0.788-1.006c-0.293-0.229-0.546-0.416-0.738-0.516
				C121.798,195.524,121.7,195.466,121.7,195.466z"/>
		</g>
		<g>
			<path fill="#231F20" d="M126.594,212.709c0,0-0.079-0.438-0.219-1.201c-0.125-0.758-0.342-1.847-0.342-3.229
				c-0.008-0.345,0.041-0.712,0.063-1.093c0.064-0.378,0.133-0.776,0.256-1.175c0.07-0.198,0.142-0.4,0.214-0.604l0.056-0.154
				l0.014-0.038l0.036-0.07l0.032-0.065l0.131-0.266c0.146-0.346,0.414-0.732,0.674-1.123c0.522-0.719,1.078-1.41,1.67-2.036
				c0.578-0.635,1.155-1.258,1.622-1.902c0.146-0.218,0.511-0.721,0.635-1.001l0.21-0.452c0.063-0.159,0.098-0.337,0.152-0.503
				c0.152-0.68,0.227-1.378,0.073-2.085c-0.153-0.699-0.354-1.403-0.652-2.06c-0.284-0.657-0.593-1.287-0.881-1.872
				c-0.594-1.165-1.077-2.175-1.352-2.908c-0.155-0.356-0.228-0.661-0.296-0.857c-0.063-0.198-0.096-0.304-0.096-0.304
				s0.269,0.351,0.738,0.965c0.463,0.612,1.174,1.437,1.979,2.496c0.403,0.531,0.84,1.115,1.236,1.801
				c0.416,0.668,0.793,1.456,1.039,2.346c0.254,0.888,0.319,1.932,0.09,2.925c-0.068,0.247-0.119,0.496-0.207,0.742l-0.326,0.739
				c-0.25,0.504-0.406,0.717-0.742,1.225c-1.177,1.504-2.512,2.64-3.486,3.795c-0.219,0.275-0.436,0.537-0.658,0.891l-0.164,0.246
				l-0.041,0.061c0.002-0.007-0.035,0.057,0-0.008l-0.015,0.029l-0.058,0.113c-0.078,0.152-0.154,0.303-0.23,0.45
				c-0.268,0.613-0.457,1.247-0.576,1.864c-0.227,1.236-0.305,2.341-0.401,3.113C126.676,212.271,126.594,212.709,126.594,212.709z"
				/>
		</g>
	</g>
</g>
<g id="Layer_1">
	<g>
		<path fill="#231F20" d="M148.831,92.339c0.162,0.327,0,4.189,0,4.189s4.445-0.68,7.92-1.088c3.476-0.409,5.587-0.981,7.875,0
			c2.288,0.98,9.833,4.181,10.318,4.218c0.485,0.037-2.182-5.11-2.425-5.274c-0.243-0.163-6.224-3.023-8.648-3.104
			c-2.425-0.082-9.375-0.245-12.446,0.898C148.354,93.323,148.831,92.339,148.831,92.339z"/>
		<path fill="#231F20" d="M148.879,92.326c0.096,0.322,0.119,0.714,0.143,1.056l0.05,1.053c0.029,0.702,0.041,1.402,0.032,2.104
			l-0.315-0.282c1.188-0.199,2.372-0.427,3.564-0.602l3.575-0.543c1.188-0.185,2.376-0.327,3.578-0.458
			c1.201-0.124,2.459-0.194,3.696,0.06c1.259,0.258,2.297,0.908,3.399,1.369c1.095,0.498,2.202,0.967,3.317,1.417
			c1.113,0.454,2.232,0.893,3.36,1.306c0.563,0.206,1.096,0.363,1.635,0.55l0.05,0.017c-0.255,0.045,0.056-0.037-0.152,0.035
			c-0.051,0.032-0.086,0.092-0.093,0.137c-0.004,0.017-0.004,0.006-0.006,0.011c-0.003,0,0.002,0.014-0.002-0.004
			c-0.007-0.039-0.024-0.103-0.045-0.165c-0.041-0.126-0.098-0.262-0.153-0.395c-0.115-0.267-0.243-0.535-0.374-0.801
			c-0.536-1.058-1.092-2.13-1.701-3.136c-0.073-0.119-0.159-0.257-0.22-0.334c0.001,0.001-0.026-0.032-0.001-0.002
			c0.009,0.019,0.098,0.068,0.056,0.046l-0.101-0.05l-0.202-0.101l-0.783-0.357c-0.548-0.236-1.093-0.479-1.647-0.699
			c-1.101-0.461-2.224-0.854-3.342-1.223c-0.556-0.152-1.13-0.348-1.671-0.421c-0.276-0.029-0.528-0.094-0.824-0.106l-0.901-0.036
			c-2.386-0.061-4.786-0.132-7.162,0.022c-1.183,0.077-2.386,0.148-3.518,0.441c-0.569,0.122-1.162,0.305-1.745,0.451
			c-0.308,0.051-0.602,0.138-0.922,0.134c-0.152,0.022-0.32-0.01-0.48-0.054c-0.174-0.06-0.291-0.283-0.188-0.449l0.061-0.099
			L148.879,92.326z M148.875,92.361c-0.088,0.29,0.302,0.307,0.565,0.245c0.285-0.024,0.565-0.139,0.844-0.215
			c0.567-0.202,1.1-0.451,1.698-0.622c0.585-0.215,1.184-0.329,1.783-0.448c0.599-0.141,1.202-0.194,1.805-0.281
			c2.417-0.256,4.837-0.351,7.259-0.312l0.902,0.016c0.306,0.003,0.645,0.073,0.965,0.113c0.649,0.095,1.222,0.296,1.822,0.462
			c1.164,0.39,2.295,0.841,3.403,1.333c0.558,0.238,1.105,0.499,1.656,0.754l0.847,0.417l0.199,0.106l0.099,0.053
			c-0.006-0.009,0.11,0.067,0.145,0.114c0.052,0.056,0.044,0.055,0.069,0.086c0.115,0.167,0.179,0.29,0.258,0.43
			c0.58,1.085,1.106,2.164,1.574,3.292c0.116,0.282,0.228,0.566,0.331,0.859c0.05,0.149,0.101,0.295,0.141,0.458
			c0.02,0.083,0.04,0.165,0.049,0.276c0.004,0.02,0.002,0.072-0.001,0.109c-0.003,0.023-0.002,0.032-0.009,0.067
			c-0.015,0.062-0.058,0.139-0.117,0.188c-0.029,0.025-0.059,0.043-0.085,0.056l-0.015,0.004l-0.014,0.004
			c0.101-0.014-0.152,0.023-0.131,0.017l-0.056-0.021c-0.589-0.229-1.201-0.448-1.752-0.691c-1.097-0.5-2.213-0.952-3.317-1.431
			c-1.102-0.484-2.217-0.936-3.335-1.381c-1.124-0.427-2.234-0.956-3.36-1.1c-1.142-0.16-2.31,0.018-3.489,0.182
			c-1.184,0.183-2.382,0.338-3.577,0.48l-3.575,0.439c-1.191,0.152-2.39,0.252-3.585,0.381l-0.339,0.037l0.024-0.319l0.157-2.088
			l0.064-1.044c0.006-0.355,0.059-0.669,0.003-1.032L148.875,92.361z"/>
	</g>
</g>
</svg>
