<svg id="Layer_1" data-name="Layer 1" xmlns="http://www.w3.org/2000/svg" viewBox="0 0 7.78 25"><defs><style>.cls-1{fill:#231f20;}</style></defs><title>steam-single2</title><path class="cls-1" d="M97.75,157.72l-0.22-1.2a18.17,18.17,0,0,1-.34-3.23c0-.35,0-0.71.06-1.09a9.07,9.07,0,0,1,.26-1.18l0.21-.6,0.06-.15v0l0-.07,0-.07,0.13-.27a7.66,7.66,0,0,1,.67-1.12,20.45,20.45,0,0,1,1.67-2,23.07,23.07,0,0,0,1.62-1.9,9,9,0,0,0,.63-1l0.21-.45c0.06-.16.1-0.34,0.15-0.5a4.79,4.79,0,0,0,.07-2.09,10.34,10.34,0,0,0-.65-2.06c-0.28-.66-0.59-1.29-0.88-1.87a31.54,31.54,0,0,1-1.35-2.91,8.94,8.94,0,0,1-.3-0.86l-0.1-.3,0.74,1c0.46,0.61,1.17,1.44,2,2.5a17,17,0,0,1,1.24,1.8,9,9,0,0,1,1,2.35,6,6,0,0,1,.09,2.93c-0.07.25-.12,0.5-0.21,0.74l-0.33.74a9.57,9.57,0,0,1-.74,1.23c-1.18,1.5-2.51,2.64-3.49,3.79a9.18,9.18,0,0,0-.66.89l-0.16.25,0,0.06s0,0.06,0,0v0l-0.06.11-0.23.45a8.86,8.86,0,0,0-.58,1.86c-0.23,1.24-.31,2.34-0.4,3.11S97.75,157.72,97.75,157.72Z" transform="translate(-97.19 -132.72)"/></svg>