<svg id="Layer_1" data-name="Layer 1" xmlns="http://www.w3.org/2000/svg" viewBox="0 0 7.41 24.5"><defs><style>.cls-1{fill:#231f20;}</style></defs><title>steam-single1</title><path class="cls-1" d="M94.48,139.47a5.68,5.68,0,0,1,1.23.35,3,3,0,0,1,1.23.95,3.11,3.11,0,0,1,.58,2,6.87,6.87,0,0,1-.57,2.32,14.81,14.81,0,0,1-1.17,2.26c-0.46.74-.94,1.49-1.47,2.2s-1.05,1.45-1.46,2.14a3.51,3.51,0,0,0-.24.45l-0.25.63-0.12.31-0.06.26-0.12.51a5.15,5.15,0,0,0,.15,2.13,16.42,16.42,0,0,0,2.18,3.76,11.27,11.27,0,0,1,1.57,3,4.28,4.28,0,0,1,.21.92L96.22,164l-0.15-.29a6.17,6.17,0,0,0-.47-0.78,16.71,16.71,0,0,0-2.1-2.41c-0.47-.48-1-1-1.52-1.62a8.8,8.8,0,0,1-1.42-2.25,6.26,6.26,0,0,1-.41-3c0-.26.11-0.53,0.16-0.79l0.09-.4,0.11-.32,0.23-.63a4.72,4.72,0,0,1,.37-0.76c0.53-.85,1.09-1.55,1.63-2.27s1.08-1.37,1.56-2a11.59,11.59,0,0,0,2.06-3.74,2.45,2.45,0,0,0-.1-1.51,2.85,2.85,0,0,0-.79-1,5.56,5.56,0,0,0-.74-0.52Z" transform="translate(-90.11 -139.47)"/></svg>