<?xml version="1.0" encoding="utf-8"?>
<!-- Generator: Adobe Illustrator 16.0.0, SVG Export Plug-In . SVG Version: 6.00 Build 0)  -->
<!DOCTYPE svg PUBLIC "-//W3C//DTD SVG 1.1//EN" "http://www.w3.org/Graphics/SVG/1.1/DTD/svg11.dtd">
<svg version="1.1" xmlns="http://www.w3.org/2000/svg" xmlns:xlink="http://www.w3.org/1999/xlink" x="0px" y="0px" width="400px"
	 height="400px" viewBox="0 0 400 400" enable-background="new 0 0 400 400" xml:space="preserve">
<g id="Layer_2">
	<rect fill="#FFFFFF" width="401.883" height="400"/>
	<g>
		<g>
			<path stroke="#231F20" d="M121.7,195.466c0,0.026,0.448,0.024,1.228,0.345c0.376,0.169,0.846,0.437,1.232,0.95
				c0.391,0.503,0.626,1.266,0.579,2.039c-0.034,0.773-0.247,1.562-0.566,2.324c-0.314,0.767-0.71,1.525-1.174,2.263
				c-0.462,0.736-0.943,1.487-1.468,2.202c-0.514,0.718-1.054,1.447-1.456,2.138c-0.095,0.158-0.206,0.352-0.239,0.445l-0.25,0.626
				l-0.121,0.309l-0.055,0.257l-0.12,0.508c-0.082,0.729-0.06,1.439,0.154,2.129c0.451,1.379,1.421,2.623,2.175,3.758
				c0.782,1.121,1.337,2.184,1.568,2.969c0.146,0.379,0.172,0.707,0.21,0.917c0.033,0.211,0.051,0.323,0.051,0.323
				s-0.054-0.101-0.155-0.29c-0.1-0.188-0.238-0.462-0.466-0.779c-0.42-0.655-1.152-1.46-2.098-2.414
				c-0.472-0.476-1-1.005-1.518-1.624c-0.51-0.633-1.057-1.345-1.421-2.252c-0.353-0.904-0.542-1.959-0.414-2.996
				c0.042-0.264,0.105-0.529,0.163-0.795l0.093-0.398l0.115-0.32l0.234-0.633c0.123-0.327,0.241-0.526,0.372-0.756
				c0.53-0.854,1.09-1.555,1.625-2.268c0.531-0.709,1.082-1.367,1.56-2.033c0.969-1.314,1.787-2.595,2.063-3.741
				c0.125-0.569,0.091-1.083-0.095-1.513c-0.192-0.424-0.496-0.767-0.788-1.006c-0.293-0.229-0.546-0.416-0.738-0.516
				C121.798,195.524,121.7,195.466,121.7,195.466z"/>
		</g>
		<g>
			<path stroke="#231F20" d="M126.594,212.709c0,0-0.079-0.438-0.219-1.201c-0.125-0.758-0.342-1.847-0.342-3.229
				c-0.008-0.345,0.041-0.712,0.063-1.093c0.064-0.378,0.133-0.776,0.256-1.175c0.07-0.198,0.142-0.4,0.214-0.604l0.056-0.154
				l0.014-0.038l0.036-0.07l0.032-0.065l0.131-0.266c0.146-0.346,0.414-0.732,0.674-1.123c0.522-0.719,1.078-1.41,1.67-2.036
				c0.578-0.635,1.155-1.258,1.622-1.902c0.146-0.218,0.511-0.721,0.635-1.001l0.21-0.452c0.063-0.159,0.098-0.337,0.152-0.503
				c0.152-0.68,0.227-1.378,0.073-2.085c-0.153-0.699-0.354-1.403-0.652-2.06c-0.284-0.657-0.593-1.287-0.881-1.872
				c-0.594-1.165-1.077-2.175-1.352-2.908c-0.155-0.356-0.228-0.661-0.296-0.857c-0.063-0.198-0.096-0.304-0.096-0.304
				s0.269,0.351,0.738,0.965c0.463,0.612,1.174,1.437,1.979,2.496c0.403,0.531,0.84,1.115,1.236,1.801
				c0.416,0.668,0.793,1.456,1.039,2.346c0.254,0.888,0.319,1.932,0.09,2.925c-0.068,0.247-0.119,0.496-0.207,0.742l-0.326,0.739
				c-0.25,0.504-0.406,0.717-0.742,1.225c-1.177,1.504-2.512,2.64-3.486,3.795c-0.219,0.275-0.436,0.537-0.658,0.891l-0.164,0.246
				l-0.041,0.061c0.002-0.007-0.035,0.057,0-0.008l-0.015,0.029l-0.058,0.113c-0.078,0.152-0.154,0.303-0.23,0.45
				c-0.268,0.613-0.457,1.247-0.576,1.864c-0.227,1.236-0.305,2.341-0.401,3.113C126.676,212.271,126.594,212.709,126.594,212.709z"
				/>
		</g>
	</g>
</g>
<g id="Layer_1" display="none">
</g>
</svg>
