<svg id="Layer_1" data-name="Layer 1" xmlns="http://www.w3.org/2000/svg" viewBox="0 0 20.15 33.8"><defs><style>.cls-1{fill:#231f20;}</style></defs><title>steam3</title><path class="cls-1" d="M107.22,142a5.68,5.68,0,0,1,1.23.35,3,3,0,0,1,1.23.95,3.11,3.11,0,0,1,.58,2,6.87,6.87,0,0,1-.57,2.32,14.81,14.81,0,0,1-1.17,2.26c-0.46.74-.94,1.49-1.47,2.2s-1.05,1.45-1.46,2.14a3.51,3.51,0,0,0-.24.45l-0.25.63-0.12.31-0.06.26-0.12.51a5.15,5.15,0,0,0,.15,2.13,16.42,16.42,0,0,0,2.18,3.76,11.27,11.27,0,0,1,1.57,3,4.28,4.28,0,0,1,.21.92l0.05,0.32-0.15-.29a6.17,6.17,0,0,0-.47-0.78,16.71,16.71,0,0,0-2.1-2.41c-0.47-.48-1-1-1.52-1.62a8.8,8.8,0,0,1-1.42-2.25,6.26,6.26,0,0,1-.41-3c0-.26.11-0.53,0.16-0.79l0.09-.4,0.11-.32,0.23-.63a4.72,4.72,0,0,1,.37-0.76c0.53-.85,1.09-1.55,1.63-2.27s1.08-1.37,1.56-2a11.59,11.59,0,0,0,2.06-3.74,2.45,2.45,0,0,0-.1-1.51,2.85,2.85,0,0,0-.79-1,5.56,5.56,0,0,0-.74-0.52Z" transform="translate(-90.11 -132.72)"/><path class="cls-1" d="M97.75,157.72l-0.22-1.2a18.17,18.17,0,0,1-.34-3.23c0-.35,0-0.71.06-1.09a9.07,9.07,0,0,1,.26-1.18l0.21-.6,0.06-.15v0l0-.07,0-.07,0.13-.27a7.66,7.66,0,0,1,.67-1.12,20.45,20.45,0,0,1,1.67-2,23.07,23.07,0,0,0,1.62-1.9,9,9,0,0,0,.63-1l0.21-.45c0.06-.16.1-0.34,0.15-0.5a4.79,4.79,0,0,0,.07-2.09,10.34,10.34,0,0,0-.65-2.06c-0.28-.66-0.59-1.29-0.88-1.87a31.54,31.54,0,0,1-1.35-2.91,8.94,8.94,0,0,1-.3-0.86l-0.1-.3,0.74,1c0.46,0.61,1.17,1.44,2,2.5a17,17,0,0,1,1.24,1.8,9,9,0,0,1,1,2.35,6,6,0,0,1,.09,2.93c-0.07.25-.12,0.5-0.21,0.74l-0.33.74a9.57,9.57,0,0,1-.74,1.23c-1.18,1.5-2.51,2.64-3.49,3.79a9.18,9.18,0,0,0-.66.89l-0.16.25,0,0.06s0,0.06,0,0v0l-0.06.11-0.23.45a8.86,8.86,0,0,0-.58,1.86c-0.23,1.24-.31,2.34-0.4,3.11S97.75,157.72,97.75,157.72Z" transform="translate(-90.11 -132.72)"/><path class="cls-1" d="M94.48,139.47a5.68,5.68,0,0,1,1.23.35,3,3,0,0,1,1.23.95,3.11,3.11,0,0,1,.58,2,6.87,6.87,0,0,1-.57,2.32,14.81,14.81,0,0,1-1.17,2.26c-0.46.74-.94,1.49-1.47,2.2s-1.05,1.45-1.46,2.14a3.51,3.51,0,0,0-.24.45l-0.25.63-0.12.31-0.06.26-0.12.51a5.15,5.15,0,0,0,.15,2.13,16.42,16.42,0,0,0,2.18,3.76,11.27,11.27,0,0,1,1.57,3,4.28,4.28,0,0,1,.21.92L96.22,164l-0.15-.29a6.17,6.17,0,0,0-.47-0.78,16.71,16.71,0,0,0-2.1-2.41c-0.47-.48-1-1-1.52-1.62a8.8,8.8,0,0,1-1.42-2.25,6.26,6.26,0,0,1-.41-3c0-.26.11-0.53,0.16-0.79l0.09-.4,0.11-.32,0.23-.63a4.72,4.72,0,0,1,.37-0.76c0.53-.85,1.09-1.55,1.63-2.27s1.08-1.37,1.56-2a11.59,11.59,0,0,0,2.06-3.74,2.45,2.45,0,0,0-.1-1.51,2.85,2.85,0,0,0-.79-1,5.56,5.56,0,0,0-.74-0.52Z" transform="translate(-90.11 -132.72)"/></svg>